<svg xmlns="http://www.w3.org/2000/svg" xmlns:xlink="http://www.w3.org/1999/xlink" width="528" height="313.841" viewBox="0 0 528 313.841">
  <defs>
    <clipPath id="clip-path">
      <path id="Tracé_949" data-name="Tracé 949" d="M133.766,141.329S53.355,222.552,77.722,281.034c34.923,83.816,173.82-27.616,173.82-27.616s25.993,46.3,30.054,49.546,22.741,0,23.555-6.5S279.97,228.239,267.787,219.3s-108.028,22.743-108.028,22.743,1.244-16.828,9.361-82.823C161.784,155.654,133.766,141.329,133.766,141.329Z" transform="translate(-73.124 -141.329)" fill="#e8491c"/>
    </clipPath>
  </defs>
  <g id="Groupe_1311" data-name="Groupe 1311" transform="translate(-739.5 -379.659)">
    <g id="Groupe_1033" data-name="Groupe 1033" transform="translate(722.188 306.506)">
      <path id="Tracé_937" data-name="Tracé 937" d="M40.143,167.574c-6.9-7.58-3.448-22.741,17.243-19.492,1.724-17.328,21.552-19.494,25.861-9.748,18.1-23.825,40.519-35.739,61.209-11.913,9.483-8.664,45.691,0,37.07,35.739C143.593,182.737,40.143,167.574,40.143,167.574Z" transform="translate(2.558 32.103)" fill="#2c68b0"/>
      <path id="Tracé_938" data-name="Tracé 938" d="M220.17,249.3s18.439,2.087,24.391,6.409,8.471,4.822,18.115-12.12l17.279-30.353s-3.03-4.528-6.354-3.616-19.005,21.893-29.984,23.119-22.871-.868-22.871-.868Z" transform="translate(153.638 111.299)" fill="#e8491c"/>
      <path id="Tracé_939" data-name="Tracé 939" d="M173.332,169.916c1.219,0,22.336,2.437,32.084-9.748s.812-18.275.812-18.275-20.306-8.122-31.271,21.931" transform="translate(115.024 54.741)" fill="#ffbe9d"/>
      <path id="Tracé_940" data-name="Tracé 940" d="M198.453,128.627,177.116,164.6l14.644,9.338,2.574.172,23.683-35.01-.4-2.333Z" transform="translate(118.144 44.628)" fill="#373461"/>
      <path id="Tracé_941" data-name="Tracé 941" d="M196.987,129.849,179.311,161.77l11.5,6.35,22.138-31.234Z" transform="translate(119.953 45.636)" fill="#d09cff"/>
      <path id="Tracé_942" data-name="Tracé 942" d="M172.887,161.046s6.032-13.271,9.317-18.018c1.545-2.229,13.831-6.754,13.831-2.288s-8.934,6.092-8.934,6.092-5.28,5.28-7.31,19.494C178.678,174.12,172.887,161.046,172.887,161.046Z" transform="translate(114.657 53.051)" fill="#ffbe9d"/>
      <path id="Tracé_943" data-name="Tracé 943" d="M158.63,117.678s-4.331,80.681-15.161,99.094c-15.7-2.166-29.24-11.372-29.24-11.372l26.533-99.093Z" transform="translate(66.298 26.227)" fill="#373461"/>
      <path id="Tracé_944" data-name="Tracé 944" d="M118.728,153.927s55.233,31.677,103.155-3.249c11.549,6.449,13.608,13.141,13.608,13.141s-47.723,63.209-122.45,32.343" transform="translate(65.318 62.808)" fill="#2c68b0"/>
      <path id="Tracé_945" data-name="Tracé 945" d="M109.035,252.494s197.373,1.624,207.121,0c6.5-7.31,3.249-22.743,3.249-22.743s-86.91-15.433-151.079-20.306" transform="translate(62.016 111.257)" fill="#ef7c1f"/>
      <path id="Tracé_946" data-name="Tracé 946" d="M188.281,230.478s7.31,17.057,6.5,24.367,0,9.748,19.494,9.748H249.2s2.437-4.875,0-7.31-28.428-5.687-34.925-14.621-10.56-20.306-10.56-20.306Z" transform="translate(127.348 121.901)" fill="#e8491c"/>
      <g id="Groupe_1032" data-name="Groupe 1032" transform="translate(105.533 196.429)">
        <path id="Tracé_947" data-name="Tracé 947" d="M133.766,141.329S53.355,222.552,77.722,281.034c34.923,83.816,173.82-27.616,173.82-27.616s25.993,46.3,30.054,49.546,22.741,0,23.555-6.5S279.97,228.239,267.787,219.3s-108.028,22.743-108.028,22.743,1.244-16.828,9.361-82.823C161.784,155.654,133.766,141.329,133.766,141.329Z" transform="translate(-73.124 -141.329)" fill="#f8af34"/>
        <g id="Groupe_1031" data-name="Groupe 1031" clip-path="url(#clip-path)">
          <path id="Tracé_948" data-name="Tracé 948" d="M178.562,235.439l-13,9.544L96.52,308.338S55.1,275.848,68.9,231.987s53.609-94.22,53.609-94.22l61.737,19.7Z" transform="translate(-78.926 -144.266)" fill="#304798"/>
        </g>
      </g>
      <path id="Tracé_950" data-name="Tracé 950" d="M105.922,151.383c-12.765,3.039-13.807,99.094,10.56,104.78,35.532,8.29,84.473-39.8,84.473-39.8s-4.873-10.558-25.991-5.685a208.043,208.043,0,0,0-38.176,13S140.037,143.261,105.922,151.383Z" transform="translate(52.131 62.914)" fill="#2c68b0"/>
      <path id="Tracé_951" data-name="Tracé 951" d="M121.894,136.245s-15.447,41.442-10.877,45.685c19.43,18.042,26.37,11.5,26.37,11.5l5.851-26.226s22.063,4.236,30.906-3.881c8.7-7.984,15.9-40.842,7.508-53.213S137.885,85.949,121.894,136.245Z" transform="translate(62.953 20.498)" fill="#ffbe9d"/>
      <path id="Tracé_952" data-name="Tracé 952" d="M191.1,120.972s-11.014,17.971-35.328,12.959c-2.319,9.991-9.257,73.44-13.36,95.649-27.881,19.426-55.253-9.14-55.253-9.14s35.97-45.658,36.986-82.69c.719-26.255,16.836-49.772,36.406-50.715,27.043-1.3,54.22,12.691,45.853,50.544C194.913,135.858,191.1,120.972,191.1,120.972Z" transform="translate(43.984 10.271)" fill="#1e1e1e"/>
      <path id="Tracé_953" data-name="Tracé 953" d="M135.816,122.292s-3.107-17.774-12.143-11.7-5.422,26.932,5.918,21.061" transform="translate(69.885 28.715)" fill="#ffbe9d"/>
      <path id="Tracé_954" data-name="Tracé 954" d="M140.785,120.794c-.151,1.768-1.35,3.109-2.676,2.994s-2.277-1.64-2.124-3.408,1.35-3.109,2.676-2.994S140.939,119.026,140.785,120.794Z" transform="translate(84.221 35.356)" fill="#371f46"/>
      <path id="Tracé_955" data-name="Tracé 955" d="M150.855,121.885c-.153,1.768-1.352,3.109-2.676,2.994s-2.277-1.64-2.125-3.408,1.352-3.109,2.678-2.994S151.008,120.117,150.855,121.885Z" transform="translate(92.521 36.255)" fill="#371f46"/>
      <path id="Tracé_956" data-name="Tracé 956" d="M133.078,119.917s10.313-2.737,13.094-6.931C146.247,121.457,133.078,119.917,133.078,119.917Z" transform="translate(81.837 31.734)" fill="#373461"/>
      <path id="Tracé_957" data-name="Tracé 957" d="M156.9,122.041s-9.691-4.466-11.711-9.075C143.665,121.3,156.9,122.041,156.9,122.041Z" transform="translate(91.724 31.717)" fill="#373461"/>
      <path id="Tracé_958" data-name="Tracé 958" d="M145.044,116.761s2.091,14.714.317,16.575-4.47.421-4.47.421" transform="translate(88.279 34.846)" fill="none" stroke="#f58589" stroke-linecap="round" stroke-miterlimit="10" stroke-width="1"/>
      <path id="Tracé_959" data-name="Tracé 959" d="M136.222,128.987a18.908,18.908,0,0,1,8.662,2.361" transform="translate(84.429 44.925)" fill="none" stroke="#f58589" stroke-linecap="round" stroke-miterlimit="10" stroke-width="1"/>
      <path id="Tracé_960" data-name="Tracé 960" d="M121.153,115s3.82-5.014,5.73-.954-2.388,8.119-2.388,8.119" transform="translate(72.006 31.3)" fill="none" stroke="#f58589" stroke-linecap="round" stroke-miterlimit="10" stroke-width="1"/>
      <path id="Tracé_961" data-name="Tracé 961" d="M180.946,128.634c-6.9-7.58-3.45-22.743,17.241-19.494,1.724-17.327,21.552-19.494,25.863-9.746,18.1-23.825,40.519-35.739,61.209-11.913,9.482-8.664,45.691,0,37.069,35.739C284.4,143.8,180.946,128.634,180.946,128.634Z" transform="translate(118.639 0)" fill="#2c68b0"/>
      <path id="Tracé_962" data-name="Tracé 962" d="M54.988,151.2s-9.854,10.538-4.171,12.512C55.63,165.38,54.988,151.2,54.988,151.2Z" transform="translate(12.564 63.234)" fill="#beccff"/>
      <path id="Tracé_963" data-name="Tracé 963" d="M64.359,148.115s-9.852,10.538-4.171,12.514C65,162.3,64.359,148.115,64.359,148.115Z" transform="translate(20.291 60.695)" fill="#beccff"/>
      <path id="Tracé_964" data-name="Tracé 964" d="M73.52,151.524s-9.854,10.538-4.171,12.512C74.162,165.709,73.52,151.524,73.52,151.524Z" transform="translate(27.842 63.505)" fill="#beccff"/>
      <path id="Tracé_965" data-name="Tracé 965" d="M68.534,182.544s-9.852,10.538-4.171,12.512C69.176,196.729,68.534,182.544,68.534,182.544Z" transform="translate(23.733 89.079)" fill="#beccff"/>
      <path id="Tracé_966" data-name="Tracé 966" d="M47.746,173.774s-9.854,10.538-4.172,12.512C48.388,187.959,47.746,173.774,47.746,173.774Z" transform="translate(6.593 81.849)" fill="#beccff"/>
      <path id="Tracé_967" data-name="Tracé 967" d="M82.678,149.393s-9.852,10.538-4.171,12.514C83.322,163.58,82.678,149.393,82.678,149.393Z" transform="translate(35.393 61.748)" fill="#beccff"/>
      <path id="Tracé_968" data-name="Tracé 968" d="M40.076,185.276s-9.852,10.538-4.171,12.514C40.72,199.461,40.076,185.276,40.076,185.276Z" transform="translate(0.271 91.331)" fill="#beccff"/>
      <path id="Tracé_969" data-name="Tracé 969" d="M49.317,196.422s-9.854,10.538-4.172,12.512C49.959,210.607,49.317,196.422,49.317,196.422Z" transform="translate(7.888 100.52)" fill="#beccff"/>
      <path id="Tracé_970" data-name="Tracé 970" d="M39.747,151.4s-9.852,10.538-4.171,12.512C40.391,165.588,39.747,151.4,39.747,151.4Z" transform="translate(0 63.406)" fill="#beccff"/>
      <path id="Tracé_971" data-name="Tracé 971" d="M48.172,159.715S38.318,170.253,44,172.227C48.814,173.9,48.172,159.715,48.172,159.715Z" transform="translate(6.944 70.258)" fill="#beccff"/>
      <path id="Tracé_972" data-name="Tracé 972" d="M57.33,163.123s-9.852,10.538-4.171,12.514C57.972,177.31,57.33,163.123,57.33,163.123Z" transform="translate(14.496 73.068)" fill="#beccff"/>
      <path id="Tracé_973" data-name="Tracé 973" d="M82.324,167.6s-9.852,10.54-4.171,12.514C82.968,181.783,82.324,167.6,82.324,167.6Z" transform="translate(35.101 76.755)" fill="#beccff"/>
      <path id="Tracé_974" data-name="Tracé 974" d="M66.878,161.3s-9.852,10.538-4.171,12.512C67.52,175.482,66.878,161.3,66.878,161.3Z" transform="translate(22.367 71.562)" fill="#beccff"/>
      <path id="Tracé_975" data-name="Tracé 975" d="M61.8,173.038s-9.852,10.538-4.171,12.512C62.447,187.223,61.8,173.038,61.8,173.038Z" transform="translate(18.183 81.242)" fill="#beccff"/>
      <path id="Tracé_976" data-name="Tracé 976" d="M226.339,113.222s-9.852,10.538-4.171,12.512C226.983,127.407,226.339,113.222,226.339,113.222Z" transform="translate(153.831 31.928)" fill="#beccff"/>
      <path id="Tracé_977" data-name="Tracé 977" d="M235.713,111.092s-9.854,10.538-4.171,12.512C236.355,125.277,235.713,111.092,235.713,111.092Z" transform="translate(161.558 30.172)" fill="#beccff"/>
      <path id="Tracé_978" data-name="Tracé 978" d="M244.871,114.5s-9.852,10.538-4.171,12.512C245.515,128.685,244.871,114.5,244.871,114.5Z" transform="translate(169.109 32.982)" fill="#beccff"/>
      <path id="Tracé_979" data-name="Tracé 979" d="M230.869,135.078s-9.854,10.538-4.171,12.512C231.511,149.263,230.869,135.078,230.869,135.078Z" transform="translate(157.564 49.947)" fill="#beccff"/>
      <path id="Tracé_980" data-name="Tracé 980" d="M217.82,151.329s-9.852,10.538-4.171,12.512C218.462,165.514,217.82,151.329,217.82,151.329Z" transform="translate(146.807 63.345)" fill="#beccff"/>
      <path id="Tracé_981" data-name="Tracé 981" d="M199.636,112.068s-9.852,10.538-4.171,12.512C200.278,126.253,199.636,112.068,199.636,112.068Z" transform="translate(131.816 30.977)" fill="#beccff"/>
      <path id="Tracé_982" data-name="Tracé 982" d="M213.8,139.709s-9.852,10.538-4.171,12.512C214.444,153.894,213.8,139.709,213.8,139.709Z" transform="translate(143.495 53.765)" fill="#beccff"/>
      <path id="Tracé_983" data-name="Tracé 983" d="M210.151,123.872s-9.854,10.538-4.171,12.514C210.794,138.059,210.151,123.872,210.151,123.872Z" transform="translate(140.484 40.708)" fill="#beccff"/>
      <path id="Tracé_984" data-name="Tracé 984" d="M219.523,121.742s-9.852,10.538-4.171,12.514C220.165,135.927,219.523,121.742,219.523,121.742Z" transform="translate(148.211 38.952)" fill="#beccff"/>
      <path id="Tracé_985" data-name="Tracé 985" d="M228.684,125.15s-9.854,10.538-4.172,12.514C229.326,139.337,228.684,125.15,228.684,125.15Z" transform="translate(155.762 41.762)" fill="#beccff"/>
      <path id="Tracé_986" data-name="Tracé 986" d="M244.658,129.624s-9.852,10.538-4.171,12.512C245.3,143.809,244.658,129.624,244.658,129.624Z" transform="translate(168.933 45.45)" fill="#beccff"/>
      <path id="Tracé_987" data-name="Tracé 987" d="M211.651,110.033s-9.854,10.538-4.172,12.514C212.293,124.22,211.651,110.033,211.651,110.033Z" transform="translate(141.72 29.299)" fill="#beccff"/>
      <path id="Tracé_988" data-name="Tracé 988" d="M237.842,123.02s-9.852,10.538-4.171,12.514C238.484,137.207,237.842,123.02,237.842,123.02Z" transform="translate(163.314 40.006)" fill="#beccff"/>
      <path id="Tracé_989" data-name="Tracé 989" d="M189.012,118.452s-9.852,10.536-4.171,12.512C189.656,132.637,189.012,118.452,189.012,118.452Z" transform="translate(123.057 36.24)" fill="#beccff"/>
    </g>
    <path id="Tracé_673" data-name="Tracé 673" d="M739.358,629.174S814.19,543.4,761.718,463.392c-19.58-29.855-69.566-46.62-115.516-33.02-27.141,8.034-68.3,6.848-108.523-63.964C482.83,269.84,255.143,313.75,299.586,482.944c18.72,71.268-51.055,74.512-16.493,146.383Z" transform="translate(482.67 63.673)" fill="#f8af34" opacity="0.1"/>
    <line id="Ligne_73" data-name="Ligne 73" x2="528" transform="translate(739.5 693)" fill="none" stroke="#393c3e" stroke-width="1"/>
  </g>
</svg>
