<svg width="346" height="281" viewBox="0 0 346 281" fill="none" xmlns="http://www.w3.org/2000/svg">
<g id="Group">
<g id="Group_2">
<g id="Group_3">
<g id="Group_4">
<g id="Group_5">
<g id="Group_6">
<path id="Vector" d="M290.979 1.52474L243.398 12.0627C239.737 12.8736 237.426 16.499 238.237 20.1603L248.08 64.6034C248.891 68.2647 252.517 70.5754 256.178 69.7645L303.759 59.2265C307.42 58.4156 309.731 54.7902 308.92 51.1289L299.077 6.68586C298.266 3.02456 294.641 0.713852 290.979 1.52474Z" fill="#2C68B0"/>
</g>
</g>
<g id="Group_7">
<g id="Group_8">
<g id="Group_9">
<path id="Vector_2" d="M290.364 41.607C290.206 41.6683 290.042 41.7161 289.876 41.75L288.455 42.099L283.18 43.334L265.448 47.364L265.304 47.397L265.251 47.258L264.181 44.41C261.075 36.066 258.303 28.62 256.491 23.753L256.617 23.821L251.881 24.831L250.617 25.085C250.473 25.1203 250.325 25.1427 250.177 25.152C250.315 25.0969 250.458 25.0544 250.604 25.025L251.855 24.716L256.564 23.607L256.656 23.585L256.69 23.674L264.498 44.287L265.566 47.135L265.366 47.029L283.123 43.107L288.423 41.974L289.858 41.684C290.024 41.6439 290.193 41.6181 290.364 41.607V41.607Z" fill="#FAFAFA"/>
</g>
<g id="Group_10">
<path id="Vector_3" d="M263.527 42.188C263.565 42.1683 263.607 42.1541 263.649 42.146L264.014 42.046L265.435 41.7L270.765 40.456L289.165 36.271L289.037 36.439C288.888 33.217 288.727 29.733 288.561 26.127C288.477 24.273 288.395 22.45 288.316 20.712L288.523 20.871L266.805 25.678L260.37 27.071L258.632 27.43L258.18 27.515C258.129 27.5279 258.077 27.5343 258.024 27.534C258.071 27.5106 258.121 27.4938 258.173 27.484L258.618 27.369L260.343 26.952L266.757 25.462L288.449 20.543L288.649 20.498L288.658 20.698C288.738 22.435 288.821 24.258 288.906 26.113C289.067 29.719 289.224 33.203 289.368 36.425L289.374 36.563L289.239 36.593L270.81 40.659L265.459 41.809L264.026 42.102L263.655 42.171C263.613 42.1835 263.57 42.1893 263.527 42.188V42.188Z" fill="#FAFAFA"/>
</g>
<g id="Group_11">
<path id="Vector_4" d="M273.164 52.572C273.133 52.58 273.082 52.357 272.89 52.01C272.617 51.5244 272.194 51.1413 271.683 50.919C271.275 50.738 270.825 50.6738 270.382 50.7338C269.94 50.7937 269.523 50.9753 269.178 51.2583C268.833 51.5413 268.573 51.9146 268.427 52.3367C268.282 52.7587 268.256 53.2128 268.354 53.6484C268.451 54.0841 268.668 54.484 268.98 54.8037C269.291 55.1235 269.685 55.3504 270.118 55.4592C270.551 55.5681 271.006 55.5545 271.431 55.4201C271.857 55.2857 272.237 55.0357 272.529 54.698C272.895 54.2795 273.115 53.7527 273.154 53.198C273.181 52.798 273.132 52.579 273.163 52.573C273.257 52.7684 273.3 52.9844 273.289 53.201C273.299 53.8028 273.096 54.3887 272.715 54.855C272.431 55.2053 272.062 55.4779 271.644 55.6471C271.225 55.8164 270.771 55.8769 270.323 55.823C269.768 55.7563 269.247 55.519 268.832 55.144C268.417 54.7689 268.128 54.2744 268.006 53.7286C267.884 53.1829 267.934 52.6126 268.149 52.0963C268.364 51.5801 268.734 51.1432 269.208 50.846C269.59 50.6056 270.027 50.4661 270.478 50.4406C270.928 50.4151 271.378 50.5043 271.785 50.7C272.328 50.9592 272.762 51.4024 273.009 51.951C273.112 52.1418 273.165 52.3553 273.164 52.572V52.572Z" fill="#FAFAFA"/>
</g>
<g id="Group_12">
<path id="Vector_5" d="M289.224 48.973C289.193 48.981 289.142 48.758 288.949 48.411C288.677 47.9253 288.253 47.5421 287.742 47.32C287.334 47.1391 286.884 47.0751 286.441 47.1352C285.999 47.1952 285.582 47.3769 285.237 47.66C284.892 47.9432 284.632 48.3166 284.487 48.7386C284.341 49.1607 284.316 49.6148 284.414 50.0504C284.511 50.4859 284.728 50.8858 285.04 51.2055C285.351 51.5251 285.745 51.7519 286.178 51.8607C286.611 51.9694 287.066 51.9558 287.492 51.8213C287.917 51.6868 288.297 51.4367 288.589 51.099C288.955 50.6804 289.175 50.1538 289.215 49.599C289.242 49.199 289.192 48.98 289.224 48.974C289.317 49.1696 289.36 49.3855 289.349 49.602C289.359 50.2034 289.156 50.7891 288.776 51.255C288.492 51.6054 288.123 51.878 287.705 52.0473C287.286 52.2166 286.832 52.277 286.384 52.223C285.828 52.1565 285.307 51.9194 284.892 51.5442C284.477 51.1691 284.188 50.6744 284.066 50.1284C283.943 49.5823 283.993 49.0118 284.209 48.4954C284.424 47.979 284.795 47.5421 285.269 47.245C285.651 47.0048 286.088 46.8655 286.539 46.8401C286.989 46.8148 287.439 46.9042 287.846 47.1C288.389 47.3592 288.823 47.8024 289.07 48.351C289.172 48.5422 289.225 48.756 289.224 48.973V48.973Z" fill="#FAFAFA"/>
</g>
<g id="Group_13">
<path id="Vector_6" d="M293.678 16.892C293.994 18.301 293.885 19.7721 293.365 21.1192C292.845 22.4663 291.937 23.6289 290.756 24.46C289.575 25.291 288.174 25.7531 286.731 25.7879C285.287 25.8227 283.866 25.4285 282.646 24.6553C281.427 23.8821 280.464 22.7646 279.879 21.4441C279.295 20.1236 279.116 18.6594 279.363 17.2368C279.611 15.8143 280.276 14.4971 281.272 13.4521C282.269 12.4071 283.553 11.6811 284.962 11.366C286.851 10.9437 288.829 11.2885 290.464 12.3247C292.098 13.3609 293.254 15.0037 293.678 16.892V16.892Z" fill="#FAFAFA"/>
</g>
<g id="Group_14">
<path id="Vector_7" d="M289.828 14.965C289.658 15.4409 289.435 15.8958 289.162 16.321C288.714 17.136 288.072 18.249 287.347 19.468L286.566 20.768L286.484 20.904L286.347 20.828C285.263 20.2861 284.223 19.6612 283.235 18.959C284.363 19.4006 285.455 19.9278 286.503 20.536L286.284 20.596L287.052 19.296C287.778 18.077 288.452 16.983 288.952 16.196C289.196 15.7534 289.49 15.3403 289.828 14.965V14.965Z" fill="#E0E0E0"/>
</g>
</g>
</g>
</g>
<g id="Group_15">
<g id="Group_16">
<path id="Vector_8" d="M139.754 39.27C146.82 41.41 151.216 33.262 151.216 33.262L146.916 30.812C144.816 35.804 137.757 35.226 137.757 35.226L139.754 39.27Z" fill="#F8AF34"/>
</g>
<g id="Group_17">
<path id="Vector_9" d="M198.405 83.014C197.039 79.114 191.905 79.824 191.905 79.824L192.218 82.573C195.166 81.873 197.236 85.25 197.236 85.25L198.405 83.014Z" fill="#F8AF34"/>
</g>
<g id="Group_18">
<path id="Vector_10" d="M56.146 41.6C54.779 37.7 49.646 38.409 49.646 38.409L49.959 41.158C52.906 40.458 54.977 43.835 54.977 43.835L56.146 41.6Z" fill="#F8AF34"/>
</g>
<g id="Group_19">
<path id="Vector_11" d="M43.285 5.17197C39.21 5.84097 39.013 11.016 39.013 11.016L41.775 11.185C41.599 8.16097 45.283 6.70998 45.283 6.70998L43.285 5.17197Z" fill="#F8AF34"/>
</g>
<g id="Group_20">
<path id="Vector_12" d="M13.948 126.389C21.014 128.529 25.409 120.38 25.409 120.38L21.109 117.931C19.009 122.923 11.951 122.345 11.951 122.345L13.948 126.389Z" fill="#F8AF34"/>
</g>
<g id="Group_21">
<path id="Vector_13" d="M215.233 39.721C215.711 36.449 211.809 35.044 211.809 35.044L211.009 37.111C213.36 37.711 213.573 40.873 213.573 40.873L215.233 39.721Z" fill="#F8AF34"/>
</g>
<g id="Group_22">
<path id="Vector_14" d="M191.744 3.78498C188.989 5.61298 190.544 9.45698 190.544 9.45698L192.616 8.67198C191.492 6.52198 193.705 4.24998 193.705 4.24998L191.744 3.78498Z" fill="#F8AF34"/>
</g>
</g>
<g id="Group_23">
<path id="Vector_15" d="M311.271 77.016L301.732 105.11L329.946 110.717L331.57 81.05L311.271 77.016Z" fill="#2C68B0"/>
<g id="Group_24">
<path id="Vector_16" d="M328.443 84.781C328.476 84.795 328.39 85.095 328.126 85.587C327.746 86.2815 327.268 86.9174 326.706 87.475C325.866 88.3183 324.843 88.956 323.716 89.338C322.324 89.7839 320.839 89.8593 319.409 89.557C317.968 89.3123 316.613 88.703 315.474 87.787C314.562 87.0151 313.866 86.0191 313.455 84.897C313.175 84.1553 313.011 83.3747 312.97 82.583C312.925 82.2938 312.947 81.9982 313.035 81.719C313.172 82.7578 313.429 83.7771 313.803 84.756C314.236 85.7904 314.917 86.702 315.786 87.41C316.875 88.2476 318.152 88.8053 319.507 89.034C320.853 89.3205 322.249 89.2648 323.567 88.872C324.637 88.5306 325.62 87.9611 326.448 87.203C327.196 86.4674 327.864 85.6556 328.443 84.781V84.781Z" fill="white"/>
</g>
</g>
</g>
<g id="Group_25">
<path id="Vector_17" d="M338.521 279.731C338.521 279.831 264.947 279.918 174.21 279.918C83.442 279.918 9.88397 279.834 9.88397 279.731C9.88397 279.628 83.442 279.545 174.21 279.545C264.947 279.545 338.521 279.629 338.521 279.731Z" fill="#263238"/>
</g>
<g id="Group_26">
<g id="Group_27">
<path id="Vector_18" d="M311.868 150.556C311.868 150.556 320.573 145.256 322.535 146.816C324.354 148.419 325.666 150.517 326.311 152.854C326.311 152.854 330.911 135.316 335.297 135.981C337.813 136.363 336.579 138.323 335.451 140.781C334.404 143.067 332.617 151.458 332.617 151.458C332.617 151.458 340.937 141.587 343.383 141.765C345.275 141.903 345.546 143.565 342.826 146.235C340.106 148.905 335.585 157.309 335.585 157.309C335.585 157.309 341.413 151.875 343.821 151.846C345.741 151.822 346.982 153.156 344.497 155.314C342.012 157.472 338.251 159.09 336.245 162.993C333.772 167.804 328.5 179.793 328.5 179.793L310.047 173.26C310.047 173.26 307.047 161.019 306.924 158.045C306.924 158.045 307.177 151.76 307.141 150.645C307.105 149.53 310.073 149.239 310.974 151.387C311.875 153.535 311.465 155.787 311.831 157.218C312.069 158.567 312.804 159.777 313.891 160.61C314.936 161.249 317.591 161.293 318.274 160.502C319.15 159.14 319.723 157.605 319.955 156.002C320.046 154.787 320.029 153.566 319.903 152.354C319.903 152.354 312.242 155.468 311.868 150.556Z" fill="#FFBE9D"/>
</g>
<g id="Group_28">
<path id="Vector_19" d="M104.533 207.673L91.71 202.873C91.71 202.873 78.656 195.23 76.239 197.944C75.8978 197.774 75.5242 197.679 75.1433 197.665C74.7624 197.65 74.3828 197.718 74.0299 197.862C73.677 198.006 73.3589 198.224 73.0968 198.5C72.8347 198.777 72.6346 199.107 72.51 199.467C71.845 201.067 74.039 203.379 74.039 203.379C74.039 203.379 73.356 204.071 74.439 206.414C75.522 208.757 87.912 216.146 87.912 216.146C87.912 216.146 104.023 224.932 110.537 229.134L121.778 213.847L120.215 213.263C120.215 213.263 119.287 205.645 116.169 203.613C112.775 201.403 108.682 195.422 107.781 193.078C106.88 190.734 102.555 191.817 103.276 196.678C103.997 201.539 107.781 202.805 107.421 206.05C107.061 209.295 104.533 207.673 104.533 207.673Z" fill="#FFBE9D"/>
<g id="Group_29">
<path id="Vector_20" d="M84.876 209.451C82.9605 208.591 81.0976 207.618 79.297 206.538C77.4343 205.566 75.6312 204.485 73.897 203.299C75.8124 204.159 77.6754 205.132 79.476 206.212C81.3386 207.184 83.1418 208.265 84.876 209.451V209.451Z" fill="#EB996E"/>
</g>
<g id="Group_30">
<path id="Vector_21" d="M91.134 205.846C90.3457 205.598 89.5769 205.292 88.834 204.93C87.434 204.32 85.509 203.444 83.428 202.381C81.6475 201.48 79.9139 200.49 78.234 199.413C77.596 198.99 77.084 198.639 76.746 198.374C76.408 198.109 76.225 197.961 76.24 197.94C76.9728 198.318 77.6852 198.735 78.374 199.188C79.685 199.966 81.527 200.988 83.599 202.048C85.671 203.108 87.572 204.018 88.944 204.688C89.703 205.016 90.4353 205.403 91.134 205.846V205.846Z" fill="#EB996E"/>
</g>
<g id="Group_31">
<path id="Vector_22" d="M93.834 212.909C93.4396 212.734 93.0597 212.527 92.698 212.292L89.676 210.492L89.642 210.472L89.623 210.431C88.9748 209.003 88.2484 207.611 87.447 206.263C87.0019 205.475 86.4533 204.75 85.816 204.107C85.4763 203.798 85.0433 203.612 84.5857 203.578C84.128 203.543 83.672 203.663 83.29 203.917C83.1315 204.009 82.995 204.135 82.89 204.285C82.9053 204.311 82.9152 204.34 82.919 204.37L82.971 204.529C83.003 204.634 83.044 204.742 83.083 204.849C83.239 205.277 83.408 205.698 83.573 206.113L84.554 208.507L86.288 212.643L86.264 212.606L88.834 215.628L89.523 216.467C89.6106 216.56 89.6843 216.665 89.742 216.779C89.731 216.788 89.634 216.699 89.46 216.521L88.714 215.733L86.042 212.794L86.028 212.779L86.018 212.757C85.484 211.557 84.875 210.171 84.218 208.642L83.218 206.249C83.05 205.833 82.879 205.413 82.718 204.976C82.678 204.867 82.636 204.759 82.6 204.642L82.545 204.471C82.5231 204.387 82.5107 204.301 82.508 204.215C82.556 204.065 82.6467 203.932 82.769 203.833C82.8646 203.748 82.9669 203.67 83.075 203.601C83.5327 203.302 84.0758 203.162 84.621 203.201C85.1489 203.251 85.6467 203.469 86.041 203.824C86.7056 204.494 87.274 205.253 87.73 206.079C88.5266 207.447 89.238 208.862 89.86 210.318L89.807 210.257L92.765 212.164C93.1403 212.384 93.4977 212.633 93.834 212.909Z" fill="#EB996E"/>
</g>
<g id="Group_32">
<path id="Vector_23" d="M106.688 213.033C106.151 212.959 105.623 212.83 105.113 212.647C103.882 212.269 102.608 212.044 101.322 211.978C100.044 211.935 98.7791 212.247 97.667 212.878C97.2278 213.178 96.8055 213.502 96.402 213.849C96.6536 213.352 97.0431 212.938 97.524 212.656C98.6543 211.924 99.9831 211.558 101.329 211.609C102.65 211.67 103.953 211.937 105.191 212.4C105.715 212.546 106.218 212.759 106.688 213.033V213.033Z" fill="#EB996E"/>
</g>
<g id="Group_33">
<path id="Vector_24" d="M105.724 209.647C105.809 209.711 105.49 210.265 105.181 210.978C104.872 211.691 104.674 212.299 104.568 212.278C104.462 212.257 104.504 211.584 104.838 210.827C105.172 210.07 105.646 209.588 105.724 209.647Z" fill="#EB996E"/>
</g>
</g>
<g id="Group_34">
<path id="Vector_25" d="M179.628 148.687C180.512 142.644 187.549 133.978 193.777 133.969C192.03 131.357 191.086 128.291 191.063 125.149C191.039 122.007 191.937 118.927 193.644 116.29C196.044 112.69 199.922 110.049 201.565 106.064C203.424 101.554 201.998 96.464 202.175 91.598C202.435 84.482 206.137 77.984 209.742 71.798C213.042 66.138 217.071 59.934 223.568 58.544C227.679 57.665 231.943 58.962 235.802 60.606C244.974 64.5539 253.135 70.525 259.674 78.0725C266.212 85.6201 270.96 94.5486 273.56 104.19C274.74 108.772 275.53 113.729 278.723 117.27C282.104 121.02 288.023 123.054 289.042 127.96C289.77 131.478 287.512 135.014 287.851 138.588C288.135 141.582 293.742 150.31 295.035 153.036C297.262 157.736 296.457 162.808 294.189 167.486C291.921 172.164 286.15 176.722 281.029 177.996L223.785 158.921C218.399 161.987 213.035 173.847 206.852 174.577C200.669 175.307 193.125 177.996 187.177 171.487C180.938 164.668 178.738 154.731 179.628 148.687Z" fill="#263238"/>
<g id="Group_35">
<path id="Vector_26" d="M274.546 91.746C273.905 96.536 275.219 104.456 277.837 108.546C279.594 111.293 282.527 113.079 285.42 114.651C288.313 116.223 291.342 117.73 293.536 120.156C295.73 122.582 296.905 126.222 295.436 129.128C300.593 131.05 302.906 137.62 301.014 142.7C299.122 147.78 293.935 151.2 288.514 152.214L264.904 145.114L259.719 114.985L273.351 91.746" fill="#263238"/>
</g>
<g id="Group_36">
<path id="Vector_27" d="M277.444 122.468C277.603 122.52 277.758 122.587 277.905 122.668C278.347 122.867 278.778 123.091 279.195 123.338C280.748 124.262 282.144 125.427 283.333 126.788C284.168 127.733 284.906 128.759 285.538 129.85C286.261 131.12 286.838 132.467 287.257 133.867C288.269 137.139 288.291 140.637 287.321 143.922L287.235 143.706C288.644 144.497 289.937 145.479 291.076 146.625C293.922 149.453 295.736 153.155 296.225 157.137C296.567 160.382 295.981 163.658 294.535 166.584C293.573 168.546 292.259 170.314 290.658 171.801C290.223 172.201 289.764 172.575 289.284 172.919C289.122 173.047 288.95 173.162 288.77 173.262C288.915 173.116 289.071 172.982 289.238 172.862C289.559 172.617 290.003 172.221 290.559 171.698C292.102 170.189 293.368 168.42 294.298 166.472C295.685 163.583 296.235 160.364 295.885 157.179C295.385 153.281 293.601 149.661 290.814 146.891C289.699 145.769 288.435 144.807 287.057 144.03L286.927 143.958L286.97 143.814C287.925 140.598 287.917 137.173 286.946 133.962C286.202 131.377 284.905 128.985 283.146 126.95C281.987 125.589 280.631 124.409 279.123 123.45C278.604 123.096 278.152 122.903 277.872 122.728C277.722 122.654 277.579 122.567 277.444 122.468Z" fill="#455A64"/>
</g>
</g>
<g id="Group_37">
<g id="Group_38">
<path id="Vector_28" d="M207.6 153.668C207.6 153.668 197.05 156.877 193.352 162.256C190.736 166.056 163.952 224.067 163.952 224.067L123.294 211.846L108.754 231.046L153.994 256.118C158.119 258.404 162.761 259.594 167.477 259.573C172.193 259.552 176.825 258.322 180.929 255.999V255.999C185.557 253.38 189.329 249.478 191.79 244.764L203.29 222.725L207.6 153.668Z" fill="#EF7C1F"/>
</g>
<g id="Group_39">
<path id="Vector_29" d="M196.805 280.007L203.154 252.642L198.344 232.772C195.25 222.54 192.593 205.872 195.96 192.451L207.205 153.851L219.569 148.166L247.862 143.3C248.95 143.662 277.446 151.711 277.446 151.711C279.32 152.106 281.167 152.622 282.974 153.256L286.241 174.387L276.417 209.215L272.138 243.915L281.538 280.008L196.805 280.007Z" fill="#EF7C1F"/>
</g>
<g id="Group_40">
<path id="Vector_30" d="M213.155 151.113L221.355 147.441L258.332 147.956L267.078 153.032C267.078 153.032 236.53 186.749 228.863 187.864C209.583 190.669 213.155 151.113 213.155 151.113Z" fill="#FFBE9D"/>
</g>
<g id="Group_41">
<path id="Vector_31" d="M282.169 152.962C282.169 152.962 287.707 154.208 292.455 164.337C297.203 174.466 304.878 202.655 304.878 202.655L308.16 172.781L334.895 175.724L329.721 247.124C329.721 247.124 320.26 260.844 304.434 259.578C288.608 258.312 268.516 208.286 268.516 208.286L282.169 152.962Z" fill="#EF7C1F"/>
</g>
<g id="Group_42">
<path id="Vector_32" d="M300.707 239.133C300.697 239.075 300.696 239.017 300.702 238.959C300.708 238.823 300.714 238.659 300.723 238.453C300.752 237.978 300.791 237.33 300.84 236.51C300.94 234.822 301.14 232.385 301.422 229.376C301.979 223.356 302.999 215.067 304.248 205.933C305.497 196.799 306.559 188.519 307.182 182.51C307.495 179.51 307.736 177.074 307.882 175.391C307.961 174.575 308.023 173.929 308.069 173.454C308.093 173.254 308.111 173.087 308.127 172.954C308.129 172.896 308.141 172.838 308.16 172.783C308.17 172.84 308.172 172.899 308.165 172.957L308.144 173.463C308.115 173.938 308.076 174.585 308.027 175.405C307.927 177.092 307.727 179.53 307.445 182.539C306.888 188.559 305.868 196.849 304.618 205.986C303.368 215.123 302.308 223.397 301.685 229.406C301.372 232.406 301.13 234.842 300.985 236.525C300.906 237.341 300.844 237.987 300.799 238.462C300.775 238.662 300.757 238.829 300.741 238.962C300.738 239.02 300.727 239.078 300.707 239.133V239.133Z" fill="#263238"/>
</g>
<g id="Group_43">
<path id="Vector_33" d="M164.413 239.472C164.285 239.311 164.184 239.131 164.113 238.938C163.879 238.436 163.672 237.923 163.492 237.399C162.285 233.926 161.926 230.216 162.444 226.576C162.519 226.027 162.624 225.483 162.758 224.946C162.789 224.744 162.852 224.548 162.945 224.365C163.005 224.378 162.845 225.227 162.705 226.607C162.338 230.21 162.691 233.851 163.743 237.317C164.147 238.646 164.469 239.448 164.413 239.472Z" fill="#263238"/>
</g>
<g id="Group_44">
<path id="Vector_34" d="M168.91 240.134C168.73 239.979 168.571 239.799 168.439 239.601C168.041 239.092 167.669 238.564 167.324 238.018C165.019 234.402 163.591 230.298 163.153 226.032C163.084 225.39 163.048 224.744 163.045 224.098C163.026 223.861 163.038 223.622 163.083 223.388C163.146 223.388 163.192 224.394 163.415 226C163.992 230.195 165.397 234.233 167.549 237.88C168.372 239.278 168.961 240.096 168.91 240.134Z" fill="#263238"/>
</g>
<g id="Group_45">
<path id="Vector_35" d="M200.561 176.346C200.532 176.542 200.487 176.736 200.425 176.925L199.969 178.564C199.557 180.022 198.977 182.064 198.269 184.583C196.333 191.18 194.913 197.916 194.02 204.733C193.096 211.558 193.685 218.504 195.746 225.076C196.502 227.602 197.218 229.617 197.708 231.01C197.945 231.681 198.133 232.214 198.273 232.61C198.347 232.794 198.405 232.985 198.447 233.179C198.351 233.005 198.269 232.824 198.202 232.637C198.045 232.244 197.835 231.717 197.571 231.056C197.039 229.677 196.284 227.675 195.493 225.149C194.546 222.192 193.885 219.15 193.52 216.066C193.122 212.281 193.165 208.462 193.648 204.687C194.539 197.85 195.999 191.1 198.014 184.507C198.755 181.97 199.388 179.928 199.834 178.519C200.053 177.842 200.228 177.302 200.358 176.9C200.41 176.71 200.478 176.525 200.561 176.346Z" fill="#263238"/>
</g>
<g id="Group_46">
<path id="Vector_36" d="M275.321 223.387C275.28 223.333 275.247 223.274 275.221 223.211L274.97 222.681L274.039 220.627C273.639 219.727 273.139 218.644 272.599 217.361C272.08 216.061 271.493 214.593 270.844 212.97C270.213 211.336 269.605 209.514 268.909 207.57C268.604 206.585 268.289 205.568 267.964 204.518C267.803 203.993 267.64 203.459 267.475 202.918C267.321 202.374 267.187 201.818 267.038 201.257C265.687 196.405 264.839 191.427 264.509 186.402C264.137 181.361 264.66 176.294 266.055 171.435C267.165 167.445 269.192 163.771 271.976 160.705C273.849 158.641 276.119 156.976 278.65 155.81C279.336 155.497 280.044 155.235 280.768 155.025L281.334 154.866C281.399 154.844 281.466 154.83 281.534 154.824C281.476 154.858 281.413 154.884 281.348 154.902L280.795 155.096C280.085 155.335 279.39 155.617 278.715 155.941C276.234 157.146 274.012 158.824 272.175 160.882C269.45 163.939 267.47 167.584 266.388 171.533C265.025 176.357 264.518 181.382 264.888 186.381C265.216 191.382 266.05 196.336 267.376 201.169C267.521 201.728 267.663 202.28 267.804 202.825L268.284 204.425C268.602 205.472 268.91 206.489 269.208 207.474C269.89 209.414 270.481 211.236 271.095 212.874L272.795 217.274C273.315 218.563 273.801 219.658 274.175 220.562L275.042 222.643L275.259 223.188C275.288 223.251 275.309 223.318 275.321 223.387Z" fill="#263238"/>
</g>
<g id="Group_47" opacity="0.3">
<path id="Vector_37" opacity="0.3" d="M265.132 191.049C261.638 207.583 261.591 224.591 267.608 240.382C267.957 241.298 269.338 244.555 270.317 244.603C271.559 244.665 272.148 243.12 272.363 241.895C272.804 239.379 273.075 235.237 273.516 232.72C274.07 229.569 274.816 222.274 274.816 222.274C274.816 222.274 271.925 215.658 270.655 212.11C268.12 205.474 266.292 198.59 265.201 191.571" fill="black"/>
</g>
<g id="Group_48">
<path id="Vector_38" d="M262.277 255.101C262.199 255.254 262.106 255.398 261.999 255.533L261.14 256.733L260.511 257.594C260.271 257.9 259.984 258.212 259.689 258.559C259.033 259.354 258.335 260.113 257.597 260.833L256.312 262.092C255.861 262.525 255.342 262.922 254.832 263.362C253.735 264.287 252.591 265.154 251.405 265.962C245.936 269.668 239.704 272.097 233.169 273.069C231.749 273.275 230.319 273.409 228.885 273.469C228.211 273.49 227.562 273.549 226.937 273.535L225.137 273.478C224.107 273.447 223.079 273.361 222.058 273.219C221.606 273.164 221.184 273.128 220.8 273.065L219.755 272.856L218.313 272.556C218.143 272.529 217.975 272.486 217.813 272.427C217.985 272.429 218.157 272.448 218.326 272.483L219.777 272.714L220.823 272.889C221.207 272.941 221.629 272.966 222.079 273.012C223.097 273.13 224.12 273.197 225.144 273.212L226.93 273.245C227.551 273.251 228.196 273.185 228.865 273.157C230.205 273.128 231.62 272.908 233.112 272.722C239.588 271.72 245.766 269.313 251.212 265.669C252.436 264.797 253.627 264.001 254.634 263.115C255.145 262.684 255.664 262.296 256.117 261.87L257.41 260.638C258.153 259.933 258.861 259.19 259.53 258.414C259.83 258.076 260.125 257.772 260.372 257.474L261.023 256.637L261.935 255.484C262.037 255.346 262.151 255.218 262.277 255.101V255.101Z" fill="#263238"/>
</g>
<g id="Group_49">
<path id="Vector_39" d="M256.443 244.16C256.443 244.424 256.409 244.688 256.343 244.944C256.218 245.651 256.051 246.349 255.843 247.036C254.48 251.612 251.831 255.701 248.211 258.815C247.671 259.285 247.103 259.723 246.511 260.126C246.303 260.289 246.076 260.426 245.835 260.533C245.796 260.478 246.712 259.833 248.04 258.616C251.513 255.438 254.114 251.423 255.596 246.955C256.162 245.247 256.374 244.147 256.443 244.16Z" fill="#263238"/>
</g>
</g>
<g id="Group_50">
<g id="Group_51">
<g id="Group_52">
<path id="Vector_40" d="M243.421 53.977C248.453 54.0117 253.39 55.3525 257.748 57.8682C262.106 60.3838 265.736 63.988 268.283 68.328C270.83 72.668 272.206 77.5949 272.277 82.6265C272.348 87.6581 271.112 92.6219 268.688 97.032C267.044 100.023 264.679 102.854 261.43 103.896C261.927 95.2904 260.56 86.679 257.424 78.65C254.287 70.6209 249.455 63.3634 243.257 57.373" fill="#E8491C"/>
</g>
<g id="Group_53">
<path id="Vector_41" d="M255.133 56.568C253.647 53.478 255.233 49.611 257.888 47.435C260.543 45.259 263.988 44.379 267.326 43.583C270.664 42.787 274.117 41.96 276.826 39.857C276.435 45.23 275.1 50.757 271.626 54.872C268.152 58.987 262.126 61.279 257.159 59.188" fill="#E8491C"/>
</g>
<g id="Group_54">
<path id="Vector_42" d="M258.58 60.106C257.41 60.5233 256.156 60.6469 254.927 60.4657C253.698 60.2845 252.533 59.8042 251.533 59.067C249.549 57.5683 247.94 55.6298 246.833 53.404C245.299 50.7672 244.273 47.8655 243.811 44.85C243.357 41.8178 243.888 38.7199 245.326 36.012C249.253 40.195 253.577 43.712 255.826 48.991C257.11 52.6075 257.02 56.57 255.571 60.124" fill="#E8491C"/>
</g>
<g id="Group_55">
<path id="Vector_43" d="M269.702 77.502C269.801 77.828 269.868 78.1629 269.902 78.502C269.957 78.825 270.013 79.221 270.049 79.685C270.085 80.149 270.149 80.675 270.165 81.261C270.229 82.6324 270.205 84.0066 270.093 85.375C269.819 88.7346 269.034 92.0329 267.766 95.156C267.25 96.4283 266.653 97.6662 265.978 98.862C265.704 99.381 265.409 99.822 265.165 100.217C264.921 100.612 264.694 100.943 264.501 101.207C264.319 101.493 264.11 101.761 263.877 102.007C264.015 101.697 264.183 101.402 264.377 101.124C264.552 100.849 264.762 100.511 264.985 100.106C265.208 99.701 265.485 99.255 265.745 98.733C266.38 97.5298 266.948 96.2922 267.445 95.026C268.662 91.9218 269.436 88.6618 269.745 85.342C269.871 83.9875 269.922 82.6271 269.896 81.267C269.902 80.685 269.856 80.161 269.836 79.699C269.816 79.237 269.784 78.84 269.752 78.516C269.703 78.1803 269.687 77.8408 269.702 77.502V77.502Z" fill="#E8491C"/>
</g>
<g id="Group_56">
<path id="Vector_44" d="M267.462 58.264C267.218 58.5 266.952 58.712 266.667 58.897C265.863 59.3673 264.988 59.705 264.077 59.897C261.024 60.4283 257.89 60.2496 254.917 59.375L254.817 59.348L254.793 59.241C254.746 59.026 254.693 58.796 254.642 58.563C254.265 56.8104 254.185 55.007 254.405 53.228C254.568 51.762 255.084 50.3576 255.911 49.136C256.48 48.3259 257.203 47.6355 258.039 47.104C258.346 46.915 258.669 46.7546 259.005 46.625C258.729 46.8515 258.433 47.0523 258.12 47.225C257.339 47.7873 256.665 48.4846 256.129 49.284C255.361 50.4865 254.887 51.853 254.745 53.273C254.551 55.0144 254.639 56.7757 255.007 58.489C255.058 58.716 255.107 58.942 255.155 59.153L255.027 59.019C257.946 59.8755 261.017 60.0898 264.027 59.647C264.922 59.4805 265.788 59.1865 266.599 58.774C266.87 58.5777 267.159 58.4069 267.462 58.264V58.264Z" fill="#E8491C"/>
</g>
<g id="Group_57">
<path id="Vector_45" d="M270.401 48.968C270.412 49.036 269.352 49.185 267.707 49.668C266.746 49.955 265.805 50.3037 264.889 50.712C262.644 51.7128 260.574 53.0688 258.76 54.728C258.02 55.4052 257.325 56.1294 256.678 56.896C255.578 58.209 255.016 59.121 254.958 59.085C255.044 58.8481 255.161 58.6236 255.306 58.417C255.657 57.8287 256.046 57.2647 256.473 56.729C257.1 55.9272 257.786 55.1737 258.526 54.475C260.344 52.7587 262.452 51.3777 264.751 50.396C265.687 49.9961 266.651 49.6675 267.636 49.413C268.297 49.2342 268.97 49.1006 269.649 49.013C269.897 48.9651 270.149 48.95 270.401 48.968V48.968Z" fill="#E8491C"/>
</g>
<g id="Group_58">
<path id="Vector_46" d="M258.427 60.021C258.439 60.021 258.427 60.098 258.399 60.236C258.355 60.4396 258.291 60.6383 258.207 60.829C257.891 61.5355 257.404 62.1518 256.789 62.622C255.871 63.3389 254.729 63.7077 253.565 63.663C252.856 63.5956 252.171 63.3734 251.557 63.012C250.944 62.6506 250.417 62.1588 250.015 61.5715C249.613 60.9842 249.344 60.3157 249.228 59.6131C249.113 58.9106 249.153 58.1913 249.346 57.506C249.725 56.4044 250.481 55.4723 251.481 54.875C252.142 54.4713 252.893 54.2389 253.666 54.199C253.874 54.1896 254.082 54.2013 254.288 54.234C254.429 54.256 254.501 54.273 254.5 54.286C254.5 54.325 254.2 54.286 253.678 54.344C252.944 54.4366 252.241 54.6948 251.622 55.099C250.704 55.6879 250.015 56.5743 249.672 57.61C249.504 58.245 249.475 58.9087 249.587 59.5559C249.699 60.2031 249.949 60.8185 250.321 61.3603C250.692 61.9021 251.176 62.3576 251.739 62.6956C252.302 63.0336 252.931 63.2462 253.584 63.319C254.673 63.3738 255.748 63.0529 256.629 62.41C257.229 61.978 257.724 61.4155 258.075 60.765C258.321 60.3 258.389 60.01 258.427 60.021Z" fill="#E8491C"/>
</g>
<g id="Group_59">
<path id="Vector_47" d="M249.73 60.201C249.696 60.237 249.481 59.811 249.821 59.251C250.02 58.9386 250.321 58.7039 250.672 58.586C251.085 58.4536 251.521 58.408 251.953 58.452C253.032 58.4687 254.085 58.7825 254.997 59.359C254.958 59.459 253.637 58.943 251.928 58.824C251.59 58.7544 251.239 58.7709 250.909 58.8719C250.578 58.9729 250.279 59.1551 250.037 59.402C249.875 59.6413 249.77 59.9147 249.73 60.201V60.201Z" fill="#E8491C"/>
</g>
<g id="Group_60">
<path id="Vector_48" d="M245.322 36.013C244.769 36.9592 244.396 37.9998 244.222 39.082C244.066 40.2618 244.009 41.4527 244.053 42.642C244.044 44.0984 244.172 45.5525 244.435 46.985C245.001 49.5735 246.04 52.0354 247.499 54.247C248.081 55.081 248.599 55.73 248.959 56.167C249.319 56.604 249.549 56.823 249.532 56.845C248.655 56.1581 247.896 55.3326 247.285 54.401C245.733 52.1934 244.64 49.6967 244.07 47.059C243.802 45.6028 243.681 44.1233 243.71 42.643C243.682 41.4353 243.767 40.2277 243.964 39.036C244.104 38.2284 244.381 37.4506 244.783 36.736C244.919 36.4654 245.102 36.2207 245.322 36.013V36.013Z" fill="#E8491C"/>
</g>
<g id="Group_61">
<path id="Vector_49" d="M249.039 44.518C249.432 44.8765 249.772 45.2894 250.048 45.744C250.782 46.7923 251.419 47.9049 251.953 49.068C252.488 50.2316 252.91 51.4438 253.213 52.688C253.371 53.1962 253.454 53.7248 253.459 54.257C253.342 54.284 252.859 51.911 251.613 49.224C250.367 46.537 248.938 44.589 249.039 44.518Z" fill="#E8491C"/>
</g>
<g id="Group_62">
<path id="Vector_50" d="M247.825 48.987C247.9 48.923 249.108 50.145 250.691 51.564C251.691 52.3789 252.617 53.28 253.459 54.257C252.371 53.5587 251.359 52.7486 250.44 51.84C249.432 51.0235 248.551 50.0621 247.825 48.987V48.987Z" fill="#E8491C"/>
</g>
<g id="Group_63">
<path id="Vector_51" d="M266.598 65.816C266.598 65.816 266.566 65.855 266.498 65.916L266.182 66.184C265.79 66.5086 265.382 66.8124 264.958 67.094C262.149 68.9775 258.877 70.0521 255.498 70.2C254.99 70.2257 254.481 70.2236 253.973 70.194L253.56 70.165C253.512 70.165 253.463 70.1583 253.417 70.145C253.465 70.135 253.513 70.1317 253.562 70.135H253.976C254.335 70.144 254.854 70.135 255.494 70.094C258.843 69.8893 262.083 68.8254 264.901 67.005C265.438 66.657 265.864 66.358 266.147 66.138L266.48 65.892C266.516 65.862 266.556 65.8365 266.598 65.816V65.816Z" fill="#E8491C"/>
</g>
<g id="Group_64">
<path id="Vector_52" d="M270.824 74.499C270.795 74.5362 270.761 74.5698 270.724 74.599L270.405 74.864C270.129 75.096 269.705 75.408 269.175 75.769C266.367 77.6529 263.139 78.8165 259.775 79.157C259.133 79.219 258.611 79.247 258.25 79.245H257.835C257.831 79.2626 257.821 79.2783 257.807 79.2889C257.792 79.2996 257.774 79.3044 257.756 79.3026C257.738 79.3007 257.721 79.2923 257.709 79.2788C257.697 79.2654 257.691 79.248 257.691 79.23C257.691 79.2119 257.697 79.1945 257.709 79.1811C257.721 79.1677 257.738 79.1592 257.756 79.1574C257.774 79.1555 257.792 79.1604 257.807 79.171C257.821 79.1816 257.831 79.1973 257.835 79.215L258.248 79.188C258.607 79.172 259.126 79.128 259.764 79.053C263.097 78.6566 266.296 77.5036 269.116 75.682C269.655 75.333 270.082 75.036 270.368 74.819L270.704 74.576C270.74 74.5447 270.781 74.5188 270.824 74.499Z" fill="#E8491C"/>
</g>
<g id="Group_65">
<path id="Vector_53" d="M269.65 87.161C269.558 87.2457 269.457 87.3208 269.35 87.385C269.15 87.523 268.85 87.706 268.468 87.914C266.463 88.995 264.227 89.578 261.95 89.614C261.515 89.619 261.164 89.608 260.922 89.585C260.796 89.5823 260.67 89.5665 260.547 89.538C260.672 89.5217 260.798 89.518 260.924 89.527C261.166 89.532 261.516 89.527 261.947 89.509C264.201 89.4142 266.408 88.8369 268.419 87.816C268.803 87.616 269.111 87.454 269.319 87.331C269.423 87.2632 269.534 87.2062 269.65 87.161Z" fill="#E8491C"/>
</g>
<g id="Group_66">
<path id="Vector_54" d="M272.084 85.223C271.776 85.3583 271.449 85.447 271.115 85.486C270.789 85.5736 270.452 85.6126 270.115 85.602C270.748 85.3788 271.41 85.2511 272.081 85.223H272.084Z" fill="#E8491C"/>
</g>
<g id="Group_67">
<path id="Vector_55" d="M264.966 100.111C263.882 100.301 262.767 100.22 261.722 99.874C261.733 99.831 262.446 99.982 263.34 100.045C264.234 100.108 264.962 100.068 264.966 100.111Z" fill="#E8491C"/>
</g>
<g id="Group_68">
<path id="Vector_56" d="M251.353 62.601C250.742 63.0516 250.075 63.4197 249.368 63.696C249.979 63.2454 250.646 62.8772 251.353 62.601V62.601Z" fill="#E8491C"/>
</g>
<g id="Group_69">
<path id="Vector_57" d="M247.789 55.071C246.285 55.653 244.949 56.6017 243.905 57.831C244.013 57.6178 244.152 57.4217 244.317 57.249C245.07 56.3705 246.027 55.6905 247.104 55.269C247.321 55.17 247.552 55.1033 247.789 55.071V55.071Z" fill="#E8491C"/>
</g>
<g id="Group_70">
<path id="Vector_58" d="M254.252 63.41C254.49 61.9639 254.298 60.4798 253.7 59.142C253.837 59.3114 253.945 59.5023 254.02 59.707C254.442 60.6741 254.581 61.7411 254.42 62.784C254.399 63.0005 254.342 63.212 254.252 63.41V63.41Z" fill="#E8491C"/>
</g>
<g id="Group_71">
<path id="Vector_59" d="M276.447 40.015C276.204 40.3113 275.941 40.5912 275.661 40.853C274.899 41.5692 274.068 42.2086 273.18 42.762C271.859 43.5735 270.481 44.2865 269.055 44.895C267.455 45.604 265.668 46.302 263.855 47.172C262.136 47.9571 260.535 48.9783 259.098 50.206C257.941 51.2271 256.992 52.462 256.304 53.843C255.845 54.7762 255.556 55.7841 255.452 56.819C255.388 57.553 255.441 57.962 255.416 57.962C255.416 57.962 255.402 57.862 255.392 57.662C255.373 57.3783 255.373 57.0936 255.392 56.81C255.475 55.7625 255.751 54.7395 256.207 53.793C256.89 52.3908 257.841 51.1362 259.007 50.1C260.448 48.8567 262.058 47.8241 263.789 47.033C265.61 46.159 267.402 45.464 268.999 44.764C270.422 44.1626 271.8 43.4608 273.124 42.664C274.013 42.1212 274.849 41.4979 275.624 40.802C275.894 40.552 276.101 40.354 276.235 40.212C276.369 40.07 276.447 40.015 276.447 40.015Z" fill="#E8491C"/>
</g>
<g id="Group_72">
<path id="Vector_60" d="M274.507 48.529C274.48 48.5864 274.446 48.6408 274.407 48.691L274.107 49.141C273.849 49.533 273.446 50.08 272.921 50.735C270.16 54.1542 266.642 56.885 262.645 58.712C261.88 59.058 261.251 59.312 260.807 59.466L260.297 59.644C260.239 59.6678 260.178 59.6853 260.116 59.696C260.17 59.6635 260.227 59.6367 260.287 59.616L260.787 59.416C261.223 59.247 261.846 58.978 262.602 58.621C266.554 56.7509 270.049 54.038 272.84 50.673C273.374 50.029 273.789 49.493 274.06 49.112L274.381 48.679C274.417 48.6244 274.46 48.5741 274.507 48.529Z" fill="#E8491C"/>
</g>
<g id="Group_73">
<path id="Vector_61" d="M244.566 38.45C245.324 38.7676 246.051 39.1528 246.74 39.601C250.114 41.7628 252.671 44.9889 254.004 48.768C254.282 49.5408 254.491 50.337 254.628 51.147C254.603 51.0951 254.585 51.0403 254.573 50.984C254.534 50.837 254.491 50.684 254.446 50.512C254.295 49.9333 254.114 49.3628 253.904 48.803C252.527 45.0741 249.997 41.8815 246.682 39.689C246.185 39.356 245.671 39.0495 245.142 38.771L244.712 38.539C244.66 38.5147 244.611 38.4849 244.566 38.45V38.45Z" fill="#E8491C"/>
</g>
</g>
<g id="Group_74">
<g id="Group_75">
<path id="Vector_62" d="M208.592 65.42C208.872 69.22 206.362 72.62 203.832 75.47C201.302 78.32 198.487 81.295 197.941 85.07C196.972 91.756 203.518 97.965 202.168 104.585C201.444 108.133 198.539 110.985 198.021 114.567C197.521 118.033 199.378 121.426 201.681 124.067C203.984 126.708 206.651 126.32 208.688 129.167C211.055 132.371 214.064 135.045 217.523 137.02C224.86 141.038 233.665 135.225 237.204 134.182" fill="#263238"/>
</g>
<g id="Group_76">
<path id="Vector_63" d="M264.075 81.005C267.457 79.533 267.723 67.414 259.238 66.014C255.838 65.453 253 63.792 250.138 61.866C247.604 60.161 246.853 55.833 244.708 53.658C242.062 50.9755 238.749 49.0455 235.111 48.0662C231.472 47.0868 227.639 47.0933 224.004 48.085C220.369 49.0767 217.063 51.0179 214.426 53.7093C211.789 56.4007 209.915 59.7454 208.998 63.4C207.766 68.311 208.607 74.116 212.478 77.38C216.971 81.167 223.632 80.326 229.387 79.147C235.142 77.968 241.659 76.807 246.465 80.188C249.365 82.227 251.025 85.543 252.797 88.611C254.569 91.679 256.797 94.811 260.143 95.967C260.143 95.967 262.695 101.967 260.611 106.136C258.527 110.305 263.06 103.192 263.06 103.192C263.06 103.192 271.321 88.502 264.075 81.005" fill="#263238"/>
</g>
<g id="Group_77">
<path id="Vector_64" d="M221.096 166.066C221.049 158.153 221.096 135.935 221.096 135.975C221.096 135.975 208.528 133.86 205.959 117.45C204.681 109.289 205.121 95.913 205.834 84.981C206.476 75.141 213.023 63.081 222.827 64.139L253.427 71.946C254.864 72.1009 256.19 72.7892 257.143 73.8749C258.096 74.9605 258.608 76.3644 258.576 77.809L256.713 153.809L221.096 166.066Z" fill="#FFBE9D"/>
<g id="Group_78">
<g id="Group_79">
<path id="Vector_65" d="M211.042 94.356C211.034 94.9048 211.242 95.4349 211.62 95.8326C211.998 96.2303 212.517 96.4642 213.066 96.484C213.334 96.5059 213.603 96.474 213.858 96.3902C214.113 96.3064 214.349 96.1724 214.551 95.9961C214.754 95.8198 214.919 95.6047 215.037 95.3635C215.155 95.1224 215.224 94.8601 215.239 94.592C215.247 94.0436 215.04 93.514 214.662 93.1163C214.284 92.7187 213.766 92.4845 213.218 92.464C212.95 92.4419 212.681 92.4737 212.425 92.5574C212.17 92.6411 211.934 92.775 211.731 92.9513C211.528 93.1276 211.363 93.3428 211.245 93.584C211.126 93.8252 211.057 94.0877 211.042 94.356V94.356Z" fill="#263238"/>
</g>
<path id="Vector_66" d="M208.72 91.945C208.98 92.22 210.577 91.045 212.841 91.055C215.103 91.034 216.761 92.202 217.008 91.926C217.129 91.803 216.864 91.308 216.141 90.779C215.163 90.0977 213.998 89.7358 212.806 89.743C211.629 89.7362 210.48 90.1043 209.526 90.794C208.829 91.327 208.592 91.822 208.72 91.945Z" fill="#263238"/>
</g>
<g id="Group_80">
<path id="Vector_67" d="M230.973 95.554C231.233 95.829 232.832 94.654 235.094 94.664C237.356 94.642 239.015 95.811 239.261 95.534C239.381 95.411 239.12 94.916 238.394 94.388C237.416 93.7061 236.252 93.3438 235.06 93.351C233.883 93.3445 232.734 93.7126 231.779 94.402C231.084 94.935 230.843 95.431 230.973 95.554Z" fill="#263238"/>
</g>
<g id="Group_81">
<path id="Vector_68" d="M222.719 109.189C221.527 108.812 220.292 108.586 219.043 108.517C218.466 108.456 217.918 108.34 217.821 107.945C217.774 107.348 217.91 106.75 218.211 106.232C218.758 104.832 219.331 103.365 219.93 101.832C222.318 95.57 224.047 90.42 223.795 90.326C223.543 90.232 221.401 95.232 219.013 101.494C218.438 103.039 217.889 104.513 217.365 105.918C217.002 106.615 216.896 107.418 217.065 108.186C217.148 108.39 217.277 108.572 217.442 108.719C217.606 108.866 217.802 108.974 218.014 109.034C218.334 109.121 218.664 109.167 218.996 109.172C220.231 109.335 221.482 109.34 222.719 109.189V109.189Z" fill="#263238"/>
</g>
<g id="Group_82">
<path id="Vector_69" d="M221.096 135.975C228.82 136.11 236.43 134.098 243.079 130.163C242.895 130.202 237.03 141.563 221.309 139.849L221.096 135.975Z" fill="#EB996E"/>
</g>
<g id="Group_83">
<path id="Vector_70" d="M223.372 115.724C223.102 114.331 224.741 113.879 225.946 113.13C227.151 112.381 227.846 111.385 228.973 112.245C229.61 112.754 230.092 113.43 230.367 114.198C230.583 114.702 230.661 115.254 230.593 115.798C230.445 116.45 230.091 117.038 229.584 117.474C228.91 118.136 228.054 118.583 227.126 118.759C226.663 118.843 226.188 118.831 225.73 118.723C225.272 118.616 224.842 118.415 224.465 118.133C224.093 117.844 223.804 117.463 223.626 117.027C223.448 116.591 223.387 116.116 223.451 115.65" fill="#EB996E"/>
</g>
<g id="Group_84">
<path id="Vector_71" d="M229.379 110.769C229.011 110.747 229 113.204 226.893 114.944C224.786 116.684 222.171 116.407 222.152 116.751C222.117 116.905 222.734 117.229 223.839 117.262C225.279 117.286 226.681 116.801 227.798 115.893C228.87 115.02 229.56 113.765 229.724 112.393C229.82 111.364 229.547 110.751 229.379 110.769Z" fill="#263238"/>
</g>
<g id="Group_85">
<path id="Vector_72" d="M230.636 90.496C230.858 91.111 233.119 90.825 235.774 91.151C238.437 91.424 240.574 92.206 240.93 91.651C241.088 91.387 240.716 90.807 239.851 90.21C238.697 89.4767 237.391 89.0161 236.032 88.8631C234.673 88.7101 233.297 88.8688 232.009 89.327C231.033 89.72 230.542 90.206 230.636 90.496Z" fill="#263238"/>
</g>
<g id="Group_86">
<path id="Vector_73" d="M209.036 84.115C209.436 84.63 210.994 84.1 212.869 84.078C214.744 83.992 216.332 84.431 216.699 83.894C216.86 83.633 216.611 83.118 215.918 82.629C214.987 82.0436 213.903 81.748 212.804 81.7795C211.705 81.811 210.64 82.1683 209.744 82.806C209.08 83.335 208.861 83.863 209.036 84.115Z" fill="#263238"/>
</g>
</g>
<g id="Group_87">
<path id="Vector_74" d="M260.373 126.831C255.862 127.741 255.459 125.444 252.089 122.311C250.412 120.725 249.128 118.768 248.341 116.598C247.554 114.428 247.285 112.104 247.555 109.811C248.065 105.782 250.238 101.683 248.84 97.87C246.994 92.828 239.926 91.276 238.051 86.246C236.961 83.322 237.939 79.901 236.704 77.036C235.542 74.341 232.704 72.789 229.948 71.792C227.192 70.795 224.23 70.105 221.913 68.304C219.596 66.503 218.151 63.104 219.646 60.578C231.898 62.0485 243.932 64.9724 255.493 69.288C258.17 70.288 260.983 71.488 262.566 73.87C264.241 76.388 264.161 79.641 264.019 82.662L261.957 126.852" fill="#263238"/>
</g>
<g id="Group_88">
<path id="Vector_75" d="M270.827 121.322C270.837 121.329 270.897 121.26 271.006 121.122C271.172 120.914 271.323 120.695 271.459 120.466C271.986 119.581 272.352 118.61 272.54 117.597C272.847 115.985 272.757 114.321 272.276 112.752C271.654 110.641 270.3 108.821 268.458 107.617C266.512 106.245 263.978 105.289 262.367 103.105C261.96 102.559 261.671 101.935 261.518 101.272C261.364 100.609 261.35 99.9218 261.476 99.253C261.805 97.789 262.283 96.3626 262.903 94.996C263.544 93.4369 263.856 91.7623 263.82 90.0769C263.784 88.3916 263.4 86.732 262.692 85.202C261.946 83.5666 260.801 82.1447 259.363 81.067C257.852 80.0242 256.137 79.3133 254.332 78.981C252.555 78.576 250.783 78.34 249.138 77.844C247.513 77.4234 246.019 76.606 244.788 75.465C243.698 74.2817 243.034 72.7684 242.901 71.165C242.748 69.5601 242.49 67.967 242.128 66.396C241.397 63.4499 239.865 60.7637 237.701 58.635C235.787 56.7963 233.354 55.5896 230.732 55.178C228.57 54.819 226.35 55.1551 224.391 56.138C222.927 56.8802 221.667 57.9708 220.723 59.314C220.13 60.1535 219.694 61.0937 219.437 62.089C219.341 62.4328 219.288 62.7871 219.278 63.144C219.59 61.8219 220.157 60.5735 220.948 59.469C222.051 57.9954 223.543 56.859 225.257 56.1876C226.971 55.5162 228.838 55.3366 230.648 55.669C233.152 56.0965 235.467 57.277 237.283 59.053C239.344 61.1205 240.797 63.7151 241.483 66.553C241.829 68.1022 242.074 69.6722 242.218 71.253C242.364 73.0057 243.09 74.6598 244.282 75.953C245.592 77.1839 247.19 78.0676 248.929 78.524C250.653 79.044 252.429 79.278 254.17 79.677C255.879 79.9876 257.504 80.6559 258.937 81.638C260.281 82.643 261.351 83.9687 262.05 85.494C262.723 86.9387 263.091 88.5067 263.131 90.1C263.17 91.6933 262.881 93.2777 262.28 94.754C261.65 96.1667 261.171 97.6414 260.848 99.154C260.716 99.9033 260.74 100.672 260.918 101.412C261.096 102.151 261.424 102.847 261.882 103.454C263.672 105.807 266.282 106.724 268.169 108.035C269.941 109.157 271.259 110.869 271.889 112.87C272.382 114.377 272.51 115.979 272.261 117.545C272.02 118.882 271.534 120.162 270.827 121.322Z" fill="#455A64"/>
</g>
</g>
<g id="Group_89">
<g id="Group_90">
<path id="Vector_76" d="M249.483 105.016C245.762 113.655 245.086 123.302 247.566 132.376C248.308 135.06 249.334 137.842 248.7 140.553C248.013 143.488 245.559 145.612 243.768 148.037C242.221 150.132 241.134 152.53 240.579 155.075C240.025 157.619 240.014 160.252 240.549 162.801C241.083 165.35 242.151 167.757 243.681 169.864C245.212 171.971 247.17 173.731 249.429 175.028C249.903 172.328 252.413 170.491 254.889 169.318C257.365 168.145 260.099 167.275 261.989 165.29C263.879 163.305 264.411 159.667 262.216 158.028C268.531 156.378 272.11 148.877 270.781 142.487C269.452 136.097 264.255 131.048 258.343 128.28" fill="#263238"/>
</g>
<g id="Group_91">
<path id="Vector_77" d="M256.216 168.721C255.087 169.341 253.992 169.894 253.852 171.174C253.688 172.674 255.13 175.314 255.647 176.734C256.158 178.133 256.254 179.649 255.924 181.101C255.593 182.553 254.849 183.879 253.782 184.918C252.715 185.957 251.371 186.666 249.911 186.958C248.45 187.251 246.937 187.115 245.552 186.567C247.573 186.722 249.287 184.75 249.467 182.731C249.498 180.684 248.788 178.695 247.467 177.131C246.153 175.588 244.923 173.976 243.782 172.301C241.703 168.737 238.614 159.042 240.992 153.612" fill="#263238"/>
</g>
<g id="Group_92">
<path id="Vector_78" d="M261.957 158.281C262.075 158.159 262.205 158.049 262.345 157.953C262.608 157.753 262.989 157.446 263.47 157.042C264.831 155.905 266.067 154.626 267.158 153.228C268.788 151.169 269.978 148.796 270.653 146.258C271.467 143.145 271.306 139.856 270.19 136.838C269.58 135.297 268.699 133.878 267.59 132.646C266.535 131.432 265.384 130.374 264.305 129.346C263.261 128.387 262.277 127.364 261.361 126.282C260.571 125.321 259.921 124.253 259.431 123.109C258.654 121.467 258.432 119.616 258.798 117.837C258.917 117.362 259.097 116.906 259.335 116.478C259.414 116.327 259.507 116.185 259.613 116.052C259.327 116.633 259.102 117.242 258.941 117.87C258.639 119.616 258.896 121.412 259.674 123.004C260.17 124.116 260.819 125.153 261.601 126.086C262.519 127.149 263.501 128.154 264.542 129.097C265.625 130.116 266.789 131.175 267.866 132.407C269.006 133.669 269.909 135.125 270.534 136.707C271.678 139.797 271.835 143.165 270.982 146.348C270.281 148.925 269.048 151.326 267.362 153.396C266.244 154.792 264.969 156.055 263.562 157.159C263.062 157.548 262.662 157.836 262.388 158.018C262.253 158.119 262.109 158.207 261.957 158.281V158.281Z" fill="#455A64"/>
</g>
</g>
</g>
</g>
<g id="Group_93">
<g id="Group_94">
<path id="Vector_79" d="M55.804 243.955C57.617 246.227 60.804 245.236 62.21 243.691C63.616 242.146 64.12 240.004 64.571 237.963C65.601 233.299 66.628 228.41 65.354 223.806C65.0287 222.407 64.3247 221.124 63.319 220.099C62.8104 219.594 62.1782 219.232 61.4856 219.049C60.793 218.866 60.0644 218.869 59.373 219.056C57.773 219.589 56.857 221.25 56.22 222.815C54.3444 227.437 53.5228 232.419 53.815 237.398C53.8052 239.734 54.4986 242.019 55.805 243.955" fill="#2C68B0"/>
</g>
<g id="Group_95" opacity="0.2">
<path id="Vector_80" opacity="0.2" d="M55.804 243.955C57.617 246.227 60.804 245.236 62.21 243.691C63.616 242.146 64.12 240.004 64.571 237.963C65.601 233.299 66.628 228.41 65.354 223.806C65.0287 222.407 64.3247 221.124 63.319 220.099C62.8104 219.594 62.1782 219.232 61.4856 219.049C60.793 218.866 60.0644 218.869 59.373 219.056C57.773 219.589 56.857 221.25 56.22 222.815C54.3444 227.437 53.5228 232.419 53.815 237.398C53.8052 239.734 54.4986 242.019 55.805 243.955" fill="#2C68B0"/>
</g>
<g id="Group_96">
<path id="Vector_81" d="M62.796 255.598C65.503 254.113 68.6144 253.535 71.674 253.948C73.336 253.991 74.9356 254.59 76.218 255.648C77.399 256.797 77.744 258.93 76.542 260.057C75.7586 260.661 74.7888 260.973 73.8 260.939C71.433 261.06 68.782 260.809 66.983 262.351C65.957 263.231 65.324 264.626 64.06 265.106C63.4243 265.296 62.744 265.274 62.1221 265.042C61.5001 264.811 60.9704 264.384 60.613 263.825C59.9241 262.679 59.7018 261.312 59.992 260.006C60.0882 259.105 60.3914 258.238 60.8777 257.474C61.3641 256.709 62.0206 256.067 62.796 255.598V255.598Z" fill="#2C68B0"/>
</g>
<g id="Group_97">
<path id="Vector_82" d="M51.452 247.652C52.2364 246.481 52.7234 245.137 52.8706 243.735C53.0179 242.334 52.821 240.917 52.297 239.609C51.2166 236.997 49.4367 234.734 47.153 233.068C44.5521 231.03 41.579 229.519 38.4 228.619C37.1655 228.209 35.857 228.07 34.564 228.213C33.9186 228.291 33.302 228.526 32.768 228.897C32.234 229.268 31.7987 229.764 31.5 230.341C30.718 232.091 31.7 234.093 32.726 235.711C34.5356 238.564 36.5668 241.27 38.801 243.804C40.601 245.841 42.634 247.835 45.227 248.643C47.82 249.451 50.444 249.172 51.676 247.332" fill="#2C68B0"/>
</g>
<g id="Group_98">
<path id="Vector_83" d="M57.947 279.813C58.0122 279.453 58.0397 279.088 58.029 278.723C58.056 277.933 58.09 276.94 58.129 275.758C58.1847 274.297 58.3152 272.84 58.52 271.392C58.797 269.628 59.215 267.889 59.77 266.192C60.3122 264.497 61.0916 262.887 62.085 261.411C62.894 260.21 63.9605 259.204 65.207 258.466C66.0527 257.978 66.9704 257.627 67.926 257.427C68.2881 257.39 68.6454 257.315 68.992 257.204C68.6245 257.181 68.2557 257.199 67.892 257.256C66.8951 257.395 65.9312 257.712 65.046 258.191C63.7307 258.917 62.6013 259.937 61.746 261.172C60.7088 262.671 59.9 264.315 59.346 266.052C58.7822 267.774 58.3693 269.542 58.112 271.336C57.9233 272.8 57.8231 274.274 57.812 275.75C57.797 277.007 57.826 278.023 57.853 278.725C57.8446 279.09 57.8761 279.455 57.947 279.813V279.813Z" fill="#2C68B0"/>
</g>
<g id="Group_99">
<path id="Vector_84" d="M58.008 277.533C58.0276 277.367 58.0276 277.199 58.008 277.033C57.984 276.657 57.953 276.182 57.915 275.601C57.833 274.358 57.721 272.558 57.647 270.332C57.478 265.88 57.474 259.721 57.789 252.932C58.104 246.143 58.714 240.009 59.339 235.599C59.483 234.499 59.639 233.499 59.783 232.626C59.927 231.753 60.038 230.998 60.159 230.388C60.259 229.813 60.341 229.345 60.406 228.973C60.4445 228.809 60.4637 228.641 60.463 228.473C60.3954 228.627 60.3467 228.788 60.318 228.954L59.988 230.354C59.842 230.962 59.699 231.712 59.537 232.583C59.375 233.454 59.191 234.448 59.027 235.553C58.156 241.303 57.5935 247.095 57.342 252.905C57.026 259.705 57.08 265.883 57.331 270.342C57.444 272.571 57.606 274.372 57.741 275.612L57.919 277.039C57.9292 277.207 57.959 277.372 58.008 277.533V277.533Z" fill="#2C68B0"/>
</g>
<g id="Group_100">
<path id="Vector_85" d="M57.29 265.664C57.2962 265.162 57.2627 264.661 57.19 264.164C57.075 263.205 56.855 261.823 56.477 260.137C56.0237 258.165 55.4592 256.219 54.786 254.311C53.9788 251.966 53.0063 249.682 51.876 247.475C49.899 243.408 47.1991 239.734 43.908 236.633C43.3377 236.102 42.7345 235.608 42.102 235.153C41.826 234.948 41.581 234.742 41.334 234.582L40.643 234.167C40.2256 233.891 39.7873 233.648 39.332 233.44C40.8555 234.491 42.3127 235.634 43.695 236.865C46.8856 240 49.518 243.657 51.479 247.678C52.6002 249.868 53.5759 252.13 54.4 254.449C55.0862 256.339 55.6772 258.262 56.171 260.211C56.586 261.877 56.852 263.242 57.02 264.189C57.0718 264.687 57.1621 265.18 57.29 265.664Z" fill="#2C68B0"/>
</g>
</g>
<g id="Group_101">
<g id="Group_102">
<path id="Vector_86" d="M166.733 101.545C165.41 96.858 159.319 97.313 159.319 97.313L159.486 100.573C163.007 99.966 165.196 104.093 165.196 104.093L166.733 101.545Z" fill="#E8491C"/>
</g>
<g id="Group_103">
<path id="Vector_87" d="M106.8 47.019C103.512 47.368 103.119 51.497 103.119 51.497L105.319 51.758C105.319 49.332 108.327 48.34 108.327 48.34L106.8 47.019Z" fill="#E8491C"/>
</g>
<g id="Group_104">
<path id="Vector_88" d="M137.418 3.27897C139.424 8.38997 146.207 7.20098 146.207 7.20098L145.657 3.56298C141.774 4.63698 138.857 0.249973 138.857 0.249973L137.418 3.27897Z" fill="#E8491C"/>
</g>
<g id="Group_105">
<path id="Vector_89" d="M74.475 19.61C74.953 16.338 71.051 14.933 71.051 14.933L70.251 17C72.602 17.6 72.815 20.763 72.815 20.763L74.475 19.61Z" fill="#E8491C"/>
</g>
<g id="Group_106">
<path id="Vector_90" d="M179.782 45.073C183.082 45.261 184.14 41.251 184.14 41.251L182.011 40.636C181.621 43.036 178.488 43.522 178.488 43.522L179.782 45.073Z" fill="#E8491C"/>
</g>
</g>
</g>
<path id="Vector_91" opacity="0.1" d="M27.3654 279.629C27.3654 279.629 -20.7286 228.517 12.9954 180.839C25.5794 163.048 57.7054 153.058 87.2374 161.163C104.681 165.95 131.137 165.244 156.985 123.047C192.236 65.5017 338.57 91.6677 310.007 192.49C297.975 234.959 342.82 236.89 320.607 279.72L27.3654 279.629Z" fill="#F8AF34"/>
</g>
</svg>
