<svg xmlns="http://www.w3.org/2000/svg" width="406.841" height="300.725" viewBox="0 0 406.841 300.725"><g transform="translate(-17931.158 11582.954)"><g transform="translate(17931.158 -11582.954)"><path d="M645.468,508.12a224.108,224.108,0,0,1-26.431,36.469l-.035.035c-.113.113-.224.261-.334.372-20.594,23.124-50.52,35.724-81.484,35.315l-119.216-1.559a361.234,361.234,0,0,1-76.206-34.127c-.038,0-.038-.035-.073-.035-20.373-12.342-40.743-28.178-55.129-47.435-12.266-16.393-20.185-35.39-20.111-56.95,0,0-6.171-76.465,123.417-80.778,59.216-6.913,49.142-77.245,176.09-74.68a115.107,115.107,0,0,1,12.638.893,109.555,109.555,0,0,1,19.7,4.31c33.011,10.707,56.095,36.765,67.247,70.111a145.591,145.591,0,0,1,5.094,19.7C677.846,419.089,670.3,465.445,645.468,508.12Z" transform="translate(-266.401 -284.677)" fill="#f8af34" opacity="0.1"/><g transform="translate(312.205 0.959)"><g opacity="0.1"><path d="M499.371,379.224H407.357V285.11a110.669,110.669,0,0,1,19.684,4.33c33.029,10.7,56.106,36.748,67.256,70.1A142.706,142.706,0,0,1,499.371,379.224Z" transform="translate(-407.357 -285.11)" fill="#ef7c1f"/></g><g transform="translate(19.684 4.33)" opacity="0.1"><path d="M483.5,357.167H416.244v-70.1C449.273,297.763,472.35,323.813,483.5,357.167Z" transform="translate(-416.244 -287.065)" fill="#f8af34"/></g></g></g><g transform="translate(18228.816 -11448.907)"><path d="M462.856,423.638H408.044q.113-18.2.228-36.393a13.51,13.51,0,0,1-2.879-2.16c-10.791-10.676.594-36.881,1.925-39.86l7.183,10.55h14.882L435.3,345.2a88.1,88.1,0,0,1,4.417,11.329,90.216,90.216,0,0,1,3.931,31.162C448.426,387.867,451.633,389.36,462.856,423.638Z" transform="translate(-400.789 -345.197)" fill="#304798"/><g transform="translate(10.524 22.838)"><path d="M406.532,358.394c0,1.595-.221,2.886-.5,2.886s-.5-1.291-.5-2.886.221-2.886.5-2.886S406.532,356.8,406.532,358.394Z" transform="translate(-405.54 -355.508)" fill="#fff"/></g><g transform="translate(25.152 22.838)"><path d="M413.139,358.394c0,1.595-.224,2.886-.5,2.886s-.5-1.291-.5-2.886.224-2.886.5-2.886S413.139,356.8,413.139,358.394Z" transform="translate(-412.144 -355.508)" fill="#fff"/></g></g><g transform="translate(17951.318 -11515.134)"><g transform="translate(18.507)"><g transform="translate(83.956 91.435)"><path d="M355.413,409.813h-33.65l13.228-53.234h33.65Z" transform="translate(-321.764 -356.578)" fill="#002d53"/></g><path d="M481.955,429.921a5.7,5.7,0,0,1-5.781,6.428H302.551a7.367,7.367,0,0,1-7.148-6.428l-11.509-108.2a5.7,5.7,0,0,1,5.781-6.428H463.3a7.371,7.371,0,0,1,7.148,6.428Z" transform="translate(-283.859 -315.297)" fill="#fff"/><path d="M481.955,429.921a5.7,5.7,0,0,1-5.781,6.428H302.551a7.367,7.367,0,0,1-7.148-6.428l-11.509-108.2a5.7,5.7,0,0,1,5.781-6.428H463.3a7.371,7.371,0,0,1,7.148,6.428Z" transform="translate(-283.859 -315.297)" fill="#002d53"/><g transform="translate(8.977 8.073)"><path d="M304.888,423.847a7.371,7.371,0,0,1-7.148-6.428l-9.792-92.05a5.7,5.7,0,0,1,5.779-6.428H451.114a7.37,7.37,0,0,1,7.148,6.428l9.79,92.05a5.7,5.7,0,0,1-5.779,6.428Z" transform="translate(-287.912 -318.942)" fill="#304798"/></g><g transform="translate(26.725 31.013)"><path d="M334.345,335.151H296.839l-.914-5.852H333.43Z" transform="translate(-295.925 -329.299)" fill="#ef7c1f"/><g transform="translate(47.353)"><path d="M355.724,335.151H318.218L317.3,329.3h37.506Z" transform="translate(-317.304 -329.299)" fill="#fff"/></g><g transform="translate(2.793 16.957)"><path d="M335.606,342.807H298.1l-.914-5.852h37.506Z" transform="translate(-297.186 -336.955)" fill="#fff"/></g><g transform="translate(30.936 31.398)"><path d="M348.312,349.326H310.806l-.914-5.852H347.4Z" transform="translate(-309.892 -343.474)" fill="#fff"/></g><g transform="translate(53.221 47.883)"><path d="M358.373,356.769H320.868l-.914-5.852h37.506Z" transform="translate(-319.953 -350.917)" fill="#fff"/></g><g transform="translate(94.796 47.883)"><path d="M358.39,356.769H339.638l-.914-5.852h18.753Z" transform="translate(-338.723 -350.917)" fill="#ef7c1f"/></g><g transform="translate(72.432 31.398)"><path d="M367.046,349.326H329.541l-.914-5.852h37.506Z" transform="translate(-328.626 -343.474)" fill="#ef7c1f"/></g></g></g><g transform="translate(0 144.667)"><g transform="translate(55.127 47.424)"><path d="M577.741,402.023l-.035.035c-.113.113-.224.261-.334.372-20.594,23.124-50.52,35.724-81.485,35.315l-119.216-1.559a361.235,361.235,0,0,1-76.206-34.127c-.038,0-.038-.035-.073-.035Z" transform="translate(-300.392 -402.023)" fill="#bc7f72"/></g><path d="M634.414,391.565a223.143,223.143,0,0,1-26.477,36.488H330.721C310.3,415.7,289.9,399.906,275.5,380.612H626.584Z" transform="translate(-275.503 -380.612)" fill="#d18c7e"/></g></g><g transform="translate(17997.691 -11525.271)"><g transform="translate(116.05)"><g transform="translate(14.075 22.695)"><path d="M420.861,376.648c-8.091,24.364-28.617,39.476-45.846,33.753s-24.641-30.109-16.55-54.471,28.617-39.474,45.846-33.753S428.95,352.286,420.861,376.648Z" transform="translate(-355.189 -320.967)" fill="#ffb3ae"/></g><g transform="translate(46.551 84.192)"><rect width="34.848" height="41.562" fill="#ffb3ae"/></g><path d="M363.569,379.318s-28.77-16.377-5.909-44.832c5.909-8.632,5.909,8.953,5.909,8.953s19.624-56.908,52.9-20.621c0,0,31.445,5.322,38.433,26.541,2.259,6.864,1.025,12.716-.208,19.017-.432,2.213-8.441,40.407-35.335,45.116-3.763.658-12.536,1.475-23.979-4.556Q379.474,394.125,363.569,379.318Z" transform="translate(-348.834 -310.72)" fill="#1e1e1e"/><g transform="translate(31.57 69.647)"><path d="M374.664,355.422c.684,7.6-1.325,13.994-4.483,14.28s-6.277-5.646-6.959-13.247,1.322-13.994,4.483-14.279S373.979,347.82,374.664,355.422Z" transform="translate(-363.088 -342.165)" fill="#ffb3ae"/></g></g><g transform="translate(0 108.077)"><g transform="translate(85.061)"><path d="M520.918,482.708s-6.835,3.9-25.294,7.212c-21.124,3.794-57.451,6.809-116.139,2.315q-20.466-1.535-44.642-4.412A274.72,274.72,0,0,1,350.531,441.3c15.095-34.5,42.247-76.395,86-81.374,43.215-4.924,64.582,35.709,74.968,71.553A269.383,269.383,0,0,1,520.918,482.708Z" transform="translate(-334.843 -359.515)" fill="#e8491c"/></g><g transform="translate(240.218 71.96)"><path d="M435.812,443.237s-6.835,3.9-25.294,7.212l-5.624-50.615,21.5-7.83A269.384,269.384,0,0,1,435.812,443.237Z" transform="translate(-404.894 -392.004)" fill="#ffb3ae"/></g><g transform="translate(0 29.794)"><path d="M433.048,437.342l-2.315,13a28.385,28.385,0,0,1-30.865,23.195q-8.877-.927-18.377-2.044c-20.774-2.315-60.762-60.841-60.762-60.841l-10.924,2.126c-3.553,12.594-6.217,15.795-8.153,15.688-4.091-.215-6.164-15.527-4.791-24.621.27-1.723.753-3.9,2.476-5.356a8.325,8.325,0,0,1,5.247-1.641c2.288.215,3.418.35,3.9.376a19.634,19.634,0,0,0-3.9-.376c-.27-.027-.565-.055-.888-.082,1.212-10.656,7.912-19.509,17.141-22.6,8.556-2.879,16.118.241,18.244,1.185,0,0,2.636-1.668,8.988-1.076,6.35.618,9.712,16.065,9.712,16.065l39.4,34.63C404.524,430.183,417.28,437.18,433.048,437.342Z" transform="translate(-296.439 -372.967)" fill="#ffb3ae"/></g><g transform="translate(6.287 51.811)"><path d="M305.037,387a2.189,2.189,0,0,1-.339-.029,19.633,19.633,0,0,0-3.535-.35,1.816,1.816,0,0,1-1.885-1.832,1.863,1.863,0,0,1,1.834-1.885,23.815,23.815,0,0,1,4.2.4,1.885,1.885,0,0,1,1.522,2.168A1.843,1.843,0,0,1,305.037,387Z" transform="translate(-299.278 -382.907)" fill="#ff7a72"/></g><g transform="translate(89.122 79.933)"><path d="M338.536,417.488a1.877,1.877,0,0,1-.879-.221,1.857,1.857,0,0,1-.757-2.516l9.757-18.169a1.859,1.859,0,0,1,3.276,1.756l-9.759,18.171A1.856,1.856,0,0,1,338.536,417.488Z" transform="translate(-336.677 -395.604)" fill="#ff7a72"/></g><g transform="translate(231.807 45.054)"><path d="M409.509,415.986a1.4,1.4,0,0,1-1.367-1.107l-7.017-33.348a1.4,1.4,0,0,1,2.731-.574l7.017,33.348a1.4,1.4,0,0,1-1.079,1.652A1.6,1.6,0,0,1,409.509,415.986Z" transform="translate(-401.097 -379.856)" fill="#002d53"/></g><g transform="translate(135.215 69.058)"><path d="M358.881,417.2a1.393,1.393,0,0,1-1.227-2.053l12.787-23.722a1.394,1.394,0,0,1,2.454,1.322l-12.787,23.72A1.393,1.393,0,0,1,358.881,417.2Z" transform="translate(-357.487 -390.694)" fill="#002d53"/></g></g></g></g></svg>