<svg xmlns="http://www.w3.org/2000/svg" width="1160.518" height="524.761" viewBox="0 0 1160.518 524.761"><g transform="translate(-6395 16221.879)"><path d="M6970.19-9765.879h751.327v524.761H6711.047Z" transform="translate(-166 -6456)" fill="#2c68b0"/><g transform="translate(6121.211 -16416.84)"><g transform="translate(919.101 571.878)"><path d="M1821.632,1154.863l9.807,1.612a4.184,4.184,0,0,1,2.016.914,3.5,3.5,0,0,1,1.158,1.785,2.867,2.867,0,0,1,.095.637,2.93,2.93,0,0,1-.036.594l-22.561,136.739a3.6,3.6,0,0,1-4.131,2.715c-.065-.008-.13-.017-.195-.028l-9.807-1.613c-.064-.01-.129-.023-.193-.035a3.6,3.6,0,0,1-3.039-3.895l22.561-136.739a2.888,2.888,0,0,1,.157-.573,2.845,2.845,0,0,1,.294-.573,3.507,3.507,0,0,1,1.671-1.321A4.19,4.19,0,0,1,1821.632,1154.863Z" transform="translate(-1794.655 -1154.805)" fill="#ffb93e"/><path d="M1824.07,1318.449l-12.087,73.256c-.259,1.573-2.069,2.606-4.072,2.36-.065-.008-.13-.017-.195-.028l-9.807-1.612c-.065-.011-.129-.023-.193-.036-1.975-.408-3.358-1.967-3.1-3.54l10.6-64.26C1810.5,1324.4,1817.966,1323.175,1824.07,1318.449Z" transform="translate(-1794.586 -1249.011)" fill="#ffa412"/><g transform="translate(7.835 0.278)"><rect width="1.575" height="17.598" transform="translate(12.363 17.345) rotate(-80.616)" fill="#ffa412"/><rect width="1.575" height="17.598" transform="translate(11.494 22.609) rotate(-80.643)" fill="#ffa412"/><rect width="1.575" height="17.598" transform="translate(10.453 28.915) rotate(-80.627)" fill="#ffa412"/><rect width="1.575" height="17.598" transform="translate(8.858 38.586) rotate(-80.631)" fill="#ffa412"/><rect width="1.575" height="17.598" transform="translate(7.171 48.811) rotate(-80.629)" fill="#ffa412"/><rect width="1.575" height="17.598" transform="translate(4.584 64.488) rotate(-80.642)" fill="#ffa412"/><rect width="1.575" height="17.598" transform="translate(2.163 79.161) rotate(-80.615)" fill="#ffa412"/><rect width="1.575" height="17.598" transform="translate(0 92.27) rotate(-80.631)" fill="#ffa412"/><rect width="1.575" height="17.598" transform="translate(13.188 12.341) rotate(-80.642)" fill="#ffa412"/><rect width="1.575" height="17.598" transform="translate(13.734 9.031) rotate(-80.629)" fill="#ffa412"/><rect width="1.575" height="17.598" transform="translate(14.261 5.838) rotate(-80.642)" fill="#ffa412"/><path d="M1847.592,1161.468l17.365,2.855.16-.971a2.917,2.917,0,0,0,.036-.594l-17.245-2.835a2.885,2.885,0,0,0-.156.573Z" transform="translate(-1832.935 -1158.029)" fill="#ffa412"/><path d="M1849.031,1156.781l16.856,2.771a3.493,3.493,0,0,0-1.158-1.785l-14.027-2.307A3.507,3.507,0,0,0,1849.031,1156.781Z" transform="translate(-1833.763 -1155.46)" fill="#ffa412"/></g></g><g transform="translate(936.891 571.878)"><path d="M1863.558,1154.863l9.806,1.612a4.186,4.186,0,0,1,2.016.914,3.5,3.5,0,0,1,1.158,1.785,2.873,2.873,0,0,1,.094.637,2.835,2.835,0,0,1-.035.594l-22.561,136.739a3.6,3.6,0,0,1-4.13,2.715c-.065-.008-.131-.017-.195-.028l-9.806-1.613c-.065-.01-.13-.023-.194-.035a3.6,3.6,0,0,1-3.04-3.895l22.562-136.739a2.871,2.871,0,0,1,.156-.573,2.814,2.814,0,0,1,.294-.573,3.5,3.5,0,0,1,1.671-1.321A4.191,4.191,0,0,1,1863.558,1154.863Z" transform="translate(-1836.581 -1154.805)" fill="#ffb93e"/><path d="M1866,1318.449l-12.087,73.256c-.26,1.573-2.069,2.606-4.072,2.36-.065-.008-.13-.017-.195-.028l-9.807-1.612c-.065-.011-.129-.023-.194-.036-1.976-.408-3.358-1.967-3.1-3.54l10.6-64.26C1852.428,1324.4,1859.892,1323.175,1866,1318.449Z" transform="translate(-1836.512 -1249.011)" fill="#ffa412"/><g transform="translate(7.835 0.278)"><rect width="1.575" height="17.598" transform="translate(12.362 17.345) rotate(-80.616)" fill="#ffa412"/><rect width="1.575" height="17.598" transform="matrix(0.163, -0.987, 0.987, 0.163, 11.494, 22.61)" fill="#ffa412"/><rect width="1.575" height="17.598" transform="translate(10.453 28.915) rotate(-80.627)" fill="#ffa412"/><rect width="1.575" height="17.598" transform="translate(8.858 38.585) rotate(-80.629)" fill="#ffa412"/><rect width="1.575" height="17.598" transform="translate(7.171 48.811) rotate(-80.629)" fill="#ffa412"/><rect width="1.575" height="17.598" transform="translate(4.584 64.486) rotate(-80.627)" fill="#ffa412"/><rect width="1.575" height="17.598" transform="translate(2.162 79.163) rotate(-80.629)" fill="#ffa412"/><rect width="1.575" height="17.598" transform="translate(0 92.27) rotate(-80.629)" fill="#ffa412"/><rect width="1.575" height="17.598" transform="translate(13.188 12.339) rotate(-80.627)" fill="#ffa412"/><rect width="1.575" height="17.598" transform="matrix(0.163, -0.987, 0.987, 0.163, 13.734, 9.033)" fill="#ffa412"/><rect width="1.575" height="17.598" transform="translate(14.261 5.838) rotate(-80.642)" fill="#ffa412"/><path d="M1889.518,1161.468l17.365,2.855.16-.971a2.848,2.848,0,0,0,.035-.594l-17.243-2.835a2.9,2.9,0,0,0-.156.573Z" transform="translate(-1874.861 -1158.029)" fill="#ffa412"/><path d="M1890.957,1156.781l16.856,2.771a3.494,3.494,0,0,0-1.158-1.785l-14.026-2.307A3.5,3.5,0,0,0,1890.957,1156.781Z" transform="translate(-1875.69 -1155.46)" fill="#ffa412"/></g></g><g transform="translate(738.71 524.506)"><g transform="translate(14.786 174.535)"><path d="M1549.62,1458.657l-.018,9.938a4.184,4.184,0,0,1-.579,2.138,3.5,3.5,0,0,1-1.576,1.429,2.838,2.838,0,0,1-.615.2,2.9,2.9,0,0,1-.591.06l-138.588-.329a3.6,3.6,0,0,1-3.343-3.641c0-.066,0-.132,0-.2l.018-9.939c0-.065,0-.131,0-.2a3.6,3.6,0,0,1,3.356-3.625l138.588.329a2.98,2.98,0,0,1,1.2.261,3.5,3.5,0,0,1,1.571,1.437A4.178,4.178,0,0,1,1549.62,1458.657Z" transform="translate(-1404.308 -1454.489)" fill="#ffb93e"/><path d="M1481.541,1472.262l-74.246-.176c-1.594,0-2.905-1.625-2.984-3.64,0-.066,0-.132,0-.2l.018-9.939c0-.065,0-.131,0-.2.085-2.015,1.4-3.63,3-3.626l65.129.155C1473.485,1459.826,1475.9,1467,1481.541,1472.262Z" transform="translate(-1404.308 -1454.488)" fill="#ffa412"/><g transform="translate(50.905 0.114)"><rect width="17.598" height="1.575" transform="translate(75.938 17.778) rotate(-89.864)" fill="#ffa412"/><rect width="17.598" height="1.575" transform="translate(70.606 17.766) rotate(-89.864)" fill="#ffa412"/><rect width="17.598" height="1.575" transform="translate(64.21 17.75) rotate(-89.849)" fill="#ffa412"/><rect width="17.598" height="1.575" transform="matrix(0.002, -1, 1, 0.002, 54.412, 17.727)" fill="#ffa412"/><rect width="17.598" height="1.575" transform="translate(44.049 17.703) rotate(-89.864)" fill="#ffa412"/><rect width="17.598" height="1.575" transform="translate(28.161 17.665) rotate(-89.864)" fill="#ffa412"/><rect width="17.598" height="1.575" transform="translate(13.285 17.63) rotate(-89.864)" fill="#ffa412"/><rect width="17.598" height="1.575" transform="matrix(0.003, -1, 1, 0.003, 0, 17.598)" fill="#ffa412"/><rect width="17.598" height="1.575" transform="translate(81.013 17.791) rotate(-89.864)" fill="#ffa412"/><rect width="17.598" height="1.575" transform="translate(84.368 17.799) rotate(-89.88)" fill="#ffa412"/><rect width="17.598" height="1.575" transform="translate(87.603 17.806) rotate(-89.864)" fill="#ffa412"/><path d="M1736.514,1455.26l-.033,17.6.985,0a2.885,2.885,0,0,0,.591-.06l.032-17.476a2.9,2.9,0,0,0-.591-.062Z" transform="translate(-1646.437 -1455.047)" fill="#ffa412"/><path d="M1741.673,1455.881l-.031,17.082a3.5,3.5,0,0,0,1.576-1.43l.026-14.215A3.5,3.5,0,0,0,1741.673,1455.881Z" transform="translate(-1649.409 -1455.404)" fill="#ffa412"/></g></g><g transform="translate(0 156.902)"><path d="M1514.775,1417.1l-.018,9.938a4.186,4.186,0,0,1-.579,2.137,3.5,3.5,0,0,1-1.576,1.429,2.818,2.818,0,0,1-.614.2,2.866,2.866,0,0,1-.591.06l-138.588-.329a3.6,3.6,0,0,1-3.342-3.641c0-.066,0-.131,0-.2l.018-9.939c0-.065,0-.131,0-.2a3.6,3.6,0,0,1,3.356-3.625l138.588.329c.089,0,.177,0,.265.014a.9.9,0,0,1,.113.013c.041,0,.083.011.124.018s.059.011.089.017a2.86,2.86,0,0,1,.613.2c.03.013.058.026.087.041s.057.027.085.042l.169.094.1.062a.985.985,0,0,1,.085.058c.054.036.106.074.158.114s.116.1.172.147.087.078.13.121c0,0,.005,0,.007.008.028.028.057.057.085.087a3.461,3.461,0,0,1,.243.286c.024.03.046.06.067.09s.042.061.064.093c.043.063.085.13.124.2A4.179,4.179,0,0,1,1514.775,1417.1Z" transform="translate(-1369.463 -1412.933)" fill="#ffb93e"/><path d="M1446.7,1430.706l-74.247-.177c-1.6,0-2.905-1.624-2.982-3.64,0-.066,0-.131,0-.2l.018-9.938c0-.065,0-.131,0-.2.085-2.015,1.4-3.63,3-3.626l65.127.155c.03.144.059.287.09.434C1438.777,1418.664,1441.206,1425.586,1446.7,1430.706Z" transform="translate(-1369.463 -1412.932)" fill="#ffa412"/><g transform="translate(50.91 0.114)"><rect width="17.598" height="1.575" transform="translate(75.934 17.778) rotate(-89.866)" fill="#ffa412"/><rect width="17.598" height="1.575" transform="matrix(0.002, -1, 1, 0.002, 70.602, 17.765)" fill="#ffa412"/><rect width="17.598" height="1.575" transform="translate(64.208 17.75) rotate(-89.864)" fill="#ffa412"/><rect width="17.598" height="1.575" transform="translate(54.408 17.727) rotate(-89.864)" fill="#ffa412"/><rect width="17.598" height="1.575" transform="matrix(0.002, -1, 1, 0.002, 44.046, 17.702)" fill="#ffa412"/><rect width="17.598" height="1.575" transform="translate(28.155 17.664) rotate(-89.85)" fill="#ffa412"/><rect width="17.598" height="1.575" transform="translate(13.281 17.629) rotate(-89.864)" fill="#ffa412"/><rect width="17.598" height="1.575" transform="matrix(0.002, -1, 1, 0.002, 0, 17.598)" fill="#ffa412"/><rect width="17.598" height="1.575" transform="matrix(0.002, -1, 1, 0.002, 81.009, 17.79)" fill="#ffa412"/><rect width="17.598" height="1.575" transform="translate(84.362 17.798) rotate(-89.864)" fill="#ffa412"/><rect width="17.598" height="1.575" transform="translate(87.599 17.806) rotate(-89.864)" fill="#ffa412"/><path d="M1701.668,1413.7l-.032,17.6.984,0a2.862,2.862,0,0,0,.591-.06l.032-17.475a2.875,2.875,0,0,0-.591-.063Z" transform="translate(-1611.597 -1413.489)" fill="#ffa412"/><path d="M1706.828,1414.324l-.031,17.081a3.5,3.5,0,0,0,1.576-1.43l.026-14.215A3.5,3.5,0,0,0,1706.828,1414.324Z" transform="translate(-1614.568 -1413.847)" fill="#ffa412"/></g></g><path d="M1531.723,1376.69l-.018,9.938a4.179,4.179,0,0,1-.578,2.137,3.5,3.5,0,0,1-1.576,1.43,2.985,2.985,0,0,1-1.206.255l-138.587-.329a3,3,0,0,1-1.545-.437,3.9,3.9,0,0,1-1.787-3.032c-.005-.057-.009-.114-.01-.171s0-.132,0-.2l.018-9.938c0-.065,0-.131,0-.2a3.6,3.6,0,0,1,3.356-3.625l138.587.329a2.973,2.973,0,0,1,.592.063,2.848,2.848,0,0,1,.613.2,3.5,3.5,0,0,1,1.572,1.438A4.185,4.185,0,0,1,1531.723,1376.69Z" transform="translate(-1379.22 -1232.768)" fill="#ffb93e"/><path d="M1463.645,1390.3l-74.246-.176a2.467,2.467,0,0,1-1.378-.437,3.985,3.985,0,0,1-1.594-3.032c-.005-.057-.009-.114-.01-.171s0-.132,0-.2l.018-9.938c0-.065,0-.131,0-.2.085-2.015,1.4-3.63,3-3.625l65.129.155c1,5.041,3.311,11.963,8.631,17.185Q1463.414,1390.08,1463.645,1390.3Z" transform="translate(-1379.22 -1232.767)" fill="#ffa412"/><path d="M1539.622,1335.235l-.018,9.938a4.176,4.176,0,0,1-.579,2.137,3.491,3.491,0,0,1-1.576,1.43,2.828,2.828,0,0,1-.614.2,2.885,2.885,0,0,1-.591.06l-138.587-.329a3.6,3.6,0,0,1-3.343-3.641c0-.066,0-.131,0-.2l.019-9.938c0-.065,0-.13,0-.2a3.668,3.668,0,0,1,2.959-3.6,2.727,2.727,0,0,1,.4-.026l138.587.329a2.916,2.916,0,0,1,.591.063,2.869,2.869,0,0,1,.613.2,3.5,3.5,0,0,1,1.571,1.437A4.187,4.187,0,0,1,1539.622,1335.235Z" transform="translate(-1383.767 -1208.903)" fill="#ffb93e"/><path d="M1471.543,1348.84l-74.246-.176c-1.594,0-2.906-1.625-2.984-3.64,0-.066,0-.132,0-.2l.019-9.938c0-.065,0-.131,0-.2a3.583,3.583,0,0,1,2.643-3.6,2.189,2.189,0,0,1,.354-.027l65.128.155c0,.008,0,.02.006.028C1463.5,1336.426,1465.909,1343.583,1471.543,1348.84Z" transform="translate(-1383.767 -1208.902)" fill="#ffa412"/><path d="M1515.686,1293.77l-.019,9.938a4.178,4.178,0,0,1-.578,2.137,3.489,3.489,0,0,1-1.576,1.429,2.878,2.878,0,0,1-.614.2c-.065.012-.13.025-.195.033l-.11.012c-.035,0-.072.007-.109.009-.059,0-.119.006-.178.006l-138.587-.329a3.6,3.6,0,0,1-3.343-3.641c0-.065,0-.132,0-.2l.018-9.938c0-.066,0-.131,0-.2s.006-.108.009-.161a3.737,3.737,0,0,1,2.52-3.347c.033-.011.069-.019.1-.028a2.931,2.931,0,0,1,.725-.089l138.587.329c.1,0,.2.007.3.015l.134.017h0c.052.008.1.019.155.03a2.854,2.854,0,0,1,.613.2,3.5,3.5,0,0,1,1.571,1.438A4.182,4.182,0,0,1,1515.686,1293.77Z" transform="translate(-1369.987 -1185.033)" fill="#ffb93e"/><path d="M1447.607,1307.375l-74.247-.176c-1.594,0-2.905-1.625-2.983-3.64,0-.065,0-.131,0-.2l.018-9.938c0-.066,0-.132,0-.2s.006-.108.009-.161a3.663,3.663,0,0,1,2.328-3.372,1,1,0,0,1,.128-.033,2.337,2.337,0,0,1,.53-.06l65.129.155c.007.043.017.082.026.125,1.042,5.164,3.453,12.246,9.03,17.467Z" transform="translate(-1369.987 -1185.031)" fill="#ffa412"/><path d="M1515.075,1252.589l-.019,9.938a4.174,4.174,0,0,1-.578,2.137,3.5,3.5,0,0,1-1.576,1.43,2.8,2.8,0,0,1-.479.164h0c-.045.012-.087.023-.132.031a2.818,2.818,0,0,1-.591.06l-138.588-.328a2.659,2.659,0,0,1-.434-.035,1.351,1.351,0,0,1-.165-.03,3.711,3.711,0,0,1-2.744-3.576c0-.066,0-.132,0-.2l.018-9.938c0-.066,0-.132,0-.2a3.6,3.6,0,0,1,3.356-3.625l138.587.329c.089,0,.178,0,.265.013l.113.013c.041,0,.084.011.125.02s.059.01.089.017a2.8,2.8,0,0,1,.613.2c.029.013.057.025.087.04s.057.027.085.042c.057.03.113.061.168.093s.122.076.182.119.1.075.157.115.116.1.171.147.087.078.13.121c0,0,.005,0,.007.009.028.027.058.057.085.087a3.607,3.607,0,0,1,.243.286c.024.029.046.059.066.089l.065.094c.042.063.085.129.124.194A4.179,4.179,0,0,1,1515.075,1252.589Z" transform="translate(-1369.636 -1161.326)" fill="#ffb93e"/><path d="M1447,1266.195l-74.246-.176c-.059,0-.119,0-.176-.007a1.874,1.874,0,0,1-.191-.024,3.589,3.589,0,0,1-2.616-3.609c0-.066,0-.131,0-.2l.018-9.938c0-.066,0-.131,0-.2.085-2.016,1.4-3.63,3-3.626l65.127.155c.029.144.059.288.09.434,1.07,5.1,3.469,11.951,8.865,17.061C1446.907,1266.112,1446.951,1266.152,1447,1266.195Z" transform="translate(-1369.636 -1161.325)" fill="#ffa412"/><path d="M1532.023,1212.178l-.019,9.938a4.185,4.185,0,0,1-.578,2.137,3.5,3.5,0,0,1-1.576,1.43,2.992,2.992,0,0,1-1.205.255l-138.587-.329a3,3,0,0,1-1.546-.438,3.9,3.9,0,0,1-1.786-3.032c-.006-.057-.009-.114-.011-.172s0-.131,0-.2l.018-9.938c0-.066,0-.132,0-.2a3.6,3.6,0,0,1,3.357-3.625l138.587.328a2.887,2.887,0,0,1,.592.063,2.821,2.821,0,0,1,.613.2,3.5,3.5,0,0,1,1.571,1.437A4.19,4.19,0,0,1,1532.023,1212.178Z" transform="translate(-1379.392 -1138.063)" fill="#ffb93e"/><path d="M1463.944,1225.783l-74.247-.175a2.464,2.464,0,0,1-1.378-.438,3.983,3.983,0,0,1-1.594-3.031c-.006-.057-.009-.114-.011-.172s0-.131,0-.2l.018-9.938c0-.066,0-.132,0-.2.086-2.016,1.4-3.63,3-3.626l65.129.155c1,5.042,3.311,11.964,8.63,17.185Q1463.714,1225.568,1463.944,1225.783Z" transform="translate(-1379.392 -1138.061)" fill="#ffa412"/><path d="M1558.789,1170.768l-.018,9.938a4.184,4.184,0,0,1-.579,2.137,3.491,3.491,0,0,1-1.576,1.43,3,3,0,0,1-1.205.256l-138.588-.33a3.6,3.6,0,0,1-3.343-3.641c0-.065,0-.13,0-.2l.018-9.938q0-.1,0-.2a3.67,3.67,0,0,1,2.96-3.6,2.808,2.808,0,0,1,.4-.027l138.588.329a2.99,2.99,0,0,1,1.2.26,3.5,3.5,0,0,1,1.571,1.438A4.184,4.184,0,0,1,1558.789,1170.768Z" transform="translate(-1394.801 -1114.224)" fill="#ffb93e"/><path d="M1490.71,1184.374l-74.247-.177c-1.594,0-2.905-1.624-2.983-3.64,0-.066,0-.131,0-.2l.018-9.938c0-.065,0-.131,0-.2a3.585,3.585,0,0,1,2.643-3.6,2.158,2.158,0,0,1,.354-.026l65.129.154c0,.008,0,.019.005.028C1482.664,1171.962,1485.075,1179.116,1490.71,1184.374Z" transform="translate(-1394.801 -1114.222)" fill="#ffa412"/><path d="M1515.984,1129.258l-.018,9.938a4.185,4.185,0,0,1-.579,2.137,3.494,3.494,0,0,1-1.576,1.429,2.813,2.813,0,0,1-.614.2c-.065.013-.13.025-.194.033a1.51,1.51,0,0,1-.157.017l-.077.007c-.054,0-.108,0-.163,0l-138.588-.329a3.6,3.6,0,0,1-3.342-3.641c0-.065,0-.131,0-.2l.018-9.938c0-.066,0-.131,0-.2a3.6,3.6,0,0,1,3.357-3.625l138.587.329c.059,0,.119,0,.178.007a2.926,2.926,0,0,1,.413.056,2.82,2.82,0,0,1,.613.2,2.883,2.883,0,0,1,.291.149c.059.034.117.068.172.107a.05.05,0,0,1,.019.012c.057.038.112.079.168.121a.169.169,0,0,1,.028.021,1.765,1.765,0,0,1,.15.125,3.025,3.025,0,0,1,.333.333c.033.036.065.074.094.113a.139.139,0,0,1,.017.021.8.8,0,0,1,.057.072.141.141,0,0,1,.011.015c.034.044.067.091.1.14.047.068.09.135.133.207A4.178,4.178,0,0,1,1515.984,1129.258Z" transform="translate(-1370.16 -1090.327)" fill="#ffb93e"/><path d="M1447.906,1142.863l-74.246-.176c-1.594,0-2.906-1.625-2.983-3.641q0-.1,0-.2l.018-9.938c0-.066,0-.131,0-.2.086-2.015,1.4-3.63,3-3.626l65.129.155c.026.134.053.269.085.406,1.071,5.137,3.494,12.057,8.971,17.186Z" transform="translate(-1370.16 -1090.326)" fill="#ffa412"/><path d="M1540.071,1088.8l-.018,9.938a4.18,4.18,0,0,1-.578,2.137,3.5,3.5,0,0,1-1.576,1.43,2.823,2.823,0,0,1-.614.2,2.861,2.861,0,0,1-.592.06l-138.587-.329a2.984,2.984,0,0,1-1.5-.409,3.882,3.882,0,0,1-1.837-3.075c0-.052-.007-.1-.008-.157s0-.13,0-.2l.018-9.938c0-.066,0-.131,0-.2a3.669,3.669,0,0,1,2.959-3.6,2.611,2.611,0,0,1,.4-.027l138.588.329a2.871,2.871,0,0,1,.591.062,2.9,2.9,0,0,1,.613.2,3.51,3.51,0,0,1,1.572,1.438A4.181,4.181,0,0,1,1540.071,1088.8Z" transform="translate(-1384.025 -1067.036)" fill="#ffb93e"/><path d="M1471.992,1102.405l-74.246-.177a2.442,2.442,0,0,1-1.336-.41,3.967,3.967,0,0,1-1.638-3.074c0-.052-.007-.1-.008-.157s0-.13,0-.2l.018-9.937c0-.066,0-.132,0-.2a3.584,3.584,0,0,1,2.642-3.6,2.185,2.185,0,0,1,.354-.026l65.129.154.006.028c1.007,5.047,3.324,11.97,8.655,17.184C1471.705,1102.135,1471.848,1102.27,1471.992,1102.405Z" transform="translate(-1384.025 -1067.035)" fill="#ffa412"/><path d="M1516.133,1047.333l-.018,9.939a4.178,4.178,0,0,1-.579,2.136,3.494,3.494,0,0,1-1.576,1.431,2.84,2.84,0,0,1-.613.2c-.065.013-.13.025-.195.033l-.109.012c-.035,0-.072.007-.109.008-.059,0-.119.006-.178.006l-138.588-.329a3.6,3.6,0,0,1-3.342-3.641c0-.066,0-.132,0-.2l.018-9.938c0-.066,0-.132,0-.2a3.6,3.6,0,0,1,3.356-3.625l138.588.329a2.922,2.922,0,0,1,.591.063,2.807,2.807,0,0,1,.614.2,3.5,3.5,0,0,1,1.571,1.437A4.184,4.184,0,0,1,1516.133,1047.333Z" transform="translate(-1370.245 -1043.165)" fill="#ffb93e"/><path d="M1448.055,1060.938l-74.247-.176c-1.594,0-2.9-1.625-2.983-3.64,0-.067,0-.132,0-.2l.018-9.938c0-.065,0-.132,0-.2.085-2.015,1.4-3.629,3-3.626l65.129.155c1.029,5.176,3.433,12.328,9.056,17.593Z" transform="translate(-1370.245 -1043.164)" fill="#ffa412"/><g transform="translate(51.039 0.114)"><rect width="17.598" height="1.575" transform="translate(82.996 157.533) rotate(-89.864)" fill="#ffa412"/><rect width="17.598" height="1.575" transform="translate(77.667 157.52) rotate(-89.88)" fill="#ffa412"/><rect width="17.598" height="1.575" transform="matrix(0.002, -1, 1, 0.002, 71.273, 157.505)" fill="#ffa412"/><rect width="17.598" height="1.575" transform="translate(61.47 157.481) rotate(-89.864)" fill="#ffa412"/><rect width="17.598" height="1.575" transform="translate(51.107 157.457) rotate(-89.864)" fill="#ffa412"/><rect width="17.598" height="1.575" transform="translate(35.219 157.419) rotate(-89.864)" fill="#ffa412"/><rect width="17.598" height="1.575" transform="translate(20.346 157.384) rotate(-89.88)" fill="#ffa412"/><rect width="17.598" height="1.575" transform="translate(7.061 157.352) rotate(-89.864)" fill="#ffa412"/><rect width="17.598" height="1.575" transform="translate(88.071 157.544) rotate(-89.864)" fill="#ffa412"/><rect width="17.598" height="1.575" transform="translate(91.427 157.553) rotate(-89.88)" fill="#ffa412"/><rect width="17.598" height="1.575" transform="translate(94.662 157.56) rotate(-89.864)" fill="#ffa412"/><path d="M1718.617,1373.292l-.031,17.6.984,0a2.9,2.9,0,0,0,.592-.06l.032-17.475a2.912,2.912,0,0,0-.591-.063Z" transform="translate(-1621.484 -1233.325)" fill="#ffa412"/><path d="M1723.777,1373.913l-.031,17.082a3.5,3.5,0,0,0,1.576-1.429l.026-14.215A3.5,3.5,0,0,0,1723.777,1373.913Z" transform="translate(-1624.454 -1233.682)" fill="#ffa412"/><rect width="17.598" height="1.575" transform="translate(38.57 139.828) rotate(-89.864)" fill="#ffa412"/><rect width="17.598" height="1.575" transform="matrix(0.002, -1, 1, 0.002, 23.695, 139.793)" fill="#ffa412"/><rect width="17.598" height="1.575" transform="translate(10.412 139.762) rotate(-89.864)" fill="#ffa412"/><path d="M1704.9,1278.56l.032-17.6-1.382,0c.073-.009.147-.019.219-.034l.032-17.475c-.1-.02-.193-.036-.292-.046l.032-17.053h.613l-.031,16.906a3.5,3.5,0,0,0,1.576-1.43l.026-14.215a3.57,3.57,0,0,0-1.248-1.26h.55l.032-17.6-1.575,0-.031,17.211a2.89,2.89,0,0,0-.5-.049l-.984,0-.032,17.6h.292l-.032,17.473.984,0c.06,0,.12-.005.179-.009l-.032,17.581Z" transform="translate(-1611.898 -1138.603)" fill="#ffa412"/><rect width="17.598" height="1.575" transform="translate(94.775 139.962) rotate(-89.864)" fill="#ffa412"/><rect width="17.598" height="1.575" transform="translate(98.011 139.969) rotate(-89.85)" fill="#ffa412"/><path d="M1726.516,1331.836l-.032,17.6.984,0a2.87,2.87,0,0,0,.591-.06l.032-17.475a2.852,2.852,0,0,0-.591-.062Z" transform="translate(-1626.03 -1209.46)" fill="#ffa412"/><path d="M1731.675,1332.457l-.031,17.082a3.493,3.493,0,0,0,1.576-1.429l.026-14.215A3.5,3.5,0,0,0,1731.675,1332.457Z" transform="translate(-1629.001 -1209.817)" fill="#ffa412"/><path d="M1668.762,1284.19l.032-17.6h-.291l.032-17.473-1.575,0-.032,17.6h.292l-.032,17.444-1.536,0-.032,17.6,1.575,0,.032-17.57Z" transform="translate(-1590.991 -1161.839)" fill="#ffa412"/><path d="M1642.937,1266.526h-.292l.032-17.472-1.575,0-.032,17.6h.291l-.032,17.473h.389l-.032,17.57,1.575,0,.031-17.6h-.388Z" transform="translate(-1576.86 -1161.801)" fill="#ffa412"/><path d="M1707.738,1290.991l-.031,17.082a3.494,3.494,0,0,0,1.576-1.429l.026-14.215A3.5,3.5,0,0,0,1707.738,1290.991Z" transform="translate(-1615.221 -1185.946)" fill="#ffa412"/><path d="M1619.581,1249l-1.575,0-.032,17.6h.292l-.032,17.445h-.175l-.032,17.6,1.575,0,.032-17.571h.174l.032-17.6h-.291Z" transform="translate(-1563.564 -1161.77)" fill="#ffa412"/><path d="M1595.157,1248.94l-1.575,0-.032,17.6h.292l-.032,17.472,1.575,0,.032-17.6h-.291Z" transform="translate(-1549.503 -1161.736)" fill="#ffa412"/><path d="M1557.715,1248.851l-1.576,0-.032,17.6h.291l-.032,17.472,1.575,0,.032-17.6h-.291Z" transform="translate(-1527.949 -1161.685)" fill="#ffa412"/><path d="M1522.658,1248.767l-1.575,0-.032,17.6h.292l-.032,17.473,1.575,0,.032-17.6h-.292Z" transform="translate(-1507.767 -1161.637)" fill="#ffa412"/><path d="M1491.354,1248.693l-1.575,0-.032,17.6h.292l-.032,17.473,1.575,0,.032-17.6h-.291Z" transform="translate(-1489.746 -1161.594)" fill="#ffa412"/><path d="M1682.271,1249.147l-1.575,0-.032,17.6h.291l-.032,17.445h-.218l-.032,17.6,1.575,0,.032-17.57h.218l.032-17.6h-.292Z" transform="translate(-1599.653 -1161.856)" fill="#ffa412"/><path d="M1688.5,1225.875l-1.267,0,.031-17.164-1.575,0-.032,17.6,1.268,0-.031,17.164h.291l-.032,17.472,1.575,0,.032-17.6h-.291Z" transform="translate(-1602.524 -1138.576)" fill="#ffa412"/><rect width="17.598" height="1.575" transform="translate(77.791 87.714) rotate(-89.864)" fill="#ffa412"/><path d="M1656.937,1225.8l-.767,0-.032,17.6h.291l-.032,17.472,1.576,0,.032-17.6h-.291l.031-17.038.767,0,.032-17.6-1.575,0Z" transform="translate(-1585.534 -1138.538)" fill="#ffa412"/><rect width="17.598" height="1.575" transform="translate(61.595 87.675) rotate(-89.849)" fill="#ffa412"/><rect width="17.598" height="1.575" transform="translate(51.234 87.651) rotate(-89.864)" fill="#ffa412"/><rect width="17.598" height="1.575" transform="translate(35.346 87.613) rotate(-89.866)" fill="#ffa412"/><rect width="17.598" height="1.575" transform="matrix(0.002, -1, 1, 0.002, 20.473, 87.578)" fill="#ffa412"/><rect width="17.598" height="1.575" transform="translate(7.187 87.546) rotate(-89.864)" fill="#ffa412"/><path d="M1695.1,1225.9h-.57l-.032,17.6h.291l-.032,17.445-1.477,0-.032,17.6,1.575,0,.032-17.571,1.477,0,.032-17.6h-.291l.031-17.038h.57l.032-17.6-1.575,0Z" transform="translate(-1606.899 -1138.592)" fill="#ffa412"/><rect width="17.598" height="1.575" transform="translate(94.789 87.755) rotate(-89.864)" fill="#ffa412"/><path d="M1720.46,1226.322l.033-17.475a2.937,2.937,0,0,0-.592-.063l-.984,0-.032,17.6.985,0A2.863,2.863,0,0,0,1720.46,1226.322Z" transform="translate(-1621.656 -1138.62)" fill="#ffa412"/><path d="M1725.621,1225.054l.026-14.215a3.5,3.5,0,0,0-1.571-1.437l-.031,17.082A3.5,3.5,0,0,0,1725.621,1225.054Z" transform="translate(-1624.626 -1138.977)" fill="#ffa412"/><rect width="17.598" height="1.575" transform="translate(94.481 70.155) rotate(-89.864)" fill="#ffa412"/><rect width="17.598" height="1.575" transform="translate(72.955 70.104) rotate(-89.864)" fill="#ffa412"/><rect width="17.598" height="1.575" transform="translate(62.591 70.079) rotate(-89.864)" fill="#ffa412"/><rect width="17.598" height="1.575" transform="translate(46.704 70.041) rotate(-89.864)" fill="#ffa412"/><rect width="17.598" height="1.575" transform="translate(31.828 70.006) rotate(-89.864)" fill="#ffa412"/><rect width="17.598" height="1.575" transform="translate(18.548 69.975) rotate(-89.88)" fill="#ffa412"/><rect width="17.598" height="1.575" transform="translate(99.556 70.167) rotate(-89.864)" fill="#ffa412"/><rect width="17.598" height="1.575" transform="translate(102.909 70.175) rotate(-89.864)" fill="#ffa412"/><rect width="17.598" height="1.575" transform="matrix(0.002, -1, 1, 0.002, 106.147, 70.182)" fill="#ffa412"/><path d="M1745.684,1167.371l-.032,17.6.984,0a2.914,2.914,0,0,0,.592-.06l.032-17.476a2.943,2.943,0,0,0-.591-.063Z" transform="translate(-1637.065 -1114.781)" fill="#ffa412"/><path d="M1750.844,1167.991l-.031,17.082a3.5,3.5,0,0,0,1.576-1.43l.026-14.215A3.5,3.5,0,0,0,1750.844,1167.991Z" transform="translate(-1640.036 -1115.138)" fill="#ffa412"/><path d="M1667.573,1096.219l1.575,0,.032-17.6-1.537,0,.031-17.165,1.537,0,.032-17.6-1.575,0-.032,17.57-1.537,0-.032,17.6,1.537,0Z" transform="translate(-1591.25 -1043.678)" fill="#ffa412"/><rect width="17.598" height="1.575" transform="translate(70.983 52.528) rotate(-89.849)" fill="#ffa412"/><rect width="17.598" height="1.575" transform="translate(44.428 52.466) rotate(-89.864)" fill="#ffa412"/><rect width="17.598" height="1.575" transform="matrix(0.002, -1, 1, 0.002, 28.541, 52.428)" fill="#ffa412"/><rect width="17.598" height="1.575" transform="translate(13.665 52.392) rotate(-89.864)" fill="#ffa412"/><rect width="17.598" height="1.575" transform="translate(0.382 52.361) rotate(-89.866)" fill="#ffa412"/><path d="M1681.322,1096.247l1.394,0-.032,17.571,1.575,0,.032-17.6-1.395,0,.032-17.57h-.218l.031-17.165h.218l.032-17.6-1.576,0-.032,17.571h-.217l-.032,17.6h.218Z" transform="translate(-1599.924 -1043.694)" fill="#ffa412"/><rect width="17.598" height="1.575" transform="translate(84.751 52.562) rotate(-89.895)" fill="#ffa412"/><path d="M1700.073,1079.1h.278l.032-17.6-1.382,0c.074-.01.147-.019.219-.034l.032-17.475a2.846,2.846,0,0,0-.591-.063l-.984,0-.032,17.6.984,0c.061,0,.12-.005.179-.008l-.031,17.183c-.059,0-.118-.01-.178-.01l-.984,0-.032,17.571-.861,0,.032-17.571-1.477,0,.031-17.165,1.477,0,.032-17.6-1.576,0-.032,17.571-1.477,0-.032,17.6,1.477,0-.031,17.192,1.2,0-.032,17.57,1.575,0,.032-17.571h.647a2.873,2.873,0,0,0,.592-.06l.031-17.131h.613l-.031,16.934a3.5,3.5,0,0,0,1.576-1.43l.026-14.215A3.556,3.556,0,0,0,1700.073,1079.1Z" transform="translate(-1607.157 -1043.715)" fill="#ffa412"/><rect width="17.598" height="1.575" transform="translate(38.763 35.26) rotate(-89.88)" fill="#ffa412"/><rect width="17.598" height="1.575" transform="translate(23.885 35.224) rotate(-89.864)" fill="#ffa412"/><rect width="17.598" height="1.575" transform="translate(10.602 35.193) rotate(-89.864)" fill="#ffa412"/><rect width="17.598" height="1.575" transform="matrix(0.002, -1, 1, 0.002, 94.966, 35.393)" fill="#ffa412"/><rect width="17.598" height="1.575" transform="translate(98.204 35.401) rotate(-89.864)" fill="#ffa412"/><path d="M1726.965,1085.4l-.032,17.6.984,0a2.876,2.876,0,0,0,.591-.06l.032-17.475a2.9,2.9,0,0,0-.591-.063Z" transform="translate(-1626.289 -1067.592)" fill="#ffa412"/><path d="M1733.669,1101.674l.026-14.215a3.505,3.505,0,0,0-1.571-1.437l-.031,17.082A3.5,3.5,0,0,0,1733.669,1101.674Z" transform="translate(-1629.259 -1067.951)" fill="#ffa412"/><rect width="17.598" height="1.575" transform="translate(71.049 17.766) rotate(-89.864)" fill="#ffa412"/><path d="M1643.652,1043.8l-1.576,0-.032,17.6h.388l-.031,17.164h-.389l-.032,17.6,1.575,0,.031-17.192h.389l.032-17.6h-.389Z" transform="translate(-1577.384 -1043.64)" fill="#ffa412"/><path d="M1618.753,1061.308h-.175l-.031,17.6h.174l-.031,17.192,1.575,0,.032-17.6h-.174l.031-17.165h.174l.032-17.6-1.575,0Z" transform="translate(-1563.894 -1043.608)" fill="#ffa412"/><rect width="17.599" height="1.575" transform="translate(44.492 17.703) rotate(-89.864)" fill="#ffa412"/><rect width="17.598" height="1.575" transform="translate(28.604 17.665) rotate(-89.864)" fill="#ffa412"/><rect width="17.598" height="1.575" transform="translate(13.726 17.63) rotate(-89.85)" fill="#ffa412"/><rect width="17.598" height="1.575" transform="matrix(0.002, -1, 1, 0.002, 0.447, 17.598)" fill="#ffa412"/><rect width="17.598" height="1.575" transform="translate(84.807 17.798) rotate(-89.849)" fill="#ffa412"/><path d="M1708.187,1044.557l-.031,17.082a3.5,3.5,0,0,0,1.576-1.43l.026-14.215A3.5,3.5,0,0,0,1708.187,1044.557Z" transform="translate(-1615.479 -1044.08)" fill="#ffa412"/></g></g><g transform="translate(899.865 571.948)"><path d="M1778.094,1155.036l9.785,1.738a4.182,4.182,0,0,1,2,.94,3.5,3.5,0,0,1,1.136,1.8,2.834,2.834,0,0,1,.086.638,2.889,2.889,0,0,1-.043.593l-24.31,136.439a3.6,3.6,0,0,1-4.164,2.662c-.065-.009-.13-.019-.195-.031l-9.786-1.738c-.064-.011-.129-.024-.193-.038a3.6,3.6,0,0,1-2.99-3.933l24.309-136.44c.016-.088.035-.174.059-.258a1.089,1.089,0,0,1,.032-.109c.012-.04.026-.081.041-.119s.021-.056.032-.085a2.862,2.862,0,0,1,.3-.569c.018-.027.035-.052.055-.079s.037-.052.057-.076c.039-.05.08-.1.122-.149.024-.029.05-.057.077-.085s.046-.05.072-.074c.045-.047.091-.091.14-.136s.114-.1.174-.143.093-.072.142-.107a.043.043,0,0,1,.01-.006c.032-.022.066-.046.1-.068a3.4,3.4,0,0,1,.324-.189c.033-.018.066-.035.1-.051l.1-.047c.07-.031.142-.061.213-.088A4.186,4.186,0,0,1,1778.094,1155.036Z" transform="translate(-1749.326 -1154.968)" fill="#ffb93e"/><path d="M1779.64,1318.7l-13.024,73.1c-.28,1.571-2.1,2.58-4.1,2.308-.065-.009-.13-.019-.195-.031l-9.785-1.738c-.064-.011-.129-.024-.193-.037-1.97-.433-3.332-2.008-3.052-3.58l11.424-64.117.444-.013C1766.409,1324.411,1773.648,1323.218,1779.64,1318.7Z" transform="translate(-1749.253 -1249.222)" fill="#ffa412"/><g transform="translate(8.444 0.26)"><rect width="1.575" height="17.598" transform="translate(13.32 17.284) rotate(-79.879)" fill="#ffa412"/><rect width="1.575" height="17.598" transform="matrix(0.175, -0.985, 0.985, 0.175, 12.384, 22.537)" fill="#ffa412"/><rect width="1.575" height="17.598" transform="translate(11.263 28.83) rotate(-79.896)" fill="#ffa412"/><rect width="1.575" height="17.598" transform="translate(9.544 38.479) rotate(-79.896)" fill="#ffa412"/><rect width="1.575" height="17.598" transform="matrix(0.175, -0.985, 0.985, 0.175, 7.726, 48.683)" fill="#ffa412"/><rect width="1.575" height="17.599" transform="translate(4.939 64.323) rotate(-79.894)" fill="#ffa412"/><rect width="1.575" height="17.598" transform="matrix(0.175, -0.985, 0.985, 0.175, 2.33, 78.97)" fill="#ffa412"/><rect width="1.575" height="17.598" transform="translate(0 92.043) rotate(-79.882)" fill="#ffa412"/><rect width="1.575" height="17.598" transform="translate(14.21 12.29) rotate(-79.896)" fill="#ffa412"/><rect width="1.575" height="17.598" transform="translate(14.798 8.989) rotate(-79.894)" fill="#ffa412"/><rect width="1.575" height="17.598" transform="translate(15.366 5.801) rotate(-79.896)" fill="#ffa412"/><path d="M1806.369,1161.523l17.327,3.077.173-.969a2.9,2.9,0,0,0,.044-.593l-17.206-3.056a2.882,2.882,0,0,0-.164.572Z" transform="translate(-1790.577 -1158.114)" fill="#ffa412"/><path d="M1807.873,1156.879l16.819,2.987a3.5,3.5,0,0,0-1.135-1.8l-14-2.486A3.508,3.508,0,0,0,1807.873,1156.879Z" transform="translate(-1791.443 -1155.58)" fill="#ffa412"/></g></g><path d="M2513.376,1406.675h-59.555c-3.191-2.706,2.208-8.855,7.85-9.268a34.764,34.764,0,0,1,9.09,1.076c.82-10.885,5.5-59.819,23.138-57.853,19.833,2.2,0,21.549-5.607,33-4.153,8.485-8.534,20.652-10.536,26.394,1.61.349,3.277.691,4.979,1,2.629-8.071,12.41-35.219,24.848-33.638,14.6,1.852,8.734,12.737-1.616,19.2-7.594,4.752-16.919,11.505-21.35,14.768a63.3,63.3,0,0,0,11.648.932C2506.466,1402.052,2511.446,1405.058,2513.376,1406.675Z" transform="translate(-1254.443 -689.869)" fill="#82b378"/><path d="M733.627,1432.393c-2.366-3.715-9.484-13.359-18.965-12.083-10.33,1.391,11.409,8.2,18.065,12.111a11.056,11.056,0,0,1-3.682-.43c-4.45-1.586-12.07,1.455-14.506,2.522H756.9a6.712,6.712,0,0,0-3.029-3.873c-.7-.425-2.094-.485-3.9-.347,2.519-2.969,4.267-12.454-2.744-10.014-5.122,1.783-5.108,7.579-4.6,11.007-1.09.171-2.2.343-3.287.5-2.109-10.749-9.568-42.25-24.688-43.09-15.327-.852,13,32.67,22.429,43.39C735.867,1432.233,734.7,1432.342,733.627,1432.393Z" transform="translate(-251.222 -717.564)" fill="#82b378"/><g transform="translate(773.035 317.876)"><circle cx="61.001" cy="61.001" r="61.001" transform="translate(0 86.268) rotate(-45)" fill="#e2810e"/><circle cx="61.001" cy="61.001" r="61.001" transform="translate(7.112 132.342) rotate(-75.284)" fill="#ffb93e"/><g transform="translate(26.352 33.865)"><path d="M1568.157,747.183a55.564,55.564,0,1,1,26.737-6.9A55.622,55.622,0,0,1,1568.157,747.183Zm-.168-107.857a52.421,52.421,0,1,0,14.6,2.083A52.5,52.5,0,0,0,1567.988,639.326Z" transform="translate(-1512.459 -636.01)" fill="#ffa412"/></g><g transform="translate(56.342 49.356)"><path d="M1623.238,723.063a9.164,9.164,0,0,0-1.672-2.763,6.705,6.705,0,0,0-2.488-1.688,12.673,12.673,0,0,0-3.552-.791,33.391,33.391,0,0,0-4.846-.032,87.667,87.667,0,0,1-8.911.012,27.659,27.659,0,0,1-7.407-1.343,16.283,16.283,0,0,1-5.817-3.407,18.364,18.364,0,0,1-5.4-12.88,15.432,15.432,0,0,1,1.461-6.269,19.272,19.272,0,0,1,3.983-5.549,25.722,25.722,0,0,1,6.314-4.495l-3.47-8.547,6.879-2.793,3.52,8.666a23.071,23.071,0,0,1,7.5-.766,17.43,17.43,0,0,1,12.182,6.011,23.188,23.188,0,0,1,4.066,6.747l-12.426,5.045q-1.945-4.793-5.039-6.305a7.849,7.849,0,0,0-6.662-.063,9.983,9.983,0,0,0-3.114,1.893,6.76,6.76,0,0,0-1.7,2.411,6.309,6.309,0,0,0-.432,2.759,9.26,9.26,0,0,0,.689,2.93,8.489,8.489,0,0,0,1.516,2.5,6.278,6.278,0,0,0,2.384,1.615,12.671,12.671,0,0,0,3.573.782,42.675,42.675,0,0,0,5.076.1q4.8-.135,8.886.114a28,28,0,0,1,7.4,1.391,15.717,15.717,0,0,1,9.9,9.588,16.785,16.785,0,0,1,1.336,6.808,15.257,15.257,0,0,1-1.5,6.239,18.618,18.618,0,0,1-4.066,5.467,27.785,27.785,0,0,1-6.381,4.452l3.228,7.948-6.837,2.776-3.212-7.908a31.121,31.121,0,0,1-7.532,1.245,19.747,19.747,0,0,1-7.316-1.054,17.664,17.664,0,0,1-6.439-4.016,21.49,21.49,0,0,1-4.888-7.6l12.426-5.045a13.251,13.251,0,0,0,2.717,4.409,8.57,8.57,0,0,0,3.361,2.172,8.314,8.314,0,0,0,3.68.367,14.232,14.232,0,0,0,3.648-.946,11.9,11.9,0,0,0,3.336-1.959,7.919,7.919,0,0,0,1.974-2.477,6.316,6.316,0,0,0,.664-2.805A7.684,7.684,0,0,0,1623.238,723.063Z" transform="translate(-1583.137 -672.517)" fill="#ffa412"/></g></g><g transform="translate(887.243 206.542)"><path d="M1747.609,675.344c-2.552-1.8-8.339-5.766-8.639-4.883a3.885,3.885,0,0,0,.786,2.838c-3.5-1.307-7.054-2.165-15.46-.551a6.3,6.3,0,0,0-4.135,2.722c-.857,1.334-1.177,3,.967,4.336,4.289,2.667,3.046,1.069,9.007,4.953s13.259,4.875,17.619,2.15l5.851-.976.726-9.625S1751,675.911,1747.609,675.344Z" transform="translate(-1719.507 -510.571)" fill="#ffb27d"/><path d="M2098.848,450.1s-13.795,16.366-31.363,9.52c0,0-3.78-9.14-3.833-15.878-.006-.83-.016-1.633-.029-2.4-.094-7.588-.35-11.845-.35-11.845a.069.069,0,0,1,.018,0c.8-.333,26.856-11.031,26.834-10.142C2089.678,439.877,2098.848,450.1,2098.848,450.1Z" transform="translate(-1917.404 -366.058)" fill="#ffb27d"/><path d="M2087.509,430.7c-2.513,4.658-11.135,13.769-23.886,17.1-.094-7.588-.35-11.845-.35-11.845a.069.069,0,0,1,.018,0C2064.012,435.753,2088.256,429.325,2087.509,430.7Z" transform="translate(-1917.404 -372.507)" fill="#ed975d"/><path d="M2044.228,375.958s29.3,6.889,33.313-11.426,10.492-29.76-8.049-34.932-23.717,1.017-26.542,6.8S2036.708,373.694,2044.228,375.958Z" transform="translate(-1903.817 -313.303)" fill="#ffb27d"/><path d="M2063.237,350.041c.4.256,6.7,2.192,18.646-21.595a20.716,20.716,0,0,0-1.218-18.95c-4.369-7.138-19.863-12.75-32.735-15.192s-15.963,4.8-18.993,12.081c-3.183,7.642-12.373,13.933-12.373,13.933,11.1,6.2,24.469-2.668,29.1-1.21s6.267,8.758,6.615,11.1.882,4.284,6.706,2.195,2.634,8.254,1.7,10.231C2060.688,342.632,2059.9,347.9,2063.237,350.041Z" transform="translate(-1890.516 -293.821)" fill="#a9453d"/><g transform="translate(124.685 224.975)"><path d="M2303.694,1443.216h17.744c3.719,0,7.852-3.725,8.887-10.543s8.681-10.543,10.335-16.125-6.822-13.44-6.822-13.44l-1.418-1.821-1.474-1.9-14.055,3.305s-.346,3.347-.563,7.61a97.116,97.116,0,0,0-.058,9.756c.413,7.445-2.085,15.458-8.7,16.906S2303.694,1443.216,2303.694,1443.216Z" transform="translate(-2180.171 -1155.245)" fill="#2c3a64"/><path d="M2013.35,1467.933h47.034a4.257,4.257,0,0,0,1-.29c3.14-1.573,2.157-13.595,1.779-17.309-.073-.688-.124-1.091-.124-1.091s-16.538-13.228-18.814-3.1c-.073.316-.155.627-.243.932v0c-2.871,9.477-15.706,13.782-23.119,14.982C2015.2,1462.983,2013.727,1466.283,2013.35,1467.933Z" transform="translate(-2013.35 -1179.962)" fill="#2c3a64"/><path d="M2035.691,857.588s2.511,31.337,5.463,69.006c4.013,51.171,8.838,114.027,9.315,125.935.825,20.677,4.137,53.75,4.137,53.75s7.851,7.858,23.567,4.546c0,0,14-47.214,18-97.17.062-.818.124-1.643.186-2.468,3.721-50.855,9.508-157.941,9.508-157.941Z" transform="translate(-2026.211 -840.844)" fill="#2b478b"/><path d="M2035.691,857.588s2.511,31.337,5.463,69.006l55.023,87.061c.062-.818.124-1.643.186-2.468,3.721-50.855,9.508-157.941,9.508-157.941Z" transform="translate(-2026.211 -840.844)" fill="#233862"/><path d="M2062.723,844.482S2108,957.975,2137.764,1011.31s39.071,68.219,39.071,68.219,17.056-6.822,18.606-11.473c0,0-11.384-102.967-31.319-128.067-11.264-14.184-24.5-56.746-25.117-71.631s-4.031-44.343-4.031-44.343Z" transform="translate(-2041.773 -824.016)" fill="#2b478b"/></g><g transform="translate(169.691 85.857)"><path d="M2305.559,820.028l.478,7.3s-4.813,12.967,8.675,19.618c0,0,5.773,2.329,6.008-2.166s-.505-2.8-.035-9.133-2.019-12.311-6.205-14.326l-3.436-3.964Z" transform="translate(-2226.368 -681.065)" fill="#ffb27d"/><path d="M2203.874,640.437c-5.012,1.609-5.814,1.245-5.814,1.245s-24.39-44.4-26.861-48.47-51.784-49.795-51.784-49.795l12.673-47.258s56.089,72.632,62.146,83.054c10.008,17.222,15.873,57.221,15.873,57.221A14.671,14.671,0,0,1,2203.874,640.437Z" transform="translate(-2119.415 -496.16)" fill="#ef7c1f"/></g><path d="M2013.088,547.635c.176,9.7.74,20.615,1.5,31.7q.07.986.139,1.971c.487,6.864,1.015,13.745,1.62,20.454.243,2.69.5,5.349.771,7.961l.042.352c.021.977.14,2.038.248,3.005,2.473,25.131,5.064,44.985,5.545,45.291a2.821,2.821,0,0,0,1.929.491c6.591-.828,26.253.667,42.352-2.835,13.585-2.866,25.281-8.3,37.676-15.623,1.645-.973,5.4-3.549,5.09-5.473-.3-2.116-.854-5.173-1.558-9.016-2.442-13.368-6.657-36.362-8.1-63.272q-.419-7.519-1.216-14.831a225.148,225.148,0,0,0-6.564-35.421c-5.52-19.875-13.631-35.094-23.807-41.048-1.33-.745-8.484,3.808-15.054,8.023a29,29,0,0,1-18.669,4.423l-5.469,6.047c-6.622,7.7-13.672,17.945-15.6,32.513q-.217,1.614-.373,3.434A213.78,213.78,0,0,0,2013.088,547.635Z" transform="translate(-1888.481 -395.966)" fill="#f8af34"/><path d="M2013.088,606.467c.176,9.7.74,20.615,1.5,31.7q.07.986.139,1.971c37.645-23.564,43.444-66.681,43.444-66.681-18.52.812-33.232,5.07-44.571,11.158A213.779,213.779,0,0,0,2013.088,606.467Z" transform="translate(-1888.481 -454.798)" fill="#ef7c1f"/><path d="M1788.962,590.239c-.388-5.584,2.5-6.513,2.5-6.513s56.759-10.286,61.584-11.8,46.083-44.437,46.083-44.437,15.814-17.835,28.763-13.9c11.252,3.423,15.651,12.2,17.148,20.561a24.631,24.631,0,0,1-11.438,25.283c-19.37,11.88-58.148,35.288-67.28,37.966-20.326,5.96-74.938.478-74.938.478A17.622,17.622,0,0,1,1788.962,590.239Z" transform="translate(-1759.47 -420.009)" fill="#f8af34"/></g><path d="M1590.8,867.726V1078.7a22.442,22.442,0,0,1-22.373,22.377H1351.566a22.775,22.775,0,0,1-15.4-6,23.053,23.053,0,0,1-4.9-6.365c-.067-.129-.132-.257-.2-.388a22.548,22.548,0,0,1-2.32-8.547c-.04-.52-.057-1.044-.057-1.575V869.079a34.622,34.622,0,0,1,16.09-29.148l.026-.014a29.982,29.982,0,0,0,12.434-34.249h205.009a29.977,29.977,0,0,0,11.419,33.568s0,0,.007,0c.517.36,1.045.706,1.582,1.03l0,0A32.175,32.175,0,0,1,1590.8,867.726Z" transform="translate(-607.282 -381.937)" fill="#ed9f4a" opacity="0.2"/><path d="M1755.468,867.726V1078.7a22.45,22.45,0,0,1-20.794,22.32c-.521.04-1.048.057-1.579.057H1637.6a22.939,22.939,0,0,1-22.872-22.872V869.079a34.624,34.624,0,0,1,16.091-29.148,29.973,29.973,0,0,0,12.463-34.263h83.633a29.98,29.98,0,0,0,13.011,34.6A32.175,32.175,0,0,1,1755.468,867.726Z" transform="translate(-771.948 -381.937)" fill="#ed9f4a" opacity="0.2"/><path d="M1595.535,839.236c-6.7-4.009-35.706-18.222-109.477-17.62-84.5.692-118.348,17.769-119.384,18.3a29.982,29.982,0,0,0,12.434-34.249h205.009a29.976,29.976,0,0,0,11.419,33.568Z" transform="translate(-629.146 -381.937)" fill="#ed9f4a" opacity="0.6"/><path d="M1599.328,799.865v9.569a1.716,1.716,0,0,1-1.711,1.714H1386.746a1.717,1.717,0,0,1-1.714-1.714v-9.569a1.72,1.72,0,0,1,1.714-1.714h210.871A1.719,1.719,0,0,1,1599.328,799.865Z" transform="translate(-639.715 -377.61)" fill="#2b478b"/><path d="M1777.125,799.865v9.569a1.716,1.716,0,0,1-1.71,1.714H1695.6a1.72,1.72,0,0,1-1.714-1.714v-9.569a1.722,1.722,0,0,1,1.714-1.714h79.819A1.718,1.718,0,0,1,1777.125,799.865Z" transform="translate(-817.512 -377.61)" fill="#233862"/><g transform="translate(748.066 459.276)"><path d="M1523.86,899.8s-5.436,7.652-10.418,7.758-12.563-3.547-12.563-3.547-4.576-10.2-1.472-14.186a6.661,6.661,0,0,1,6.366,1.046,9.76,9.76,0,0,1,1.685,1.613,5.342,5.342,0,0,0,2.615,1.773c3.556,1.082,7.776-1.463,9.354.993a16.694,16.694,0,0,0,2.749,3.254A12.55,12.55,0,0,0,1523.86,899.8Z" transform="translate(-1453.003 -889.436)" fill="#f9ddbf"/><path d="M1391.512,979.569s19.211-46.548,53.789-47.434c0,0,31.919,3.546,33.693,47.434Z" transform="translate(-1391.512 -914.017)" fill="#f9ddbf"/><path d="M1495.859,927.31s13.86,3.082,18.136,1.27c0,0,.646-5.8-5.19-4.982-4,.556-6.6-1.364-8.128-2.143C1498.511,920.354,1495.284,924.886,1495.859,927.31Z" transform="translate(-1451.543 -907.771)" fill="#f1a34f"/><path d="M1519.482,902.182c-.887.665-3.609-9.372-3.609-9.372a9.744,9.744,0,0,1,1.685,1.613,5.345,5.345,0,0,0,2.615,1.773C1520.182,896.489,1520.342,901.534,1519.482,902.182Z" transform="translate(-1463.104 -891.378)" fill="#e5c1a1"/><path d="M1544.26,906.386c-.2.115-6.605,3.954-7.474,3.954-.887,0,4.725-7.208,4.725-7.208A16.7,16.7,0,0,0,1544.26,906.386Z" transform="translate(-1475.088 -897.321)" fill="#e5c1a1"/><path d="M1435.731,985.2c-.355-.3,13.595-20.54,17.437-20.688s12.474,4.433,18.724,5.024,12.308-1.182,13.49,2.512,4.434,16.792,2.439,18.888S1443.4,991.758,1435.731,985.2Z" transform="translate(-1416.964 -932.656)" fill="#e5c1a1"/></g><g transform="translate(392.65 309.646)"><path d="M1358.583,1254.981c-1.112.584-2.231,1.137-3.358,1.671-1.073.62-2.163,1.229-3.275,1.81a89.368,89.368,0,0,1-15.784,6.462,23.052,23.052,0,0,1-4.9-6.365c-.855.456-1.71.894-2.573,1.322V1100.7a90.558,90.558,0,0,1,11.693,2.352c21.5,5.812,40.656,19.494,52.3,39.619C1415.825,1182.656,1400.554,1232.938,1358.583,1254.981Z" transform="translate(-999.932 -861.428)" fill="#e2810e" opacity="0.5"/><g transform="translate(203.764 230.073)"><path d="M1212.538,1123.918a86.782,86.782,0,1,0-34.1,117.894A86.781,86.781,0,0,0,1212.538,1123.918Z" transform="translate(-1043.11 -1079.015)" fill="#e2810e"/><path d="M1166.068,1248.534q-1.6.978-3.261,1.892c-.374.207-.748.41-1.122.606-.855.456-1.711.894-2.573,1.322a86.783,86.783,0,0,1-80.094-153.929c1.112-.613,2.234-1.2,3.36-1.756,1.094-.546,2.2-1.066,3.308-1.558a86.661,86.661,0,0,1,26.048-7,86.8,86.8,0,0,1,54.334,160.426Z" transform="translate(-1034.114 -1083.973)" fill="#ffb93e"/><g transform="translate(8.19 12.247)"><path d="M1132.632,1266.085a79.4,79.4,0,0,1-22.085-3.15,78.591,78.591,0,1,1,22.085,3.15Zm-65.226-43.211a74.35,74.35,0,1,0-6.309-56.555A73.861,73.861,0,0,0,1067.406,1222.875Z" transform="translate(-1053.415 -1107.877)" fill="#ffa412"/></g><g transform="translate(50.855 34.285)"><path d="M1228.643,1224.433c-.171-.428-.353-.841-.538-1.248a22.776,22.776,0,0,0-5.264-7.519,23.514,23.514,0,0,0-8.286-4.875,39.661,39.661,0,0,0-10.528-1.978q-5.811-.358-12.644-.164a60.987,60.987,0,0,1-7.22-.146,18.1,18.1,0,0,1-5.082-1.112,8.913,8.913,0,0,1-3.393-2.3,12.1,12.1,0,0,1-2.156-3.557,13.205,13.205,0,0,1-.981-4.17,8.957,8.957,0,0,1,.618-3.923,9.593,9.593,0,0,1,2.419-3.428,14.143,14.143,0,0,1,4.426-2.694,11.169,11.169,0,0,1,9.48.089q4.4,2.154,7.167,8.97l17.68-7.177a33.059,33.059,0,0,0-5.788-9.6,24.8,24.8,0,0,0-17.331-8.55,32.745,32.745,0,0,0-10.67,1.091l-5.007-12.331-9.786,3.973,4.936,12.16a36.691,36.691,0,0,0-8.984,6.393,27.45,27.45,0,0,0-5.663,7.894,22,22,0,0,0-2.081,8.92,26.127,26.127,0,0,0,7.691,18.322,23.144,23.144,0,0,0,8.275,4.847,39.175,39.175,0,0,0,10.534,1.91,124.759,124.759,0,0,0,12.677-.014,46.81,46.81,0,0,1,6.9.046,17.982,17.982,0,0,1,5.054,1.123,9.559,9.559,0,0,1,3.539,2.4,13.016,13.016,0,0,1,2.38,3.931,10.9,10.9,0,0,1,.845,4.191,8.935,8.935,0,0,1-.944,3.992,11.274,11.274,0,0,1-2.808,3.524,16.951,16.951,0,0,1-4.747,2.787,20.42,20.42,0,0,1-5.189,1.347,11.843,11.843,0,0,1-5.235-.524,12.175,12.175,0,0,1-4.779-3.09,18.778,18.778,0,0,1-3.867-6.273l-17.676,7.178a30.518,30.518,0,0,0,6.953,10.809,25.1,25.1,0,0,0,9.159,5.713,28.018,28.018,0,0,0,10.407,1.5,44.164,44.164,0,0,0,10.72-1.771l4.565,11.251,9.726-3.949-4.59-11.3a39.5,39.5,0,0,0,9.077-6.336,26.8,26.8,0,0,0,5.478-7.153c.106-.207.21-.414.31-.624a21.75,21.75,0,0,0,2.131-8.874A23.886,23.886,0,0,0,1228.643,1224.433Z" transform="translate(-1153.962 -1159.814)" fill="#ffa412"/></g></g><g transform="translate(0 0)"><path d="M1043.894,571.788c.265-1.063-23.115,10.566-24.3,11.881-10.964,12.163-7.838,28.034-1.564,28.187,4.023.1,3.244,6.788,3.244,6.788L1066.1,599.68S1060.7,568.207,1043.894,571.788Z" transform="translate(-817.812 -556.781)" fill="#2c3a64"/><path d="M1014.882,554.268s1.6-17.462-17.909-17.462c0,0,5.912,1.6,8.971,4.811,0,0-12.445-7.306-25.987,3.919s-5.128,39.381-9.246,44.726-20.156,6.415-18.2,23.7,50.9,38.933,47.755,53.234c0,0,19.178-28.192,5.464-41.058,0,0,6.684,6.3,7.366,13.78,0,0,1.814-14.612-7.484-19.285-8.229-4.136-14.968-19.262-14.255-21.965S1014.882,554.268,1014.882,554.268Z" transform="translate(-783.281 -536.806)" fill="#2c3a64"/><path d="M1012,752.689c-3.009-14.488-21.794-18.98-30.683-7.149a15.7,15.7,0,0,0-3.09,7.612c-2.029,16.446,24.266,83.43,28.031,89.5,6.856,11.043,47.225,48.893,47.225,48.893l7.44-4.509s-28.634-48.475-33.067-53.011C1022.727,828.774,1017.71,780.2,1012,752.689Z" transform="translate(-798.113 -653.072)" fill="#ed985f"/><path d="M1149.061,1079.144s10.858-7.129,14.969-6.671,16.008,3.883,16.152,5.632-13.256,2.84-14.155,3.8-10,7.031-13.3,5.126S1149.061,1079.144,1149.061,1079.144Z" transform="translate(-896.523 -845.164)" fill="#ed985f"/><path d="M820.669,1135.689l-9.7-1.425s-32.616-25.92-37.473-74.284a86.458,86.458,0,0,1-.232-14.954,2.619,2.619,0,0,0-.339-1.65s0-.007-.011-.014c-1.044-1.6-3.643-5.61-7.16-11.312-3.467-5.617-9.4-16.237-15.93-28.154-11.761-21.461-25.453-47.128-30.15-55.3-14.964-26.055-7.752-43.575-7.752-43.575s41.747-4.127,53.187-14.134l4.12,6.351s9.045,40.043,8.618,40.228q.667,2.043,1.357,4.159c7.138,22.032,15.349,49.569,19.826,72,2.515,12.619,3.849,23.614,3.132,31.1a54.542,54.542,0,0,0,.737,11.394C806.941,1084.855,820.669,1135.689,820.669,1135.689Z" transform="translate(-643.872 -740.639)" fill="#2b478b"/><path d="M963.308,1466.187H922.837s-.971-6.168,1.143-10.847c2.025-4.49,4.913-4.633.369-11.672,2.572,2.648,10.838,3.743,16.69,2.956.717,1.162,4.622,8.96,7.016,10.68C950.7,1459.2,962.494,1458.528,963.308,1466.187Z" transform="translate(-766.163 -1058.864)" fill="#233862"/><path d="M779.2,941.621c-3.535,19.5-11.886,51.946-29.38,62.274-11.761-21.461-25.453-47.128-30.15-55.3-14.964-26.055-7.752-43.575-7.752-43.575s41.747-4.127,53.187-14.134l4.12,6.351s9.045,40.043,8.618,40.228Q778.514,939.5,779.2,941.621Z" transform="translate(-643.872 -740.639)" fill="#233862"/><path d="M1017.746,750.391s5.722,5.95,8.335,13.078c0,0-9.128,26.213-30.462,29.5C995.62,792.969,1012.5,750.38,1017.746,750.391Z" transform="translate(-808.19 -659.762)" fill="#ef7c1f"/><path d="M668.133,896.57l.137-7.57c-15.081,1.9-52-18.021-52-18.021s-15.778,10.494-17.937,40.462c-1.054,14.627-7.724,76.488-8.461,94.959-.269,6.695-.359,11.473-.389,13.382a.045.045,0,0,1,0,.019,2.631,2.631,0,0,1-.641,1.558,86.4,86.4,0,0,0-8.172,12.526C557.661,1076.7,569.7,1134.878,569.7,1134.878l5.344-1.358s19.457-60.311,32.174-86.4a54.662,54.662,0,0,1,5.76-9.859c4.782-5.807,9.823-15.67,14.794-27.54,9.395-22.441,18.515-52.052,25.02-74.98C653.246,934.825,668.133,896.57,668.133,896.57Z" transform="translate(-561.185 -729.181)" fill="#2b478b"/><path d="M995.291,733.409c-24.654-5.658-8.9-40.3-7.475-39.692,3.416-.7,10.918-6.694,17.629-18.408l.907.786,15.142,13.276s-3.5,5.163-6.445,10.22c-2.3,3.959-4.256,7.861-3.946,9.2C1012.322,709.75,1001.867,734.92,995.291,733.409Z" transform="translate(-800.09 -616.539)" fill="#ffb27d"/><path d="M1054.763,690.446s-3.5,5.157-6.445,10.22c-9.414-5.8-9.425-17.459-8.7-23.5Z" transform="translate(-833.358 -617.61)" fill="#ed985f"/><path d="M1054.33,660.375s-22.858-12.72-14.718-26.833,10.672-25.26,25.611-17.736,14.643,14.531,13.072,19.9S1060.487,663.32,1054.33,660.375Z" transform="translate(-832.506 -580.89)" fill="#ffb27d"/><path d="M1078.9,624.884c-1.047-6.266-4.23-6.865-6.45-6.446-8.443-13.96-22.234-8.512-22.234-8.512a31.126,31.126,0,0,1-18.017,10.822s2.653,4.935,13.582,7.991c3.338.933,7.128.368,10.782-.863a61.027,61.027,0,0,1-15.512,5.848c14.4,1.318,28.106-11.849,29.528-13.258.664,2.04,1.829,6.312,1.132,9.436-.948,4.244-4.716,11.932-2.416,12.927C1069.292,642.828,1080.466,634.281,1078.9,624.884Z" transform="translate(-829.246 -578.296)" fill="#2c3a64"/><path d="M594.6,1465.791H554.129s-.97-6.168,1.144-10.847c2.026-4.49,5.2-6.531,4.438-11.964,2.571,2.649,6.763,5.613,12.613,4.826.717,1.162,4.628,7.382,7.023,9.1C581.992,1458.808,593.786,1458.131,594.6,1465.791Z" transform="translate(-553.907 -1058.467)" fill="#233862"/><path d="M826.742,776.775c-5.207,1.817-12.517,2.812-19.994,3.624-10.642,1.162-21.629,1.956-27.385,4.252-2.1.837-3.5,1.871-3.942,3.192-2.495,7.5-13.489,19.077-13.489,19.077-70.471-3.208-78.208-32.684-78.208-32.684,47.413-55.132,127.692-71.091,127.692-71.091s5.734-2.431,20.174,9.045c9.637,7.662,8.369,10.6,8.369,10.6S842.067,771.429,826.742,776.775Z" transform="translate(-628.641 -632.44)" fill="#f8af34"/><path d="M936.19,807.719c-10.641,1.162-21.629,1.957-27.384,4.252-2.352-35.147,14.234-61.583,14.234-61.583S933.859,794.419,936.19,807.719Z" transform="translate(-758.082 -659.76)" fill="#ef7c1f"/><path d="M960.22,734.362s-26.671,2.635-28.81,19.965,25.571,87.917,29.539,94.309c7.224,11.636,49.764,51.522,49.764,51.522l7.84-4.751s-30.174-51.081-34.846-55.862C976.374,832.04,969.251,740.365,960.22,734.362Z" transform="translate(-771.159 -650.534)" fill="#ffb27d"/><path d="M925.8,759.119c.07.394,24.614,8.018,40.41,0,0,0,3.381-36.445-15.477-34.467s-30.025,7.917-30.5,16.945S925.8,759.119,925.8,759.119Z" transform="translate(-764.774 -644.9)" fill="#f8af34"/><path d="M1112.749,1100.922s9.568-8.786,13.7-9,16.424,1.252,16.849,2.955-12.625,4.939-13.359,6.028-8.735,8.55-12.3,7.2S1112.749,1100.922,1112.749,1100.922Z" transform="translate(-875.619 -856.364)" fill="#ffb27d"/></g></g><path d="M1.458,0H1097.235a1.457,1.457,0,0,1,1.457,1.457v0a1.457,1.457,0,0,1-1.457,1.457H1.457A1.457,1.457,0,0,1,0,1.458v0A1.458,1.458,0,0,1,1.458,0Z" transform="translate(273.789 716.807)" fill="#2e3552"/></g></g></svg>