<svg xmlns="http://www.w3.org/2000/svg" width="411.5" height="281.689" viewBox="0 0 411.5 281.689">
  <g id="Groupe_1217" data-name="Groupe 1217" transform="translate(-836.5 -1681)">
    <path id="Tracé_673" data-name="Tracé 673" d="M621.552,550s55.915-64.09,16.707-123.875c-14.63-22.308-51.981-34.835-86.315-24.673-20.28,6-51.037,5.117-81.09-47.795-40.984-72.158-211.114-39.347-177.905,87.077,13.988,53.253-38.149,55.677-12.324,109.379Z" transform="translate(594.077 1412.07)" fill="#f8af34" opacity="0.1"/>
    <g id="Groupe_245" data-name="Groupe 245" transform="translate(972.171 1681)">
      <path id="Tracé_606" data-name="Tracé 606" d="M1866.018,599.09s-4.267-7.583,0-9.126,6.2-.12,6.4,1.607-1.625,8.535-1.625,8.535Z" transform="translate(-1737.387 -571.523)" fill="#ffb27d"/>
      <path id="Tracé_607" data-name="Tracé 607" d="M1686.245,673.419a137.994,137.994,0,0,1-21.39,2.2,119.272,119.272,0,0,1-16.441-.74q-1.939-.222-3.727-.5c-12.6-1.91-19.552-5.3-19.552-5.3s11.51-24.092,20.806-23.168c10.908,1.087,29.392,10.876,31.229,8.13,2.068-3.093,3.8-29.618,3.8-29.618,4.836-3.312,7.724.179,7.724.179S1698.14,671.273,1686.245,673.419Z" transform="translate(-1554.193 -597.352)" fill="#f99746"/>
      <path id="Tracé_608" data-name="Tracé 608" d="M1753.259,795.493a137.988,137.988,0,0,1-21.39,2.2,119.275,119.275,0,0,1-16.441-.74c-2.9-9.23-4.989-18.656.848-12.973C1726.572,794,1753.259,795.493,1753.259,795.493Z" transform="translate(-1621.207 -719.426)" fill="#ed7d2b"/>
      <path id="Tracé_609" data-name="Tracé 609" d="M1620.843,1660.01s-.828,9.577,1.2,10.574l25.91-.053s0-2.99-4.162-3.655-11.473-3.1-12.71-8.528S1620.843,1660.01,1620.843,1660.01Z" transform="translate(-1550.775 -1389.421)" fill="#ffb27d"/>
      <path id="Tracé_610" data-name="Tracé 610" d="M1594.71,1077.15c-.128,6.263-.429,12.723-1.018,18.528-2.8,27.548-3.782,60.834-4.184,67.251-.7,11.14-2.9,28.937-2.9,28.937s-4.365,4.144-12.873,2.166c0,0-7.049-25.632-8.624-52.622-.025-.443-.049-.888-.071-1.333-.183-3.568-.374-7.649-.569-12.048-1.3-29.469-2.7-73.246-2.7-73.246l32.513-7.635S1595.029,1061.537,1594.71,1077.15Z" transform="translate(-1505.62 -922.478)" fill="#2a4e96"/>
      <path id="Tracé_611" data-name="Tracé 611" d="M1594.71,1077.15c-8.24,14.216-23.946,40.407-30.237,50.879-1.3-29.469-2.7-73.246-2.7-73.246l32.513-7.635S1595.029,1061.537,1594.71,1077.15Z" transform="translate(-1505.62 -922.478)" fill="#233862"/>
      <path id="Tracé_612" data-name="Tracé 612" d="M1328.03,1057.7s-5.29,6.222-5.766,7.947-1.323,7.941-.87,9.808,3.972-5.208,5.251-5.964-.96,2.814-.523,3.41,2.964-2.084,3.949-2.99.888-5.786,2.071-8.672S1328.03,1057.7,1328.03,1057.7Z" transform="translate(-1321.264 -930.565)" fill="#ffb27d"/>
      <path id="Tracé_613" data-name="Tracé 613" d="M1332.358,1619.011s-4.611,4.208-3.712,7.2,5.061,4.983,5.624,8.638,2.812,5.648,4.837,5.648h9.652s1.49-2.572-2.109-3.347-4.956-5.07-4.732-9.057a70.252,70.252,0,0,0-.337-9.3l-7.648-1.772Z" transform="translate(-1326.833 -1359.307)" fill="#ffb27d"/>
      <path id="Tracé_614" data-name="Tracé 614" d="M1422.94,1050.217s-30.436,65.121-46.632,93.694-21.258,36.547-21.258,36.547-9.279-3.655-10.123-6.147c0,0,6.194-55.162,17.04-68.609,6.129-7.6,13.328-30.4,13.666-38.375s7.448-27.006,7.448-27.006Z" transform="translate(-1339.403 -917.246)" fill="#2a4e96"/>
      <path id="Tracé_615" data-name="Tracé 615" d="M1538.816,785.708a52.746,52.746,0,0,1-29.234,7.341c-7.518-.328-22.43-2.46-24.837-8.439-.565-1.4-.151-3.185.7-5.92,2.2-7.107,7.328-20.64,5.78-50.646a49.244,49.244,0,0,1,.2-7.874c1.613-14.78,10.084-23.533,18.271-26.393,19.966-6.978,26.621,2.69,26.621,2.69s8.826,6.992,10.156,21.584C1549.129,747.238,1538.816,785.708,1538.816,785.708Z" transform="translate(-1446.38 -649.665)" fill="#f99746"/>
      <path id="Tracé_616" data-name="Tracé 616" d="M1617.52,634.174s9.161,5.572,19.1,4c0,0,1.964-.5,1-2.806a29.486,29.486,0,0,0,.882-3.077,46.424,46.424,0,0,0,1.138-5.02L1634,621.342l-5.341-5.664C1627.181,629.215,1617.52,634.174,1617.52,634.174Z" transform="translate(-1548.356 -591.739)" fill="#ffb27d"/>
      <path id="Tracé_617" data-name="Tracé 617" d="M1661.557,637.668s3.069,8.2,10.7,11.476c.872-3.183,1.438-6.513,1.438-6.513l-5.939-4.433Z" transform="translate(-1582.113 -608.595)" fill="#ed985f"/>
      <path id="Tracé_618" data-name="Tracé 618" d="M1673.5,570.226s-17.487,2.186-18.715-8.56-4.311-17.7,6.8-19.551,13.754,2.013,15.05,5.5S1678.02,569.38,1673.5,570.226Z" transform="translate(-1575.897 -534.982)" fill="#ffb27d"/>
      <path id="Tracé_619" data-name="Tracé 619" d="M1631.216,518.523c-.151-.187-.51-.347-1.318-.421a3.289,3.289,0,0,1,1.529-.369c.212-1.12.886-3.09,2.843-3.5a2.431,2.431,0,0,0-1.244,1.708c2.332-2.22,7.205-3.717,20.485-2.162,17.5,2.049,11.291,13.069,8.968,14.323s-7.9-2.635-12.151-2.459-5.283,6.264-6.751,7.049-.847-.678-2.757-1.63-2.217,2.262-1.735,4.376-2.292,4.776-2.292,4.776L1634.2,537.2c-2.589-3.008-4.667-15.413-3.341-17.991C1630.98,518.985,1631.1,518.754,1631.216,518.523Z" transform="translate(-1557.845 -513.137)" fill="#1e1e1e"/>
      <g id="Groupe_244" data-name="Groupe 244" transform="translate(95.415 8.643)">
        <path id="Tracé_620" data-name="Tracé 620" d="M1766.158,588.347l-29.687.264-.2-4.466,29.595-2.294Z" transform="translate(-1734.797 -574.453)" fill="#2a4e96"/>
        <path id="Tracé_621" data-name="Tracé 621" d="M1852.951,579.541l-32.322.467-.369-8.12,32.23-2.5Z" transform="translate(-1799.18 -564.901)" fill="#2a4e96"/>
        <path id="Tracé_622" data-name="Tracé 622" d="M1962.514,571.607l-27.256.034-.5-10.962,27.146-2.47Z" transform="translate(-1886.948 -556.329)" fill="#233862"/>
        <path id="Tracé_623" data-name="Tracé 623" d="M2047.978,567.286h0a1.524,1.524,0,0,0,1.453-1.591l-.64-14.081a1.524,1.524,0,0,0-1.592-1.453h0a1.524,1.524,0,0,0-1.453,1.592l.639,14.081A1.525,1.525,0,0,0,2047.978,567.286Z" transform="translate(-1972.023 -550.158)" fill="#233862"/>
        <path id="Tracé_624" data-name="Tracé 624" d="M1731.547,594h0a1.355,1.355,0,0,1-1.415-1.292l-.166-3.654a1.355,1.355,0,0,1,1.292-1.415h0a1.355,1.355,0,0,1,1.415,1.292l.166,3.654A1.355,1.355,0,0,1,1731.547,594Z" transform="translate(-1729.965 -578.889)" fill="#2a4e96"/>
      </g>
      <path id="Tracé_625" data-name="Tracé 625" d="M1488.582,873.552c2.2-7.107,7.328-20.64,5.78-50.646a49.243,49.243,0,0,1,.2-7.874h0c6.57-.565,16.615,6.539,16.615,6.539S1504.994,859.282,1488.582,873.552Z" transform="translate(-1449.52 -744.527)" fill="#ed7d2b"/>
      <path id="Tracé_626" data-name="Tracé 626" d="M1405.674,694.905s-16.848,2.9-25.636,13.624-22.923,25.854-26.265,31.151-12.62,41.345-12.62,41.345.612,1.159,3.171,1.834a6.034,6.034,0,0,0,4.226-.356s12.292-21.037,16.918-31.546c1.922-4.366,35.164-21.658,47.661-19.867C1418.038,731.793,1405.674,694.905,1405.674,694.905Z" transform="translate(-1336.511 -652.47)" fill="#f99746"/>
      <path id="Tracé_627" data-name="Tracé 627" d="M1863.541,572.463s3.624,2.217,5.791,1.279,1.976-1.8,1.976-1.8S1864.76,570.128,1863.541,572.463Z" transform="translate(-1736.942 -557.7)" fill="#ffb27d"/>
      <path id="Tracé_628" data-name="Tracé 628" d="M1472.259,742.534s-7.394,46.681-59.854,60.272l-5.714,11.275,10.039,1.7s59.725-17.3,58.92-74.071Z" transform="translate(-1386.747 -688.347)" fill="#e8491c"/>
      <path id="Tracé_629" data-name="Tracé 629" d="M1674.688,713.329l-2.421.237v3.505l3.568,3.709,3.392-.825V715.09l-2.438-1.761Z" transform="translate(-1590.322 -666.593)" fill="#e8491c"/>
      <path id="Tracé_630" data-name="Tracé 630" d="M1616.647,673.566s-2.344.529-7.7,4.982c0,0,5.329,11.312,16.573,12.667a37.582,37.582,0,0,1,.631-8.366S1617.237,679.659,1616.647,673.566Z" transform="translate(-1541.782 -636.112)" fill="#ef7c1f"/>
      <path id="Tracé_631" data-name="Tracé 631" d="M1682.639,703.116s5.487,2.913,5.893,7.451c0,0,2.1-3.323,1.489-5.624a18.748,18.748,0,0,0-2.489-4.938S1687.719,702.777,1682.639,703.116Z" transform="translate(-1598.273 -656.379)" fill="#ed7d2b"/>
    </g>
    <path id="Ligne_74" data-name="Ligne 74" d="M411.5.5H0v-1H411.5Z" transform="translate(836.5 1962.189)" fill="#393c3e"/>
  </g>
</svg>
