<svg xmlns="http://www.w3.org/2000/svg" width="27.724" height="37" viewBox="0 0 27.724 37"><g transform="translate(299.379 -216.73)"><path d="M-252.672,216.73a10.371,10.371,0,0,0-10.36,10.36v5.072a.626.626,0,0,0,.626.626h3.473a.626.626,0,0,0,.626-.626V227.09a5.641,5.641,0,0,1,5.635-5.635,5.642,5.642,0,0,1,5.635,5.635v5.072a.626.626,0,0,0,.626.626h3.473a.626.626,0,0,0,.626-.626V227.09a10.371,10.371,0,0,0-10.359-10.36Zm9.108,14.807h-2.222V227.09a6.894,6.894,0,0,0-6.886-6.886,6.894,6.894,0,0,0-6.886,6.886v4.447h-2.222V227.09a9.118,9.118,0,0,1,9.108-9.109,9.119,9.119,0,0,1,9.108,9.109Zm0,0" transform="translate(-32.845)" fill="#e8491c"/><path d="M-274.343,370.4h-22.349a2.69,2.69,0,0,0-2.687,2.687V389.9a2.69,2.69,0,0,0,2.687,2.687h22.349a2.69,2.69,0,0,0,2.687-2.687V373.085a2.69,2.69,0,0,0-2.687-2.687Zm1.436,19.506a1.438,1.438,0,0,1-1.436,1.436h-22.349a1.438,1.438,0,0,1-1.436-1.436V373.085a1.438,1.438,0,0,1,1.436-1.436h22.349a1.438,1.438,0,0,1,1.436,1.436Zm0,0" transform="translate(0 -138.862)" fill="#e8491c"/><path d="M-183.985,440.2a3.236,3.236,0,0,0,1.156-2.483,3.264,3.264,0,0,0-3.26-3.26,3.263,3.263,0,0,0-3.26,3.26,3.236,3.236,0,0,0,1.156,2.483l-.7,3.351a.626.626,0,0,0,.127.523.625.625,0,0,0,.486.232h4.389a.626.626,0,0,0,.486-.232.626.626,0,0,0,.127-.523Zm-1.03-.792a.626.626,0,0,0-.276.656l.627,2.989h-2.848l.627-2.989a.626.626,0,0,0-.276-.656,2,2,0,0,1-.936-1.691,2.011,2.011,0,0,1,2.009-2.009,2.011,2.011,0,0,1,2.009,2.009,2,2,0,0,1-.936,1.691Zm0,0" transform="translate(-99.429 -196.751)" fill="#e8491c"/></g></svg>