<svg xmlns="http://www.w3.org/2000/svg" width="40.217" height="30.225" viewBox="0 0 40.217 30.225"><g transform="translate(-38 -226.89)"><path d="M42.566,257.115H73.651a4.571,4.571,0,0,0,4.566-4.566V231.456a4.571,4.571,0,0,0-4.566-4.566H42.566A4.571,4.571,0,0,0,38,231.456v21.093a4.571,4.571,0,0,0,4.566,4.566Zm0-1.36a3.185,3.185,0,0,1-1.941-.657l9.3-9.509a.68.68,0,1,0-.973-.95l-9.21,9.42a3.191,3.191,0,0,1-.379-1.51V232.955l15.8,13.382a4.551,4.551,0,0,0,5.9,0l15.79-13.392v19.607a3.186,3.186,0,0,1-.381,1.515l-9.265-9.427a.68.68,0,0,0-.97.953l9.347,9.511a3.186,3.186,0,0,1-1.937.654Zm0-27.5H73.651a3.21,3.21,0,0,1,3.192,2.92L60.187,245.3a3.2,3.2,0,0,1-4.145,0L39.373,231.183a3.209,3.209,0,0,1,3.193-2.933Zm0,0" transform="translate(0 0)" fill="#fff"/></g></svg>