<svg xmlns="http://www.w3.org/2000/svg" width="31.272" height="31.272" viewBox="0 0 31.272 31.272"><path d="M229.091,206.393h-6.255V195.969h-4.17v-6.254h4.17v-2.606a6.841,6.841,0,0,1,6.2-6.776h5.785v6.255h-5.212a.492.492,0,0,0-.521.521v2.606H234.3v6.254h-5.212Zm-5.212-1.042h4.17V194.927h5.212v-4.17h-5.212v-3.648a1.536,1.536,0,0,1,1.564-1.564h4.17v-4.17h-4.691a5.771,5.771,0,0,0-5.212,5.733v3.648h-4.17v4.17h4.17Z" transform="translate(-208.243 -175.121)" fill="#fff"/><path d="M76.666,126.272H50.606A2.581,2.581,0,0,1,48,123.666V97.606A2.581,2.581,0,0,1,50.606,95h26.06a2.581,2.581,0,0,1,2.606,2.606v26.06A2.581,2.581,0,0,1,76.666,126.272Zm-26.06-30.23a1.536,1.536,0,0,0-1.564,1.564v26.06a1.536,1.536,0,0,0,1.564,1.564h26.06a1.536,1.536,0,0,0,1.564-1.564V97.606a1.536,1.536,0,0,0-1.564-1.564Z" transform="translate(-48 -95)" fill="#fff"/></svg>