<svg xmlns="http://www.w3.org/2000/svg" viewBox="0 0 68.27 68.27"><defs><style>.cls-1{fill:#ef7c1f;}.cls-2{fill:#fff;}.cls-3{fill:#304798;}</style></defs><g id="Layer_2" data-name="Layer 2"><g id="Favicon_2" data-name="Favicon 2"><rect class="cls-1" width="68.27" height="68.27" rx="8.29"/><path class="cls-2" d="M35.39,10.28a22,22,0,0,0-20,11.93l7.27,7.27A13,13,0,0,1,35.39,18.92c7.46,0,13,6.19,13,13.82s-5.59,13.81-13,13.81A13,13,0,0,1,23.1,37.38l-7,7A22,22,0,0,0,35.39,55.19,22,22,0,0,0,57.85,32.74,22,22,0,0,0,35.39,10.28Z"/><polygon class="cls-3" points="11.24 22.36 11.24 44.65 22.39 33.51 11.24 22.36"/></g></g></svg>