<svg xmlns="http://www.w3.org/2000/svg" xmlns:xlink="http://www.w3.org/1999/xlink" width="169" height="167" viewBox="0 0 169 167"><defs><filter id="a" x="0" y="0" width="169" height="167" filterUnits="userSpaceOnUse"><feOffset input="SourceAlpha"/><feGaussianBlur stdDeviation="15" result="b"/><feFlood flood-opacity="0.161"/><feComposite operator="in" in2="b"/><feComposite in="SourceGraphic"/></filter></defs><g transform="translate(-9575 -5150.5)"><g transform="matrix(1, 0, 0, 1, 9575, 5150.5)" filter="url(#a)"><rect width="77" height="79" rx="38.5" transform="translate(124 45) rotate(90)" fill="#2c68b0"/></g><path d="M15.554,21.531H15.53a2.5,2.5,0,0,1-1.912-.918L-1.936,1.582a2.5,2.5,0,0,1,.354-3.518,2.5,2.5,0,0,1,3.518.354L15.591,15.126,29.817-1.619a2.5,2.5,0,0,1,3.524-.287,2.5,2.5,0,0,1,.287,3.524L17.459,20.65A2.5,2.5,0,0,1,15.554,21.531Z" transform="translate(9668.941 5218.412) rotate(90)" fill="#fff"/></g></svg>