<svg xmlns="http://www.w3.org/2000/svg" viewBox="0 0 79 77"><defs><style>.cls-1{fill:#2c68b0;}.cls-2{fill:#fff;}</style></defs><g id="Layer_2" data-name="Layer 2"><g id="Layer_1-2" data-name="Layer 1"><path class="cls-1" d="M0,38.5H0A38.5,38.5,0,0,1,38.5,0h2A38.5,38.5,0,0,1,79,38.5h0A38.5,38.5,0,0,1,40.5,77h-2A38.5,38.5,0,0,1,0,38.5Z"/><path class="cls-2" d="M29.48,22.91A2.51,2.51,0,0,1,33.57,21h0l19,15.55a2.49,2.49,0,0,1,0,3.84l-19,16.17a2.5,2.5,0,1,1-3.29-3.76l.06-.05L47.11,38.5,30.4,24.85A2.52,2.52,0,0,1,29.48,22.91Z"/></g></g></svg>