<svg xmlns="http://www.w3.org/2000/svg" viewBox="0 0 77 79"><defs><style>.cls-1{fill:#2c68b0;}.cls-2{fill:#fff;}</style></defs><g id="Layer_2" data-name="Layer 2"><g id="Layer_1-2" data-name="Layer 1"><g id="Group"><g id="Group_2" data-name="Group 2"><path id="Vector" class="cls-1" d="M77,38.5a38.5,38.5,0,0,0-77,0v2a38.5,38.5,0,0,0,77,0Z"/></g><path id="Vector_2" data-name="Vector 2" class="cls-2" d="M54.09,29.49a2.43,2.43,0,0,1,1.58.56,2.65,2.65,0,0,1,.62.75,2.38,2.38,0,0,1,.28.94,2.3,2.3,0,0,1-.09,1,2.47,2.47,0,0,1-.46.86l-15.55,19a2.53,2.53,0,0,1-.85.67,2.61,2.61,0,0,1-1.06.25,2.56,2.56,0,0,1-1.93-.88l-16.17-19a2.58,2.58,0,0,1-.49-.85,2.32,2.32,0,0,1-.12-1,2.45,2.45,0,0,1,.26-.95,2.66,2.66,0,0,1,.61-.77,2.6,2.6,0,0,1,.86-.48,2.51,2.51,0,0,1,1-.1,2.65,2.65,0,0,1,1,.27,2.56,2.56,0,0,1,.76.63L38.5,47.11,52.15,30.4a2.6,2.6,0,0,1,.87-.67A2.46,2.46,0,0,1,54.09,29.49Z"/></g></g></g></svg>