<svg xmlns="http://www.w3.org/2000/svg" viewBox="0 0 79 77"><defs><style>.cls-1{fill:#2c68b0;}.cls-2{fill:#fff;}</style></defs><g id="Layer_2" data-name="Layer 2"><g id="Layer_1-2" data-name="Layer 1"><path class="cls-1" d="M79,38.5h0A38.5,38.5,0,0,1,40.5,77h-2A38.5,38.5,0,0,1,0,38.5H0A38.5,38.5,0,0,1,38.5,0h2A38.5,38.5,0,0,1,79,38.5Z"/><path class="cls-2" d="M27.41,38.47v0a2.49,2.49,0,0,1,.92-1.91L47.36,21a2.5,2.5,0,0,1,3.52.35h0a2.51,2.51,0,0,1-.36,3.52h0L33.82,38.5,50.56,52.73a2.5,2.5,0,0,1,.29,3.52h0a2.5,2.5,0,0,1-3.53.29h0l-19-16.17A2.48,2.48,0,0,1,27.41,38.47Z"/></g></g></svg>