<svg xmlns="http://www.w3.org/2000/svg" xmlns:xlink="http://www.w3.org/1999/xlink" width="169" height="167" viewBox="0 0 169 167"><defs><filter id="a" x="0" y="0" width="169" height="167" filterUnits="userSpaceOnUse"><feOffset input="SourceAlpha"/><feGaussianBlur stdDeviation="15" result="b"/><feFlood flood-opacity="0.161"/><feComposite operator="in" in2="b"/><feComposite in="SourceGraphic"/></filter></defs><g transform="translate(-11106 -5150.5)"><g transform="matrix(1, 0, 0, 1, 11106, 5150.5)" filter="url(#a)"><rect width="77" height="79" rx="38.5" transform="translate(45 122) rotate(-90)" fill="#2c68b0"/></g><path d="M0,21.531a2.49,2.49,0,0,1-1.581-.564,2.5,2.5,0,0,1-.354-3.518L13.618-1.582A2.5,2.5,0,0,1,15.53-2.5a2.5,2.5,0,0,1,1.929.881L33.628,17.413a2.5,2.5,0,1,1-3.81,3.237L15.591,3.905,1.936,20.613A2.5,2.5,0,0,1,0,21.531Z" transform="translate(11202.016 5218.412) rotate(90)" fill="#fff"/></g></svg>