<svg xmlns="http://www.w3.org/2000/svg" xmlns:xlink="http://www.w3.org/1999/xlink" width="209" height="211" viewBox="0 0 209 211"><defs><filter id="a" x="0" y="0" width="209" height="211" filterUnits="userSpaceOnUse"><feOffset input="SourceAlpha"/><feGaussianBlur stdDeviation="15" result="b"/><feFlood flood-opacity="0.161"/><feComposite operator="in" in2="b"/><feComposite in="SourceGraphic"/></filter></defs><g transform="translate(-12513 -3132)"><g transform="matrix(1, 0, 0, 1, 12513, 3132)" filter="url(#a)"><rect width="119" height="121" rx="59.5" transform="translate(45 45)" fill="#2c68b0"/></g><g transform="translate(11228.516 566.479)"><path d="M-255.545,462.848h-.015a1.044,1.044,0,0,1-.952-.649l-3.36-8.231-8.077,3.686a1.043,1.043,0,0,1-1.388-1.371l8.794-19.9a1.044,1.044,0,1,1,1.909.843l-7.682,17.386,6.573-3a1.043,1.043,0,0,1,1.4.555l2.843,6.961,8.242-18.691a1.043,1.043,0,0,1,1.909.842l-9.237,20.936a1.044,1.044,0,0,1-.957.626Zm0,0" transform="translate(1634.158 2246.226)" fill="#fff"/><path d="M-261.767,260.925a3.82,3.82,0,0,1-1-.128c-1.557-.418-2.6-1.774-3.518-2.973a7.694,7.694,0,0,0-1.878-1.982,7.819,7.819,0,0,0-2.713-.662c-1.554-.208-3.162-.423-4.277-1.541s-1.334-2.727-1.542-4.283a7.88,7.88,0,0,0-.661-2.707,7.746,7.746,0,0,0-1.982-1.878c-1.2-.92-2.558-1.96-2.974-3.517-.4-1.5.208-2.979.8-4.412a8.005,8.005,0,0,0,.8-2.743,8,8,0,0,0-.8-2.742c-.591-1.433-1.2-2.922-.8-4.412.417-1.557,1.773-2.6,2.974-3.517a7.743,7.743,0,0,0,1.982-1.884,7.855,7.855,0,0,0,.66-2.706c.209-1.556.417-3.163,1.542-4.278s2.727-1.333,4.278-1.542a7.849,7.849,0,0,0,2.713-.661,7.732,7.732,0,0,0,1.878-1.982c.918-1.2,1.96-2.559,3.517-2.975,1.5-.4,2.979.209,4.412.8a7.984,7.984,0,0,0,2.744.786,7.99,7.99,0,0,0,2.743-.8c1.434-.59,2.921-1.2,4.411-.8,1.557.417,2.6,1.773,3.518,2.974a7.708,7.708,0,0,0,1.878,1.982,7.81,7.81,0,0,0,2.707.66c1.554.209,3.162.423,4.278,1.542s1.334,2.728,1.542,4.278a7.882,7.882,0,0,0,.661,2.713,7.748,7.748,0,0,0,1.982,1.878c1.2.919,2.559,1.961,2.975,3.517.4,1.5-.209,2.979-.8,4.413a8,8,0,0,0-.8,2.743,8,8,0,0,0,.8,2.742c.591,1.434,1.2,2.921.8,4.413-.418,1.556-1.774,2.6-2.975,3.517a7.748,7.748,0,0,0-1.982,1.878,7.868,7.868,0,0,0-.66,2.706c-.208,1.556-.423,3.164-1.542,4.282s-2.726,1.334-4.278,1.541a7.841,7.841,0,0,0-2.707.663,7.719,7.719,0,0,0-1.878,1.982c-.918,1.2-1.96,2.558-3.517,2.974-1.5.4-2.979-.208-4.412-.8a7.964,7.964,0,0,0-2.744-.785,7.972,7.972,0,0,0-2.743.8,9.267,9.267,0,0,1-3.413.93Zm0-51.576a1.79,1.79,0,0,0-.46.056c-.871.233-1.614,1.2-2.4,2.228a9.249,9.249,0,0,1-2.494,2.516,9.368,9.368,0,0,1-3.477.923,5.649,5.649,0,0,0-3.083.949,5.637,5.637,0,0,0-.95,3.083,9.375,9.375,0,0,1-.922,3.475,9.244,9.244,0,0,1-2.521,2.494c-1.026.787-1.993,1.529-2.227,2.4a5.592,5.592,0,0,0,.715,3.079,9.511,9.511,0,0,1,.954,3.537,9.487,9.487,0,0,1-.954,3.536,5.6,5.6,0,0,0-.715,3.08c.234.871,1.2,1.613,2.227,2.4a9.245,9.245,0,0,1,2.521,2.494,9.343,9.343,0,0,1,.922,3.475,5.653,5.653,0,0,0,.95,3.084,5.644,5.644,0,0,0,3.083.949,9.345,9.345,0,0,1,3.475.924,9.187,9.187,0,0,1,2.493,2.52c.786,1.025,1.529,1.994,2.4,2.226a5.614,5.614,0,0,0,3.078-.715,9.513,9.513,0,0,1,3.539-.95,9.514,9.514,0,0,1,3.538.953,5.576,5.576,0,0,0,3.078.715c.871-.232,1.614-1.2,2.4-2.227a9.215,9.215,0,0,1,2.493-2.519,9.351,9.351,0,0,1,3.477-.924,5.635,5.635,0,0,0,3.083-.949,5.636,5.636,0,0,0,.95-3.083,9.37,9.37,0,0,1,.922-3.475,9.241,9.241,0,0,1,2.521-2.5c1.026-.786,1.993-1.528,2.227-2.4a5.592,5.592,0,0,0-.715-3.078,9.491,9.491,0,0,1-.954-3.537,9.5,9.5,0,0,1,.954-3.537,5.591,5.591,0,0,0,.715-3.079c-.234-.872-1.2-1.613-2.227-2.4a9.235,9.235,0,0,1-2.521-2.494,9.355,9.355,0,0,1-.922-3.475,5.655,5.655,0,0,0-.95-3.084,5.642,5.642,0,0,0-3.083-.949,9.376,9.376,0,0,1-3.475-.927,9.235,9.235,0,0,1-2.493-2.521c-.786-1.026-1.529-1.994-2.4-2.227a5.6,5.6,0,0,0-3.078.715,9.536,9.536,0,0,1-3.539.958,9.53,9.53,0,0,1-3.538-.954,7.792,7.792,0,0,0-2.617-.77Zm0,0" transform="translate(1644.552 2428.781)" fill="#fff"/><rect width="53.971" height="73.075" transform="translate(1362 2635.968)" fill="none"/><path d="M-219.764,287.765a17.807,17.807,0,0,1-16.451-10.992,17.8,17.8,0,0,1,3.858-19.4,17.805,17.805,0,0,1,19.406-3.86,17.806,17.806,0,0,1,10.992,16.45,17.827,17.827,0,0,1-17.8,17.807Zm0-33.525a15.719,15.719,0,0,0-14.524,9.7,15.72,15.72,0,0,0,3.408,17.132,15.72,15.72,0,0,0,17.131,3.407,15.718,15.718,0,0,0,9.7-14.524,15.736,15.736,0,0,0-15.718-15.718Zm0,0" transform="translate(1608.705 2392.916)" fill="#fff"/><path d="M-138.543,462.848a1.043,1.043,0,0,1-.954-.626l-9.24-20.936a1.043,1.043,0,0,1,1.909-.842l8.242,18.691,2.843-6.961a1.043,1.043,0,0,1,1.4-.555l6.573,3-7.684-17.386a1.044,1.044,0,1,1,1.909-.843l8.791,19.9a1.043,1.043,0,0,1-1.388,1.371l-8.077-3.686-3.361,8.231a1.044,1.044,0,0,1-.952.649Zm0,0" transform="translate(1537.813 2246.226)" fill="#fff"/><path d="M-184.113,309.056a1.032,1.032,0,0,1-.485-.12l-5.222-2.745-5.216,2.745a1.043,1.043,0,0,1-1.513-1.1l1-5.813-4.225-4.118a1.044,1.044,0,0,1,.579-1.781l5.838-.847,2.608-5.29a1.086,1.086,0,0,1,.935-.533,1.086,1.086,0,0,1,.934.533l2.608,5.29,5.838.847a1.044,1.044,0,0,1,.579,1.781l-4.225,4.118,1,5.813a1.044,1.044,0,0,1-1.027,1.22Zm-5.707-5.086a1.035,1.035,0,0,1,.485.119l3.836,2.02-.73-4.27a1.047,1.047,0,0,1,.3-.924l3.1-3.025-4.286-.626a1.045,1.045,0,0,1-.785-.572l-1.921-3.885-1.918,3.885a1.041,1.041,0,0,1-.785.572l-4.287.626,3.1,3.025a1.046,1.046,0,0,1,.3.924l-.73,4.27,3.836-2.017a1.055,1.055,0,0,1,.482-.122Zm0,0" transform="translate(1578.761 2363.112)" fill="#fff"/></g></g></svg>