<svg xmlns="http://www.w3.org/2000/svg" xmlns:xlink="http://www.w3.org/1999/xlink" width="209" height="211" viewBox="0 0 209 211"><defs><filter id="a" x="0" y="0" width="209" height="211" filterUnits="userSpaceOnUse"><feOffset input="SourceAlpha"/><feGaussianBlur stdDeviation="15" result="b"/><feFlood flood-opacity="0.161"/><feComposite operator="in" in2="b"/><feComposite in="SourceGraphic"/></filter></defs><g transform="translate(-12513 -2918)"><g transform="matrix(1, 0, 0, 1, 12513, 2918)" filter="url(#a)"><rect width="119" height="121" rx="59.5" transform="translate(45 45)" fill="#2c68b0"/></g><path d="M75.214,118.766a9.467,9.467,0,1,0-10.861,0,16.4,16.4,0,0,0-5.595,3.281,21.225,21.225,0,0,0-7.678-4.184,11.993,11.993,0,1,0-12.4,0A21.4,21.4,0,0,0,31.08,122a16.536,16.536,0,0,0-5.529-3.216,9.467,9.467,0,1,0-10.861,0A16.617,16.617,0,0,0,3.5,134.484v1.083a.071.071,0,0,0,.066.066H23.631a22.067,22.067,0,0,0-.18,2.773v1.116a8.725,8.725,0,0,0,8.728,8.728H57.61a8.725,8.725,0,0,0,8.728-8.728v-1.116a22.067,22.067,0,0,0-.18-2.773h20.2a.071.071,0,0,0,.066-.066v-1.083A16.681,16.681,0,0,0,75.214,118.766Zm-12.272-7.76a6.842,6.842,0,1,1,6.973,6.842h-.263A6.832,6.832,0,0,1,62.942,111.006Zm-27.465-3.413a9.368,9.368,0,1,1,9.91,9.352H44.3A9.382,9.382,0,0,1,35.477,107.593Zm-22.248,3.413a6.842,6.842,0,1,1,6.973,6.842H19.94A6.843,6.843,0,0,1,13.229,111.006Zm10.861,21.985H6.158a14.018,14.018,0,0,1,13.815-12.518h.2a13.873,13.873,0,0,1,8.942,3.331A21.542,21.542,0,0,0,24.091,132.991Zm39.59,6.53a6.113,6.113,0,0,1-6.1,6.1H32.146a6.113,6.113,0,0,1-6.1-6.1v-1.116A18.847,18.847,0,0,1,44.3,119.587c.18.016.377.016.558.016s.377,0,.558-.016A18.847,18.847,0,0,1,63.68,138.405Zm1.952-6.53a21.485,21.485,0,0,0-4.971-9.122,13.94,13.94,0,0,1,9.024-3.4h.2A14.018,14.018,0,0,1,83.7,132.991Z" transform="translate(12572.539 2901.574)" fill="#fff"/></g></svg>