<svg xmlns="http://www.w3.org/2000/svg" xmlns:xlink="http://www.w3.org/1999/xlink" width="209" height="211" viewBox="0 0 209 211"><defs><filter id="a" x="0" y="0" width="209" height="211" filterUnits="userSpaceOnUse"><feOffset input="SourceAlpha"/><feGaussianBlur stdDeviation="15" result="b"/><feFlood flood-opacity="0.161"/><feComposite operator="in" in2="b"/><feComposite in="SourceGraphic"/></filter></defs><g transform="translate(-12513 -2704)"><g transform="matrix(1, 0, 0, 1, 12513, 2704)" filter="url(#a)"><rect width="119" height="121" rx="59.5" transform="translate(45 45)" fill="#2c68b0"/></g><g transform="translate(12863.389 2563.109)"><path d="M-213.388,221.723h-15.648v-4.815a6.026,6.026,0,0,0-6.019-6.019h-21.667a6.026,6.026,0,0,0-6.019,6.019v4.815h-15.648A3.611,3.611,0,0,0-282,225.335v26.794a3.627,3.627,0,0,0,2.407,3.4v16.752a3.611,3.611,0,0,0,3.611,3.611H-215.8a3.611,3.611,0,0,0,3.611-3.611V255.529a3.628,3.628,0,0,0,2.407-3.4V225.335a3.611,3.611,0,0,0-3.611-3.611Zm-46.945-4.815a3.611,3.611,0,0,1,3.611-3.611h21.667a3.611,3.611,0,0,1,3.611,3.611v4.815h-2.407v-4.815a1.2,1.2,0,0,0-1.2-1.2h-21.667a1.2,1.2,0,0,0-1.2,1.2v4.815h-2.407Zm24.074,4.815h-19.259v-3.611h19.259Zm21.667,50.556a1.2,1.2,0,0,1-1.2,1.2h-60.186a1.2,1.2,0,0,1-1.2-1.2V255.941l26.482,3.652v3.056a3.611,3.611,0,0,0,3.611,3.611h2.407a3.611,3.611,0,0,0,3.611-3.611v-3.056l26.482-3.652Zm-28.889-9.63a1.2,1.2,0,0,1-1.2,1.2h-2.407a1.2,1.2,0,0,1-1.2-1.2v-7.222a1.2,1.2,0,0,1,1.2-1.2h2.407a1.2,1.2,0,0,1,1.2,1.2Zm31.3-10.521a1.2,1.2,0,0,1-1.035,1.193l-.334.046-27.52,3.8v-1.736a3.611,3.611,0,0,0-3.611-3.611h-2.407a3.611,3.611,0,0,0-3.611,3.611v1.736l-27.853-3.841a1.2,1.2,0,0,1-1.036-1.193V225.335a1.2,1.2,0,0,1,1.2-1.2h65a1.2,1.2,0,0,1,1.2,1.2Zm0,0" transform="translate(0 0)" fill="#fff"/></g></g></svg>