<svg xmlns="http://www.w3.org/2000/svg" width="31.272" height="31.272" viewBox="0 0 31.272 31.272"><path d="M22.36,31.272H8.913A8.942,8.942,0,0,1,0,22.36V8.913A8.942,8.942,0,0,1,8.913,0H22.36a8.942,8.942,0,0,1,8.913,8.913V22.36A8.942,8.942,0,0,1,22.36,31.272ZM8.913,1.042a7.9,7.9,0,0,0-7.87,7.87V22.36a7.9,7.9,0,0,0,7.87,7.87H22.36a7.9,7.9,0,0,0,7.87-7.87V8.913a7.9,7.9,0,0,0-7.87-7.87Z" fill="#fff"/><path d="M70.433,76.218H56.985A5.806,5.806,0,0,1,51.2,70.433V56.985A5.806,5.806,0,0,1,56.985,51.2H70.433a5.806,5.806,0,0,1,5.785,5.785V70.433A5.806,5.806,0,0,1,70.433,76.218ZM56.985,52.242a4.76,4.76,0,0,0-4.743,4.743V70.433a4.76,4.76,0,0,0,4.743,4.743H70.433a4.76,4.76,0,0,0,4.743-4.743V56.985a4.76,4.76,0,0,0-4.743-4.743Z" transform="translate(-48.073 -48.073)" fill="#fff"/><path d="M127.806,136.146a8.339,8.339,0,1,1,8.339-8.339A8.364,8.364,0,0,1,127.806,136.146Zm0-15.636a7.3,7.3,0,1,0,7.3,7.3A7.318,7.318,0,0,0,127.806,120.509Z" transform="translate(-112.17 -112.17)" fill="#fff"/><path d="M167.866,173.6a5.733,5.733,0,1,1,5.733-5.733A5.717,5.717,0,0,1,167.866,173.6Zm0-10.424a4.691,4.691,0,1,0,4.691,4.691A4.671,4.671,0,0,0,167.866,163.175Z" transform="translate(-152.23 -152.23)" fill="#fff"/><path d="M370.06,95.431a1.564,1.564,0,1,0-1.564,1.564,1.536,1.536,0,0,0,1.564-1.564" transform="translate(-344.521 -88.134)" fill="#fff"/></svg>