<svg xmlns="http://www.w3.org/2000/svg" width="31.684" height="31.008" viewBox="0 0 31.684 31.008"><path d="M282.716,402.89A3.507,3.507,0,0,0,279,406.422a3.469,3.469,0,0,0,3.643,3.528,3.815,3.815,0,0,0,2.73-1.027A3.451,3.451,0,0,0,286.4,406.4a3.5,3.5,0,0,0-3.68-3.514Zm1.693,5.047a2.481,2.481,0,0,1-1.767.636,2.159,2.159,0,1,1,2.376-2.151,2.083,2.083,0,0,1-.609,1.515Zm0,0" transform="translate(-279 -402.89)" fill="#fff"/><path d="M279.766,435.217h6.2V412.433h-6.2Zm1.38-21.4h3.44v20.023h-3.44Zm0,0" transform="translate(-279.106 -404.209)" fill="#fff"/><path d="M303.856,412.433a8.062,8.062,0,0,0-5.652,1.926l-.191-1.926H291v22.784h6.868V423.242a7.036,7.036,0,0,1,.34-1.868c.828-1.787,1.946-1.787,3.643-1.787a3.864,3.864,0,0,1,3.6,4v11.634h6.894V422.344c0-6.81-4.4-9.91-8.487-9.91Zm7.11,21.4h-4.137V423.583a5.257,5.257,0,0,0-4.979-5.377c-1.734,0-3.7,0-4.895,2.585a7.923,7.923,0,0,0-.468,2.451v10.594h-4.106V413.814h4.383l.283,2.787h1.127l.2-.327c.461-.74,1.915-2.46,5.48-2.46,3.424,0,7.11,2.669,7.11,8.53Zm0,0" transform="translate(-280.659 -404.209)" fill="#fff"/></svg>