<svg width="117" height="117" viewBox="0 0 117 117" fill="none" xmlns="http://www.w3.org/2000/svg">
<g id="Group">
<g id="Group_2" filter="url(#filter0_d)">
<path id="Vector" d="M97 58.5C97 37.237 79.763 20 58.5 20C37.237 20 20 37.237 20 58.5C20 79.763 37.237 97 58.5 97C79.763 97 97 79.763 97 58.5Z" fill="#2C68B0"/>
</g>
<g id="Group_3">
<path id="Vector_2" d="M45.0652 56.2612C45.0503 54.7863 45.3297 53.3231 45.8873 51.9575C46.4448 50.5919 47.2693 49.3513 48.3123 48.3083C49.3553 47.2653 50.5959 46.4408 51.9615 45.8833C53.3271 45.3257 54.7903 45.0463 56.2652 45.0612C57.7402 45.0463 59.2033 45.3257 60.5689 45.8833C61.9346 46.4408 63.1752 47.2653 64.2182 48.3083C65.2612 49.3513 66.0856 50.5919 66.6432 51.9575C67.2007 53.3231 67.4802 54.7863 67.4652 56.2612C67.4802 57.7362 67.2007 59.1993 66.6432 60.5649C66.0856 61.9306 65.2612 63.1712 64.2182 64.2142C63.1752 65.2572 61.9346 66.0816 60.5689 66.6392C59.2033 67.1967 57.7402 67.4762 56.2652 67.4612C54.7903 67.4762 53.3271 67.1967 51.9615 66.6392C50.5959 66.0816 49.3553 65.2572 48.3123 64.2142C47.2693 63.1712 46.4448 61.9306 45.8873 60.5649C45.3297 59.1993 45.0503 57.7362 45.0652 56.2612V56.2612ZM72.6092 75.7442C73.0269 76.1503 73.5877 76.3757 74.1703 76.3716C74.7528 76.3675 75.3104 76.1342 75.7223 75.7223C76.1342 75.3104 76.3675 74.7528 76.3716 74.1703C76.3757 73.5877 76.1503 73.0269 75.7442 72.6092L68.8022 65.6672C70.8599 62.9659 71.9626 59.6579 71.9372 56.2622C71.9501 54.2 71.5534 52.1558 70.7702 50.2481C69.987 48.3404 68.8328 46.6071 67.3746 45.1489C65.9163 43.6907 64.1831 42.5365 62.2754 41.7533C60.3677 40.97 58.3234 40.5734 56.2612 40.5862C54.1992 40.5735 52.1552 40.9702 50.2476 41.7535C48.3401 42.5367 46.607 43.6908 45.1489 45.1489C43.6908 46.607 42.5367 48.3401 41.7535 50.2476C40.9702 52.1552 40.5735 54.1992 40.5862 56.2612C40.5734 58.3234 40.97 60.3675 41.7532 62.2752C42.5363 64.1828 43.6905 65.916 45.1486 67.3742C46.6067 68.8324 48.3398 69.9866 50.2474 70.7699C52.155 71.5532 54.1991 71.95 56.2612 71.9372C59.6569 71.9626 62.9649 70.8599 65.6662 68.8022L72.6092 75.7442Z" fill="white"/>
</g>
</g>
<defs>
<filter id="filter0_d" x="0" y="0" width="117" height="117" filterUnits="userSpaceOnUse" color-interpolation-filters="sRGB">
<feFlood flood-opacity="0" result="BackgroundImageFix"/>
<feColorMatrix in="SourceAlpha" type="matrix" values="0 0 0 0 0 0 0 0 0 0 0 0 0 0 0 0 0 0 127 0" result="hardAlpha"/>
<feOffset/>
<feGaussianBlur stdDeviation="10"/>
<feColorMatrix type="matrix" values="0 0 0 0 0 0 0 0 0 0 0 0 0 0 0 0 0 0 0.161 0"/>
<feBlend mode="normal" in2="BackgroundImageFix" result="effect1_dropShadow"/>
<feBlend mode="normal" in="SourceGraphic" in2="effect1_dropShadow" result="shape"/>
</filter>
</defs>
</svg>
