<svg xmlns="http://www.w3.org/2000/svg" xmlns:xlink="http://www.w3.org/1999/xlink" width="137" height="137" viewBox="0 0 137 137"><defs><filter id="a" x="0" y="0" width="137" height="137" filterUnits="userSpaceOnUse"><feOffset input="SourceAlpha"/><feGaussianBlur stdDeviation="10" result="b"/><feFlood flood-opacity="0.161"/><feComposite operator="in" in2="b"/><feComposite in="SourceGraphic"/></filter></defs><g transform="translate(-11832 -3254)"><g transform="matrix(1, 0, 0, 1, 11832, 3254)" filter="url(#a)"><rect width="77" height="77" rx="38.5" transform="translate(30 30)" fill="#2c68b0"/></g><g transform="translate(11882.586 3304.586)"><path d="M4.479,15.675a11.088,11.088,0,0,1,11.2-11.2,11.088,11.088,0,0,1,11.2,11.2,11.088,11.088,0,0,1-11.2,11.2A11.088,11.088,0,0,1,4.479,15.675ZM32.023,35.158a2.217,2.217,0,0,0,3.135-3.135l-6.942-6.942a15.332,15.332,0,0,0,3.135-9.405A15.579,15.579,0,0,0,15.675,0,15.579,15.579,0,0,0,0,15.675,15.579,15.579,0,0,0,15.675,31.351a15.332,15.332,0,0,0,9.405-3.135Z" fill="#fff"/></g></g></svg>