<svg xmlns="http://www.w3.org/2000/svg" width="35.409" height="37" viewBox="0 0 35.409 37">
  <path id="Tracé_387" data-name="Tracé 387" d="M58.538,56.089H49.849a1.241,1.241,0,0,1-1.241-1.241V44.917H42.4v9.931a1.241,1.241,0,0,1-1.241,1.241H32.47a1.241,1.241,0,0,1-1.241-1.241V37.469H29.041a1.241,1.241,0,0,1-.862-2.134l16.463-15.9a1.235,1.235,0,0,1,1.724,0l16.464,15.9a1.241,1.241,0,0,1-.863,2.134H59.78V54.847A1.241,1.241,0,0,1,58.538,56.089ZM42.4,43.675h6.207a1.241,1.241,0,0,1,1.241,1.241v9.931h8.689V37.469a1.241,1.241,0,0,1,1.241-1.241h2.194L45.5,20.332l-16.463,15.9h2.188a1.241,1.241,0,0,1,1.241,1.241V54.847H41.16V44.917A1.241,1.241,0,0,1,42.4,43.675Z" transform="translate(-27.8 -19.089)" fill="#fff"/>
</svg>
