<svg xmlns="http://www.w3.org/2000/svg" width="37.003" height="37" viewBox="0 0 37.003 37"><path d="M-444.733-35.038a10.924,10.924,0,0,0,2.9-.379,4.414,4.414,0,0,0,2.615-2.015l1.883-3.13A2.175,2.175,0,0,0-438-43.494l-7.49-4.995a2.186,2.186,0,0,0-2.927.475l-2.182,2.8a.932.932,0,0,1-1.2.252l-.415-.229a25.077,25.077,0,0,1-6.536-5.133,25.176,25.176,0,0,1-5.134-6.536l-.228-.415a.934.934,0,0,1,.247-1.2l2.8-2.181a2.187,2.187,0,0,0,.476-2.927l-4.995-7.489a2.175,2.175,0,0,0-2.931-.66l-3.132,1.881a4.418,4.418,0,0,0-2.015,2.614c-1.128,4.109-.279,11.2,10.167,21.649C-455.172-37.273-448.985-35.038-444.733-35.038ZM-472.46-66.905A3.192,3.192,0,0,1-471-68.788l3.132-1.879a.943.943,0,0,1,1.272.286l2.713,4.073,2.277,3.415a.949.949,0,0,1-.206,1.27l-2.8,2.181a2.158,2.158,0,0,0-.572,2.77l.223.4a26.159,26.159,0,0,0,5.345,6.82A26.187,26.187,0,0,0-452.8-44.1l.405.223a2.158,2.158,0,0,0,2.77-.572l2.181-2.8a.95.95,0,0,1,1.27-.206l7.489,4.995a.943.943,0,0,1,.286,1.272l-1.879,3.132a3.186,3.186,0,0,1-1.881,1.458c-3.793,1.041-10.421.179-20.45-9.85S-473.5-63.111-472.46-66.905Z" transform="translate(474.028 72.038)" fill="#fff"/></svg>