<svg xmlns="http://www.w3.org/2000/svg" width="37.766" height="31.272" viewBox="0 0 37.766 31.272"><path d="M313.451,407.529a.72.72,0,0,0-.834.025,4.254,4.254,0,0,1-1.4.582c1.461-1.64,1.493-2.732,1.479-2.983a.714.714,0,0,0-1.134-.534,7.577,7.577,0,0,1-4.26,1.473,7.915,7.915,0,0,0-5.506-2.216,8.153,8.153,0,0,0-7.949,9.288c-7.672-.087-13.9-7.438-13.97-7.515a.713.713,0,0,0-.611-.251.7.7,0,0,0-.555.352,8.143,8.143,0,0,0,.618,9.12,5.172,5.172,0,0,1-.548-.335.707.707,0,0,0-.74-.07.725.725,0,0,0-.4.632,7.806,7.806,0,0,0,3.349,6.895.726.726,0,0,0-.6.227.712.712,0,0,0-.157.694,7.674,7.674,0,0,0,5.725,5.436c-3.667,2.854-9.061,1.933-9.12,1.922a.715.715,0,0,0-.558,1.274,19.491,19.491,0,0,0,11.838,3.6,22.8,22.8,0,0,0,4.495-.412c16.935-4.012,17.41-19.521,17.372-22.065,3.178-2.956,3.674-4.082,3.75-4.361a.709.709,0,0,0-.286-.782Zm-4.672,4.312a.708.708,0,0,0-.227.576c.042.684.911,16.859-16.252,20.927-.077.017-6.9,1.441-12.812-1.49,2.5-.071,6.082-.726,8.576-3.528a.713.713,0,0,0-.534-1.19h-.007a6.347,6.347,0,0,1-5.506-3.573,4.879,4.879,0,0,0,2.226-.317.714.714,0,0,0-.153-1.347,6.505,6.505,0,0,1-4.955-5.53,4.2,4.2,0,0,0,2.246.38.715.715,0,0,0,.363-1.245c-.182-.157-4.1-3.642-2.244-8.14,2.02,2.118,8,7.623,15.247,7.208a.717.717,0,0,0,.653-.89,6.887,6.887,0,0,1-.206-1.671,6.659,6.659,0,0,1,6.6-6.706,6.5,6.5,0,0,1,4.7,2,.716.716,0,0,0,.5.22,8.881,8.881,0,0,0,3.409-.645,11.439,11.439,0,0,1-1.877,1.8.714.714,0,0,0,.5,1.274,16.236,16.236,0,0,0,1.975-.3c-.527.565-1.242,1.284-2.223,2.184Zm0,0" transform="translate(-275.999 -403.876)" fill="#fff"/></svg>