<svg xmlns="http://www.w3.org/2000/svg" width="35.367" height="37" viewBox="0 0 35.367 37"><g transform="translate(-113 -228.89)"><path d="M130.683,421.882A17.7,17.7,0,0,0,113,439.565a.769.769,0,1,0,1.538,0,16.146,16.146,0,0,1,32.291,0,.769.769,0,1,0,1.538,0,17.7,17.7,0,0,0-17.683-17.683Zm0,0" transform="translate(0 -174.445)" fill="#e8491c"/><path d="M217.457,228.89a8.457,8.457,0,1,0,8.457,8.457,8.467,8.467,0,0,0-8.457-8.457Zm0,15.377a6.92,6.92,0,1,1,6.92-6.92,6.928,6.928,0,0,1-6.92,6.92Zm0,0" transform="translate(-86.774)" fill="#e8491c"/></g></svg>