<svg width="36" height="37" viewBox="0 0 36 37" fill="none" xmlns="http://www.w3.org/2000/svg">
<g id="USER 1" clip-path="url(#clip0)">
<g id="Group">
<path id="Vector" d="M17.683 18.547C12.9946 18.5515 8.49943 20.416 5.1842 23.7312C1.86897 27.0464 0.00450087 31.5416 0 36.23C0 36.4339 0.0810195 36.6295 0.225235 36.7738C0.36945 36.918 0.565046 36.999 0.768997 36.999C0.972949 36.999 1.16855 36.918 1.31277 36.7738C1.45698 36.6295 1.538 36.4339 1.538 36.23C1.57153 31.97 3.28734 27.8958 6.31157 24.8953C9.3358 21.8948 13.4233 20.211 17.6835 20.211C21.9437 20.211 26.0312 21.8948 29.0554 24.8953C32.0797 27.8958 33.7955 31.97 33.829 36.23C33.829 36.4339 33.91 36.6295 34.0542 36.7738C34.1984 36.918 34.3941 36.999 34.598 36.999C34.802 36.999 34.9976 36.918 35.1418 36.7738C35.286 36.6295 35.367 36.4339 35.367 36.23C35.3625 31.5416 33.498 27.0464 30.1828 23.7312C26.8676 20.416 22.3724 18.5515 17.684 18.547H17.683Z" fill="#E8491C"/>
<path id="Vector_2" d="M17.683 0C16.0104 0 14.3753 0.495995 12.9845 1.42526C11.5938 2.35453 10.5098 3.67533 9.86975 5.22064C9.22966 6.76596 9.06219 8.46638 9.3885 10.1069C9.71482 11.7474 10.5203 13.2543 11.703 14.437C12.8857 15.6197 14.3926 16.4252 16.0331 16.7515C17.6736 17.0778 19.374 16.9103 20.9194 16.2702C22.4647 15.6302 23.7855 14.5462 24.7147 13.1555C25.644 11.7647 26.14 10.1296 26.14 8.457C26.1374 6.21488 25.2455 4.06534 23.6601 2.47992C22.0747 0.894498 19.9251 0.00264651 17.683 0V0ZM17.683 15.377C16.3144 15.377 14.9764 14.9711 13.8385 14.2108C12.7005 13.4504 11.8135 12.3696 11.2897 11.1052C10.766 9.8407 10.629 8.44933 10.896 7.10698C11.163 5.76463 11.822 4.53161 12.7898 3.56383C13.7576 2.59605 14.9906 1.93698 16.333 1.66997C17.6753 1.40296 19.0667 1.53999 20.3312 2.06375C21.5956 2.58751 22.6764 3.47447 23.4368 4.61246C24.1971 5.75045 24.603 7.08835 24.603 8.457C24.6009 10.2916 23.8711 12.0505 22.5738 13.3478C21.2765 14.6451 19.5176 15.3749 17.683 15.377V15.377Z" fill="#E8491C"/>
</g>
</g>
<defs>
<clipPath id="clip0">
<rect width="35.367" height="37" fill="white"/>
</clipPath>
</defs>
</svg>
